<svg width="306" height="42" viewBox="0 0 306 42" fill="none" xmlns="http://www.w3.org/2000/svg">
<path d="M21.0682 0.416992C9.68329 0.416992 0.418945 9.61097 0.418945 20.9098C0.418945 32.2085 9.68184 41.4054 21.0682 41.4054H48.8773C60.2622 41.4054 69.5237 32.2114 69.5237 20.9098C69.5237 9.60808 60.2637 0.416992 48.8787 0.416992H21.0697H21.0682Z" fill="white"/>
<path d="M48.8784 41.8208H21.0693C9.45039 41.8208 0 32.4408 0 20.9097C0 9.37863 9.45039 0 21.0679 0H48.8769C60.493 0 69.9434 9.38008 69.9434 20.9097C69.9434 32.4393 60.493 41.8208 48.8769 41.8208M21.0679 0.416924C9.68294 0.416924 0.418596 9.6109 0.418596 20.9097C0.418596 32.2085 9.68149 41.4053 21.0679 41.4053H48.8769C60.2619 41.4053 69.5233 32.2114 69.5233 20.9097C69.5233 9.60801 60.2633 0.416924 48.8784 0.416924H21.0693H21.0679Z" fill="white"/>
<path d="M53.7373 19.6585L62.9842 30.575C64.8999 27.8282 66.0248 24.4971 66.0248 20.9107C66.0248 17.1252 64.772 13.6239 62.6572 10.7935L53.7373 19.66V19.6585Z" fill="#E31F28"/>
<path d="M27.5327 9.87425C34.4381 9.87425 39.6415 11.6184 40.1778 17.3933L47.4451 9.87281H61.9172C58.769 6.2157 54.0903 3.8916 48.8753 3.8916H21.0663C15.8498 3.8916 11.1697 6.21426 8.02148 9.87281H27.5313L27.5327 9.87425Z" fill="#E31F28"/>
<path d="M16.156 17.1499L13.6895 23.8798H23.6398C26.5816 23.8798 27.4712 22.6709 28.1296 20.3439C28.7807 18.0429 27.1441 17.1499 25.134 17.1499H16.156Z" fill="#E31F28"/>
<path d="M47.5066 31.4937L39.8193 21.8525C38.3978 28.4267 33.7453 31.4937 25.023 31.4937H7.64258C10.7864 35.4148 15.6366 37.9351 21.0667 37.9351H48.8758C54.3059 37.9351 59.1532 35.4177 62.297 31.4952H47.5052L47.5066 31.4937Z" fill="#E31F28"/>
<path d="M83.3696 17.261V29.7808H81.8612V14.4813H83.111L93.1526 27.238V14.5028H94.661V29.7808H93.2604L83.3696 17.261ZM96.9792 26.5485C96.9792 25.8446 97.1803 25.2412 97.5825 24.7384C97.9848 24.2212 98.5379 23.8262 99.2418 23.5532C99.9601 23.2659 100.786 23.1223 101.72 23.1223C102.266 23.1223 102.833 23.1654 103.422 23.2515C104.011 23.3377 104.536 23.467 104.995 23.6394V22.6913C104.995 21.7431 104.715 20.9889 104.155 20.4287C103.595 19.8684 102.819 19.5883 101.828 19.5883C101.224 19.5883 100.628 19.7032 100.039 19.9331C99.4645 20.1486 98.8611 20.4718 98.229 20.9027L97.6687 19.8684C98.4014 19.3656 99.1197 18.9921 99.8236 18.7479C100.528 18.4893 101.246 18.36 101.978 18.36C103.358 18.36 104.449 18.7551 105.254 19.5452C106.058 20.3353 106.461 21.4271 106.461 22.8206V28.0138C106.461 28.2149 106.504 28.3657 106.59 28.4663C106.676 28.5525 106.813 28.6028 106.999 28.6171V29.7808C106.841 29.7951 106.705 29.8095 106.59 29.8239C106.475 29.8382 106.389 29.8382 106.331 29.8239C105.972 29.8095 105.699 29.6946 105.512 29.4791C105.326 29.2636 105.225 29.0337 105.211 28.7895L105.189 27.9707C104.686 28.6171 104.033 29.1199 103.228 29.4791C102.424 29.8239 101.605 29.9962 100.772 29.9962C100.053 29.9962 99.3998 29.8454 98.8108 29.5437C98.2362 29.2277 97.7837 28.8111 97.4533 28.2939C97.1372 27.7624 96.9792 27.1806 96.9792 26.5485ZM104.5 27.4104C104.658 27.2093 104.78 27.0154 104.866 26.8286C104.952 26.6419 104.995 26.4766 104.995 26.333V24.6953C104.507 24.5085 103.997 24.3649 103.465 24.2643C102.948 24.1638 102.424 24.1135 101.892 24.1135C100.844 24.1135 99.996 24.3218 99.3495 24.7384C98.7031 25.155 98.3798 25.7224 98.3798 26.4407C98.3798 26.8573 98.4876 27.2524 98.7031 27.6259C98.9186 27.985 99.2346 28.2867 99.6512 28.5309C100.068 28.7608 100.556 28.8757 101.117 28.8757C101.82 28.8757 102.474 28.7392 103.077 28.4663C103.695 28.1934 104.169 27.8414 104.5 27.4104ZM100.018 15.3432C100.018 14.8117 100.197 14.3807 100.556 14.0503C100.93 13.7055 101.389 13.5331 101.935 13.5331C102.496 13.5331 102.955 13.7055 103.314 14.0503C103.674 14.3807 103.853 14.8117 103.853 15.3432C103.853 15.8748 103.674 16.3057 103.314 16.6361C102.955 16.9665 102.496 17.1318 101.935 17.1318C101.389 17.1318 100.93 16.9665 100.556 16.6361C100.197 16.3057 100.018 15.8748 100.018 15.3432ZM101.935 14.2873C101.648 14.2873 101.397 14.3807 101.181 14.5675C100.98 14.7542 100.879 15.0128 100.879 15.3432C100.879 15.6449 100.98 15.8963 101.181 16.0974C101.382 16.2985 101.634 16.3991 101.935 16.3991C102.208 16.3991 102.453 16.3057 102.668 16.119C102.898 15.9178 103.013 15.6593 103.013 15.3432C103.013 15.0128 102.905 14.7542 102.69 14.5675C102.474 14.3807 102.223 14.2873 101.935 14.2873ZM115.014 19.8469C114.037 19.8756 113.175 20.1486 112.428 20.6657C111.695 21.1829 111.178 21.894 110.876 22.799V29.7808H109.411V18.554H110.79V21.2475C111.178 20.4574 111.688 19.8181 112.32 19.3297C112.967 18.8413 113.649 18.5683 114.367 18.5109C114.511 18.4965 114.633 18.4893 114.734 18.4893C114.848 18.4893 114.942 18.4965 115.014 18.5109V19.8469ZM124.273 29.7808L119.726 18.554H121.256L125.092 28.3155L128.949 18.554H130.393L125.846 29.7808H124.273ZM132.207 29.7808V18.554H133.672V29.7808H132.207ZM132.207 16.2052V14.0503H133.672V16.2052H132.207ZM151.399 29.7808H149.934V23.5101C149.934 22.2459 149.711 21.2978 149.266 20.6657C148.821 20.0193 148.182 19.696 147.348 19.696C146.802 19.696 146.257 19.8397 145.711 20.127C145.179 20.4 144.705 20.7806 144.288 21.2691C143.886 21.7431 143.599 22.289 143.426 22.9068V29.7808H141.961V14.0503H143.426V21.0967C143.872 20.2635 144.49 19.6027 145.28 19.1142C146.084 18.6114 146.939 18.36 147.844 18.36C148.49 18.36 149.036 18.4749 149.482 18.7048C149.941 18.9346 150.308 19.2722 150.581 19.7176C150.868 20.1486 151.076 20.6585 151.205 21.2475C151.335 21.8222 151.399 22.4758 151.399 23.2084V29.7808ZM153.404 26.5485C153.404 25.8446 153.605 25.2412 154.007 24.7384C154.409 24.2212 154.962 23.8262 155.666 23.5532C156.385 23.2659 157.211 23.1223 158.144 23.1223C158.69 23.1223 159.258 23.1654 159.847 23.2515C160.436 23.3377 160.96 23.467 161.42 23.6394V22.6913C161.42 21.7431 161.14 20.9889 160.579 20.4287C160.019 19.8684 159.243 19.5883 158.252 19.5883C157.649 19.5883 157.053 19.7032 156.464 19.9331C155.889 20.1486 155.286 20.4718 154.653 20.9027L154.093 19.8684C154.826 19.3656 155.544 18.9921 156.248 18.7479C156.952 18.4893 157.67 18.36 158.403 18.36C159.782 18.36 160.874 18.7551 161.678 19.5452C162.483 20.3353 162.885 21.4271 162.885 22.8206V28.0138C162.885 28.2149 162.928 28.3657 163.014 28.4663C163.1 28.5525 163.237 28.6028 163.424 28.6171V29.7808C163.266 29.7951 163.129 29.8095 163.014 29.8239C162.899 29.8382 162.813 29.8382 162.756 29.8239C162.397 29.8095 162.124 29.6946 161.937 29.4791C161.75 29.2636 161.65 29.0337 161.635 28.7895L161.614 27.9707C161.111 28.6171 160.457 29.1199 159.653 29.4791C158.848 29.8239 158.029 29.9962 157.196 29.9962C156.478 29.9962 155.824 29.8454 155.235 29.5437C154.661 29.2277 154.208 28.8111 153.878 28.2939C153.562 27.7624 153.404 27.1806 153.404 26.5485ZM160.924 27.4104C161.082 27.2093 161.204 27.0154 161.29 26.8286C161.377 26.6419 161.42 26.4766 161.42 26.333V24.6953C160.931 24.5085 160.421 24.3649 159.89 24.2643C159.373 24.1638 158.848 24.1135 158.317 24.1135C157.268 24.1135 156.42 24.3218 155.774 24.7384C155.128 25.155 154.804 25.7224 154.804 26.4407C154.804 26.8573 154.912 27.2524 155.128 27.6259C155.343 27.985 155.659 28.2867 156.076 28.5309C156.492 28.7608 156.981 28.8757 157.541 28.8757C158.245 28.8757 158.899 28.7392 159.502 28.4663C160.12 28.1934 160.594 27.8414 160.924 27.4104ZM175.274 29.7808H173.808V23.5101C173.808 22.1885 173.614 21.226 173.227 20.6226C172.839 20.0049 172.228 19.696 171.395 19.696C170.82 19.696 170.253 19.8397 169.693 20.127C169.132 20.4 168.637 20.7806 168.206 21.2691C167.789 21.7431 167.488 22.289 167.301 22.9068V29.7808H165.835V18.554H167.171V21.0967C167.473 20.5508 167.868 20.0767 168.357 19.6745C168.845 19.2579 169.398 18.9346 170.016 18.7048C170.634 18.4749 171.273 18.36 171.934 18.36C172.551 18.36 173.076 18.4749 173.507 18.7048C173.938 18.9346 174.282 19.2651 174.541 19.696C174.8 20.1126 174.986 20.6226 175.101 21.226C175.216 21.815 175.274 22.4758 175.274 23.2084V29.7808ZM177.429 24.1997C177.429 23.1366 177.644 22.1669 178.075 21.2906C178.521 20.4 179.131 19.6888 179.907 19.1573C180.683 18.6258 181.566 18.36 182.557 18.36C183.491 18.36 184.324 18.6114 185.057 19.1142C185.804 19.6027 186.386 20.1988 186.802 20.9027V14.0503H188.268V28.0138C188.268 28.2149 188.311 28.3657 188.397 28.4663C188.483 28.5525 188.612 28.6028 188.785 28.6171V29.7808C188.498 29.8239 188.275 29.8382 188.117 29.8239C187.815 29.8095 187.549 29.6874 187.32 29.4575C187.09 29.2277 186.975 28.9763 186.975 28.7033V27.6044C186.529 28.337 185.926 28.9188 185.165 29.3498C184.403 29.7808 183.613 29.9962 182.794 29.9962C182.019 29.9962 181.3 29.8382 180.639 29.5222C179.993 29.2061 179.426 28.7752 178.937 28.2293C178.463 27.6834 178.09 27.0656 177.817 26.3761C177.558 25.6722 177.429 24.9467 177.429 24.1997ZM186.802 25.9236V22.4542C186.616 21.9371 186.314 21.4702 185.897 21.0536C185.481 20.6226 185.007 20.285 184.475 20.0408C183.958 19.7822 183.441 19.6529 182.924 19.6529C182.32 19.6529 181.774 19.7822 181.286 20.0408C180.798 20.285 180.374 20.6226 180.015 21.0536C179.67 21.4846 179.404 21.973 179.217 22.5189C179.031 23.0648 178.937 23.6251 178.937 24.1997C178.937 24.803 179.038 25.3777 179.239 25.9236C179.454 26.4695 179.756 26.9579 180.144 27.3889C180.532 27.8055 180.977 28.1287 181.48 28.3586C181.983 28.5884 182.529 28.7033 183.118 28.7033C183.491 28.7033 183.879 28.6315 184.281 28.4878C184.683 28.3442 185.064 28.1503 185.423 27.906C185.797 27.6475 186.106 27.3458 186.35 27.001C186.594 26.6562 186.745 26.2971 186.802 25.9236ZM191.437 14.0503H192.902V27.238C192.902 27.7983 193.003 28.1646 193.204 28.337C193.405 28.5094 193.649 28.5956 193.936 28.5956C194.195 28.5956 194.454 28.5669 194.712 28.5094C194.971 28.4519 195.193 28.3945 195.38 28.337L195.639 29.5222C195.366 29.6371 195.028 29.7305 194.626 29.8023C194.238 29.8741 193.901 29.9101 193.613 29.9101C192.952 29.9101 192.421 29.7161 192.019 29.3282C191.631 28.9404 191.437 28.4088 191.437 27.7336V14.0503ZM201.876 29.9962C201.072 29.9962 200.325 29.8454 199.635 29.5437C198.946 29.2277 198.35 28.8039 197.847 28.2724C197.344 27.7265 196.949 27.1016 196.662 26.3976C196.389 25.6937 196.252 24.9395 196.252 24.135C196.252 23.0863 196.489 22.1238 196.963 21.2475C197.452 20.3712 198.12 19.6745 198.967 19.1573C199.815 18.6258 200.777 18.36 201.855 18.36C202.961 18.36 203.923 18.6258 204.742 19.1573C205.575 19.6888 206.229 20.3928 206.703 21.2691C207.177 22.131 207.414 23.0792 207.414 24.1135C207.414 24.2284 207.414 24.3433 207.414 24.4583C207.414 24.5588 207.407 24.6378 207.393 24.6953H197.782C197.854 25.4998 198.077 26.2181 198.45 26.8502C198.838 27.4679 199.334 27.9635 199.937 28.337C200.555 28.6962 201.223 28.8757 201.941 28.8757C202.674 28.8757 203.363 28.689 204.01 28.3155C204.67 27.942 205.13 27.4535 205.389 26.8502L206.66 27.1949C206.43 27.7265 206.078 28.2077 205.604 28.6387C205.13 29.0697 204.57 29.4073 203.923 29.6515C203.291 29.8813 202.609 29.9962 201.876 29.9962ZM197.739 23.6394H206.035C205.978 22.8206 205.755 22.1023 205.367 21.4846C204.994 20.8668 204.498 20.3856 203.88 20.0408C203.277 19.6817 202.609 19.5021 201.876 19.5021C201.144 19.5021 200.476 19.6817 199.872 20.0408C199.269 20.3856 198.773 20.874 198.385 21.5061C198.012 22.1238 197.796 22.8349 197.739 23.6394ZM215.062 19.8469C214.085 19.8756 213.223 20.1486 212.476 20.6657C211.744 21.1829 211.227 21.894 210.925 22.799V29.7808H209.46V18.554H210.839V21.2475C211.227 20.4574 211.736 19.8181 212.369 19.3297C213.015 18.8413 213.697 18.5683 214.416 18.5109C214.559 18.4965 214.681 18.4893 214.782 18.4893C214.897 18.4893 214.99 18.4965 215.062 18.5109V19.8469ZM225.255 29.9962C224.336 29.9962 223.481 29.8454 222.691 29.5437C221.901 29.242 221.219 28.7823 220.644 28.1646L221.247 27.1303C221.879 27.7193 222.511 28.1503 223.144 28.4232C223.79 28.6818 224.472 28.8111 225.191 28.8111C226.067 28.8111 226.778 28.6387 227.324 28.2939C227.87 27.9348 228.143 27.4248 228.143 26.764C228.143 26.3186 228.006 25.981 227.733 25.7512C227.475 25.507 227.094 25.313 226.591 25.1694C226.103 25.0113 225.514 24.8461 224.824 24.6738C224.049 24.4583 223.395 24.2356 222.863 24.0057C222.346 23.7615 221.951 23.4598 221.678 23.1007C221.42 22.7272 221.29 22.2459 221.29 21.657C221.29 20.9243 221.47 20.3209 221.829 19.8469C222.203 19.3584 222.705 18.9921 223.337 18.7479C223.984 18.4893 224.702 18.36 225.492 18.36C226.354 18.36 227.116 18.4965 227.776 18.7694C228.437 19.0424 228.976 19.4231 229.393 19.9115L228.682 20.9027C228.279 20.443 227.798 20.1055 227.238 19.89C226.692 19.6601 226.081 19.5452 225.406 19.5452C224.946 19.5452 224.508 19.6098 224.092 19.7391C223.675 19.8541 223.33 20.0552 223.057 20.3425C222.799 20.6154 222.669 20.9961 222.669 21.4846C222.669 21.8868 222.77 22.2028 222.971 22.4327C223.172 22.6482 223.474 22.8349 223.876 22.993C224.278 23.1366 224.774 23.2946 225.363 23.467C226.211 23.6969 226.95 23.9339 227.583 24.1781C228.215 24.408 228.703 24.7097 229.048 25.0832C229.393 25.4567 229.565 25.981 229.565 26.6562C229.565 27.7049 229.17 28.5238 228.38 29.1128C227.59 29.7018 226.548 29.9962 225.255 29.9962ZM230.867 26.5485C230.867 25.8446 231.068 25.2412 231.47 24.7384C231.872 24.2212 232.425 23.8262 233.129 23.5532C233.847 23.2659 234.673 23.1223 235.607 23.1223C236.153 23.1223 236.721 23.1654 237.31 23.2515C237.899 23.3377 238.423 23.467 238.883 23.6394V22.6913C238.883 21.7431 238.602 20.9889 238.042 20.4287C237.482 19.8684 236.706 19.5883 235.715 19.5883C235.112 19.5883 234.515 19.7032 233.926 19.9331C233.352 20.1486 232.748 20.4718 232.116 20.9027L231.556 19.8684C232.289 19.3656 233.007 18.9921 233.711 18.7479C234.415 18.4893 235.133 18.36 235.866 18.36C237.245 18.36 238.337 18.7551 239.141 19.5452C239.946 20.3353 240.348 21.4271 240.348 22.8206V28.0138C240.348 28.2149 240.391 28.3657 240.477 28.4663C240.563 28.5525 240.7 28.6028 240.887 28.6171V29.7808C240.729 29.7951 240.592 29.8095 240.477 29.8239C240.362 29.8382 240.276 29.8382 240.219 29.8239C239.859 29.8095 239.587 29.6946 239.4 29.4791C239.213 29.2636 239.112 29.0337 239.098 28.7895L239.077 27.9707C238.574 28.6171 237.92 29.1199 237.116 29.4791C236.311 29.8239 235.492 29.9962 234.659 29.9962C233.941 29.9962 233.287 29.8454 232.698 29.5437C232.124 29.2277 231.671 28.8111 231.341 28.2939C231.025 27.7624 230.867 27.1806 230.867 26.5485ZM238.387 27.4104C238.545 27.2093 238.667 27.0154 238.753 26.8286C238.839 26.6419 238.883 26.4766 238.883 26.333V24.6953C238.394 24.5085 237.884 24.3649 237.353 24.2643C236.835 24.1638 236.311 24.1135 235.78 24.1135C234.731 24.1135 233.883 24.3218 233.237 24.7384C232.59 25.155 232.267 25.7224 232.267 26.4407C232.267 26.8573 232.375 27.2524 232.59 27.6259C232.806 27.985 233.122 28.2867 233.539 28.5309C233.955 28.7608 234.444 28.8757 235.004 28.8757C235.708 28.8757 236.361 28.7392 236.965 28.4663C237.582 28.1934 238.057 27.8414 238.387 27.4104ZM259.999 29.7808H258.533V23.5101C258.533 22.2028 258.325 21.2403 257.908 20.6226C257.492 20.0049 256.874 19.696 256.055 19.696C255.208 19.696 254.446 19.9977 253.771 20.6011C253.11 21.2044 252.643 21.9802 252.37 22.9283V29.7808H250.905V23.5101C250.905 22.1885 250.704 21.226 250.302 20.6226C249.899 20.0049 249.282 19.696 248.448 19.696C247.615 19.696 246.861 19.9905 246.186 20.5795C245.511 21.1685 245.037 21.9443 244.764 22.9068V29.7808H243.298V18.554H244.634V21.0967C245.108 20.2204 245.712 19.5452 246.444 19.0711C247.191 18.5971 248.018 18.36 248.923 18.36C249.856 18.36 250.611 18.6258 251.185 19.1573C251.76 19.6888 252.112 20.3856 252.241 21.2475C252.758 20.2994 253.376 19.5811 254.094 19.0927C254.827 18.6042 255.653 18.36 256.572 18.36C257.204 18.36 257.736 18.4749 258.167 18.7048C258.612 18.9346 258.964 19.2651 259.223 19.696C259.496 20.1126 259.69 20.6226 259.805 21.226C259.934 21.815 259.999 22.4758 259.999 23.2084V29.7808ZM279.585 29.7808H278.12V23.5101C278.12 22.2028 277.911 21.2403 277.495 20.6226C277.078 20.0049 276.46 19.696 275.642 19.696C274.794 19.696 274.033 19.9977 273.357 20.6011C272.697 21.2044 272.23 21.9802 271.957 22.9283V29.7808H270.491V23.5101C270.491 22.1885 270.29 21.226 269.888 20.6226C269.486 20.0049 268.868 19.696 268.035 19.696C267.202 19.696 266.448 19.9905 265.772 20.5795C265.097 21.1685 264.623 21.9443 264.35 22.9068V29.7808H262.885V18.554H264.221V21.0967C264.695 20.2204 265.298 19.5452 266.031 19.0711C266.778 18.5971 267.604 18.36 268.509 18.36C269.443 18.36 270.197 18.6258 270.772 19.1573C271.346 19.6888 271.698 20.3856 271.827 21.2475C272.345 20.2994 272.962 19.5811 273.681 19.0927C274.413 18.6042 275.239 18.36 276.159 18.36C276.791 18.36 277.322 18.4749 277.753 18.7048C278.199 18.9346 278.551 19.2651 278.809 19.696C279.082 20.1126 279.276 20.6226 279.391 21.226C279.52 21.815 279.585 22.4758 279.585 23.2084V29.7808ZM287.32 29.9962C286.515 29.9962 285.768 29.8454 285.079 29.5437C284.389 29.2277 283.793 28.8039 283.29 28.2724C282.787 27.7265 282.392 27.1016 282.105 26.3976C281.832 25.6937 281.696 24.9395 281.696 24.135C281.696 23.0863 281.933 22.1238 282.407 21.2475C282.895 20.3712 283.563 19.6745 284.411 19.1573C285.258 18.6258 286.221 18.36 287.298 18.36C288.404 18.36 289.367 18.6258 290.186 19.1573C291.019 19.6888 291.673 20.3928 292.147 21.2691C292.621 22.131 292.858 23.0792 292.858 24.1135C292.858 24.2284 292.858 24.3433 292.858 24.4583C292.858 24.5588 292.851 24.6378 292.836 24.6953H283.226C283.297 25.4998 283.52 26.2181 283.894 26.8502C284.281 27.4679 284.777 27.9635 285.38 28.337C285.998 28.6962 286.666 28.8757 287.384 28.8757C288.117 28.8757 288.807 28.689 289.453 28.3155C290.114 27.942 290.574 27.4535 290.832 26.8502L292.104 27.1949C291.874 27.7265 291.522 28.2077 291.048 28.6387C290.574 29.0697 290.013 29.4073 289.367 29.6515C288.735 29.8813 288.052 29.9962 287.32 29.9962ZM283.182 23.6394H291.479C291.421 22.8206 291.198 22.1023 290.811 21.4846C290.437 20.8668 289.941 20.3856 289.324 20.0408C288.72 19.6817 288.052 19.5021 287.32 19.5021C286.587 19.5021 285.919 19.6817 285.316 20.0408C284.712 20.3856 284.217 20.874 283.829 21.5061C283.455 22.1238 283.24 22.8349 283.182 23.6394ZM304.341 29.7808H302.876V23.5101C302.876 22.1885 302.682 21.226 302.294 20.6226C301.906 20.0049 301.296 19.696 300.463 19.696C299.888 19.696 299.32 19.8397 298.76 20.127C298.2 20.4 297.704 20.7806 297.273 21.2691C296.857 21.7431 296.555 22.289 296.368 22.9068V29.7808H294.903V18.554H296.239V21.0967C296.541 20.5508 296.936 20.0767 297.424 19.6745C297.913 19.2579 298.466 18.9346 299.083 18.7048C299.701 18.4749 300.34 18.36 301.001 18.36C301.619 18.36 302.143 18.4749 302.574 18.7048C303.005 18.9346 303.35 19.2651 303.609 19.696C303.867 20.1126 304.054 20.6226 304.169 21.226C304.284 21.815 304.341 22.4758 304.341 23.2084V29.7808Z" fill="#1E1E1E"/>
</svg>
