<?xml version="1.0" encoding="UTF-8"?>
<svg id="Layer_2" data-name="Layer 2" xmlns="http://www.w3.org/2000/svg" viewBox="0 0 56.46 56.43">
  <g id="Layer_1-2" data-name="Layer 1">
    <path d="M54.14,26l-2.44.18-.03,26.34c0,1.72-2.25,3.84-4.03,3.85l-37.3.06c-2.67,0-5.6-1.34-5.6-4.46l-.03-25.78-2.36-.19c-.76-.06-2.04-1.01-2.29-1.8-.22-.73.35-2.15,1.1-2.76L25.75,1.36c.63-.52,1.7-1.28,2.32-1.35.71-.08,1.97.77,2.62,1.31l9,7.38.16-3.8c.08-1.92,1.44-2.61,3.36-2.65,1.28-.03,3.78.41,3.8,2.06l.11,10.47,8.27,6.68c.65.53,1.25,2.04,1.03,2.74-.24.75-1.54,1.75-2.28,1.8ZM35.2,51.53v-18.52s-13.97,0-13.97,0v18.56s13.97-.04,13.97-.04Z"/>
  </g>
</svg>