<svg width="48" height="32" viewBox="0 0 48 32" fill="none" xmlns="http://www.w3.org/2000/svg">
<path d="M17.0246 19.1225L3.50084 30.8928C2.66483 31.6328 1.31245 31.5172 0.574794 30.7772C-0.162864 30.0372 -0.23663 28.7885 0.623972 28.0254L15.8935 14.752C16.9754 13.8964 18.3278 14.1739 19.1146 15.2145L23.4176 20.7643L40.9247 4.64659L35.1218 3.88348C33.9907 3.74474 33.3268 2.61164 33.499 1.66354C33.6957 0.622936 34.7038 -0.140171 35.8595 0.0217006L46.1621 1.33979C47.3915 1.50166 48.1292 2.51914 47.9571 3.65224L46.5309 13.4339C46.3588 14.5207 45.2031 15.1451 44.1458 14.9832C43.0885 14.8213 42.2525 13.8732 42.4 12.8095L43.0393 8.20775L24.4503 25.3661C23.4914 26.0136 22.3603 25.898 21.5735 25.0886L16.9754 19.1456L17.0246 19.1225Z" fill="white"/>
</svg>
