<?xml version="1.0" encoding="UTF-8"?>
<svg id="Layer_2" data-name="Layer 2" xmlns="http://www.w3.org/2000/svg" viewBox="0 0 56.46 60.55">
  <defs>
    <style>
      .cls-1 {
        fill: #f0f3eb;
      }

      .cls-2, .cls-3 {
        fill: #8fae74;
      }

      .cls-3 {
        stroke: #8fae73;
        stroke-miterlimit: 10;
        stroke-width: .5px;
      }
    </style>
  </defs>
  <g id="Layer_1-2" data-name="Layer 1">
    <path class="cls-1" d="M42.06,53.58c-2.03,1.34-4.26,2.39-6.61,3.07-8.07,2.31-17.24.15-23.53-5.42-6.29-5.56-9.56-14.31-8.62-22.65,1.08-9.66,7.77-19.08,17.21-22.01.6-.19,1.22-.34,1.84-.48.58-.13,1.18-.33,1.77-.36.47-.03.81.4,1.12.71.91.92,2.13,1.6,3.42,1.58.83,0,1.62-.31,2.33-.73.37-.22.72-.48,1.05-.75.29-.23.54-.57.95-.54,14.86.89,23.24,18.66,20.15,31.82-1.5,6.41-5.6,12.16-11.07,15.77Z"/>
    <path class="cls-2" d="M49.41,11.99c-4.05-4.83-9.4-8.04-15.83-9.26-.12.18-.42,1.01-.17,1.07l1.31.34c15.67,4.06,23.94,20.78,19.16,35.73-4.01,12.55-16.06,21.19-29.6,19.05-9.6-1.52-16.95-8.03-20.92-16.73-2.3-5.92-2.84-12.15-1.18-18.29C4.81,14.64,12.11,6.76,22.19,4.15l1.31-.34c.25-.07-.05-.89-.17-1.07-6.43,1.22-11.78,4.43-15.83,9.26-3.33,3.58-5.52,7.72-6.58,12.1-1.67,6.4-1.02,13.09,1.57,19.04,4.36,10.02,13.62,16.88,24.66,17.39,12.84.59,23.61-7.63,27.67-19.51,3.41-10,1.5-20.77-5.41-29.02Z"/>
    <path class="cls-3" d="M27.7.34c1.29-.4,2.9.59,3.32,1.67.52,1.35-.27,3.1-1.34,3.53-1.62.66-3.37-.13-3.77-1.33-.51-1.53.08-3.35,1.79-3.87Z"/>
    <path class="cls-2" d="M27.74,35.93c-7.24.32-10.53-4.28-10.88-11.21,5.68-.67,11.06,3.04,11.1,8.71,0,1.36.16,2.17,1.12,3.17.49-1.91.27-2.96.11-4.71-.53-5.89,4.65-10.72,10.7-11.14.83,7.23-2.08,14.13-9.54,14.37-.81,2.91-.89,5.75-.88,8.77v1.04c0,.22-1.04.23-1.05.02l-.02-1.04-.67-7.98Z"/>
  </g>
</svg>