<svg width="211" height="209" viewBox="0 0 211 209" fill="none" xmlns="http://www.w3.org/2000/svg">
<circle cx="106.114" cy="106.116" r="86.3681" stroke="white" stroke-width="12.6392"/>
<path d="M54.6655 121.717L70.6668 112.048V117.432L62.0595 122.816L70.6668 127.973V133.661L54.6655 124.181V121.717ZM90.7119 128.049V132.637H75.469V128.049H80.7017V110.531C80.4994 110.834 80.1582 111.176 79.6779 111.555C79.2229 111.909 78.692 112.263 78.0853 112.616C77.5039 112.945 76.8972 113.223 76.2653 113.451C75.6586 113.678 75.1025 113.792 74.5969 113.792V109.09C75.2794 109.09 75.9746 108.913 76.6824 108.559C77.3902 108.205 78.0474 107.801 78.6541 107.346C79.2608 106.891 79.7411 106.474 80.095 106.095C80.4741 105.69 80.6764 105.475 80.7017 105.45H85.8964V128.049H90.7119ZM112.789 124.674C112.789 126.343 112.334 127.796 111.424 129.035C110.539 130.273 109.351 131.247 107.86 131.954C106.368 132.637 104.738 132.978 102.968 132.978C101.173 132.978 99.5304 132.612 98.0389 131.879C96.5728 131.146 95.3973 130.147 94.5126 128.883C93.6531 127.594 93.2234 126.128 93.2234 124.485C93.2234 123.474 93.4383 122.563 93.868 121.755C94.2977 120.92 94.8286 120.213 95.4605 119.631C96.1178 119.025 96.775 118.557 97.4323 118.228C96.8256 117.925 96.2568 117.52 95.726 117.015C95.2204 116.509 94.8159 115.928 94.5126 115.271C94.2092 114.613 94.0576 113.918 94.0576 113.185C94.0576 111.997 94.323 110.935 94.8538 110C95.3847 109.065 96.0925 108.281 96.9772 107.649C97.862 106.992 98.8226 106.512 99.859 106.208C100.921 105.88 101.97 105.715 103.006 105.715C104.017 105.715 105.054 105.88 106.115 106.208C107.177 106.512 108.15 106.979 109.035 107.611C109.92 108.243 110.628 109.027 111.158 109.962C111.715 110.872 111.993 111.934 111.993 113.147C111.993 113.855 111.828 114.55 111.5 115.233C111.196 115.89 110.779 116.484 110.248 117.015C109.743 117.52 109.161 117.925 108.504 118.228C109.237 118.607 109.932 119.1 110.59 119.707C111.247 120.314 111.778 121.034 112.182 121.868C112.587 122.703 112.789 123.638 112.789 124.674ZM107.632 124.371C107.632 123.714 107.506 123.145 107.253 122.665C107 122.159 106.646 121.742 106.191 121.413C105.736 121.059 105.231 120.794 104.675 120.617C104.118 120.44 103.55 120.352 102.968 120.352C102.159 120.352 101.401 120.516 100.693 120.845C100.011 121.173 99.4545 121.641 99.0248 122.248C98.5951 122.854 98.3802 123.562 98.3802 124.371C98.3802 124.978 98.5066 125.534 98.7594 126.039C99.0374 126.52 99.3913 126.937 99.8211 127.291C100.276 127.644 100.769 127.923 101.3 128.125C101.856 128.302 102.425 128.39 103.006 128.39C103.815 128.39 104.573 128.213 105.281 127.859C105.989 127.505 106.558 127.025 106.988 126.418C107.417 125.812 107.632 125.129 107.632 124.371ZM99.2144 113.337C99.2144 114.019 99.404 114.601 99.7832 115.081C100.162 115.561 100.643 115.928 101.224 116.181C101.831 116.408 102.425 116.522 103.006 116.522C103.613 116.522 104.194 116.396 104.75 116.143C105.332 115.89 105.812 115.536 106.191 115.081C106.596 114.601 106.798 114.007 106.798 113.299C106.798 112.667 106.621 112.123 106.267 111.668C105.913 111.213 105.446 110.86 104.864 110.607C104.308 110.354 103.676 110.228 102.968 110.228C102.311 110.228 101.692 110.354 101.11 110.607C100.529 110.86 100.061 111.226 99.7073 111.706C99.3787 112.161 99.2144 112.705 99.2144 113.337ZM130.326 132.637L124.525 124.068L121.833 126.722V132.637H116.752V104.957H121.833V121.717L129.834 112.806H135.218L127.824 121.224L135.749 132.637H130.326ZM144.706 132.751C143.391 132.751 142.178 132.498 141.066 131.992C139.979 131.462 139.031 130.728 138.222 129.793C137.438 128.858 136.832 127.783 136.402 126.57C135.972 125.357 135.757 124.068 135.757 122.703C135.757 121.262 135.985 119.922 136.44 118.683C136.895 117.445 137.527 116.358 138.336 115.422C139.17 114.462 140.143 113.729 141.255 113.223C142.393 112.692 143.644 112.427 145.009 112.427C146.551 112.427 147.904 112.781 149.066 113.489C150.229 114.171 151.19 115.094 151.948 116.257V112.768H156.385V131.689C156.385 133.661 155.904 135.342 154.944 136.732C154.008 138.148 152.707 139.222 151.038 139.955C149.37 140.713 147.474 141.093 145.35 141.093C143.202 141.093 141.382 140.726 139.89 139.993C138.399 139.285 137.122 138.274 136.061 136.96L138.829 134.267C139.587 135.203 140.535 135.936 141.672 136.467C142.835 136.998 144.061 137.263 145.35 137.263C146.437 137.263 147.423 137.061 148.308 136.656C149.218 136.277 149.939 135.67 150.469 134.836C151.025 134.027 151.304 132.978 151.304 131.689V129.186C150.646 130.324 149.711 131.209 148.498 131.841C147.31 132.447 146.046 132.751 144.706 132.751ZM146.412 128.694C146.968 128.694 147.499 128.605 148.005 128.428C148.51 128.251 148.978 128.011 149.408 127.708C149.837 127.404 150.217 127.05 150.545 126.646C150.874 126.216 151.127 125.786 151.304 125.357V120.617C151 119.833 150.57 119.151 150.014 118.569C149.483 117.988 148.877 117.546 148.194 117.242C147.537 116.914 146.842 116.749 146.109 116.749C145.325 116.749 144.617 116.914 143.985 117.242C143.353 117.571 142.81 118.039 142.355 118.645C141.9 119.227 141.546 119.884 141.293 120.617C141.066 121.325 140.952 122.071 140.952 122.854C140.952 123.663 141.091 124.421 141.369 125.129C141.647 125.837 142.026 126.456 142.507 126.987C143.012 127.518 143.594 127.935 144.251 128.239C144.933 128.542 145.654 128.694 146.412 128.694Z" fill="white"/>
<path d="M188.581 88.7375C182.538 60.1931 161.818 35.5812 132.067 25.9505C87.7929 11.6185 40.2829 35.8915 25.9508 80.166C11.6187 124.44 35.8918 171.95 80.1662 186.282" stroke="#12761C" stroke-width="9.47943" stroke-linecap="round"/>
<path d="M96.6981 93.4651V83.6486L92.8642 90.9583H91.2421L87.4082 83.6486V93.4651H84.5012V78.5087H87.6189L92.0426 87.0191L96.5085 78.5087H99.6051V93.4651H96.6981ZM101.572 90.2C101.572 89.4837 101.769 88.8588 102.162 88.3251C102.569 87.7774 103.131 87.3561 103.847 87.0612C104.563 86.7663 105.385 86.6188 106.312 86.6188C106.775 86.6188 107.246 86.6539 107.723 86.7242C108.201 86.7944 108.615 86.9067 108.966 87.0612V86.4714C108.966 85.7692 108.755 85.2285 108.334 84.8493C107.927 84.4702 107.316 84.2806 106.501 84.2806C105.898 84.2806 105.322 84.3859 104.774 84.5966C104.226 84.8072 103.651 85.1162 103.047 85.5234L102.141 83.6697C102.871 83.1922 103.615 82.8341 104.374 82.5953C105.146 82.3566 105.954 82.2372 106.796 82.2372C108.369 82.2372 109.591 82.6305 110.462 83.4169C111.346 84.2033 111.789 85.3268 111.789 86.7874V90.3053C111.789 90.6002 111.838 90.8108 111.936 90.9372C112.049 91.0636 112.224 91.1409 112.463 91.169V93.4651C112.21 93.5072 111.978 93.5423 111.768 93.5704C111.571 93.5985 111.403 93.6125 111.262 93.6125C110.7 93.6125 110.272 93.4862 109.977 93.2334C109.696 92.9806 109.521 92.6716 109.451 92.3065L109.387 91.7377C108.91 92.3556 108.313 92.8331 107.597 93.1702C106.881 93.5072 106.15 93.6757 105.406 93.6757C104.676 93.6757 104.016 93.5283 103.426 93.2334C102.85 92.9244 102.394 92.5101 102.057 91.9905C101.734 91.4569 101.572 90.86 101.572 90.2ZM108.439 90.7687C108.594 90.6002 108.72 90.4317 108.819 90.2631C108.917 90.0946 108.966 89.9401 108.966 89.7997V88.6832C108.629 88.5428 108.264 88.4375 107.871 88.3673C107.477 88.283 107.105 88.2409 106.754 88.2409C106.024 88.2409 105.42 88.4024 104.943 88.7254C104.479 89.0343 104.247 89.4486 104.247 89.9682C104.247 90.2491 104.325 90.5159 104.479 90.7687C104.634 91.0215 104.858 91.2251 105.153 91.3796C105.448 91.5341 105.799 91.6113 106.206 91.6113C106.628 91.6113 107.042 91.5341 107.449 91.3796C107.857 91.2111 108.187 91.0075 108.439 90.7687ZM104.563 79.6673C104.563 79.0774 104.767 78.614 105.174 78.2769C105.596 77.9258 106.129 77.7503 106.775 77.7503C107.435 77.7503 107.969 77.9258 108.376 78.2769C108.783 78.614 108.987 79.0774 108.987 79.6673C108.987 80.243 108.783 80.7065 108.376 81.0576C107.969 81.3946 107.435 81.5631 106.775 81.5631C106.129 81.5631 105.596 81.3946 105.174 81.0576C104.767 80.7065 104.563 80.243 104.563 79.6673ZM106.775 78.7404C106.522 78.7404 106.305 78.8317 106.122 79.0142C105.94 79.1827 105.848 79.3934 105.848 79.6462C105.848 79.899 105.933 80.1166 106.101 80.2992C106.284 80.4818 106.508 80.5731 106.775 80.5731C107.028 80.5731 107.246 80.4888 107.428 80.3203C107.611 80.1377 107.702 79.913 107.702 79.6462C107.702 79.3934 107.611 79.1827 107.428 79.0142C107.246 78.8317 107.028 78.7404 106.775 78.7404ZM114.406 78.0873H117.228V89.9261C117.228 90.4317 117.313 90.7757 117.481 90.9583C117.65 91.1268 117.881 91.2111 118.176 91.2111C118.401 91.2111 118.633 91.183 118.871 91.1268C119.11 91.0707 119.321 91.0004 119.503 90.9162L119.883 93.0648C119.503 93.2474 119.061 93.3878 118.555 93.4862C118.05 93.5845 117.593 93.6336 117.186 93.6336C116.301 93.6336 115.613 93.4019 115.122 92.9385C114.644 92.461 114.406 91.7869 114.406 90.9162V78.0873Z" fill="#D2D2D2"/>
<rect x="148.244" y="41.6377" width="62.1429" height="28.4383" rx="14.2191" fill="white"/>
<path d="M168.474 57.9027V59.8405H161.972V57.9027H164.246V53.0503C164.15 53.1784 164.001 53.3119 163.798 53.4507C163.595 53.5788 163.365 53.7016 163.109 53.819C162.853 53.9364 162.597 54.0325 162.341 54.1073C162.084 54.182 161.855 54.2194 161.652 54.2194V52.2176C161.844 52.2176 162.074 52.1588 162.341 52.0414C162.618 51.9133 162.89 51.7638 163.157 51.593C163.435 51.4222 163.67 51.2567 163.862 51.0965C164.065 50.9257 164.193 50.7923 164.246 50.6962H166.44V57.9027H168.474ZM169.469 59.8405C169.469 59.36 169.507 58.9276 169.581 58.5433C169.656 58.1589 169.784 57.8013 169.966 57.4703C170.158 57.1393 170.414 56.8297 170.734 56.5415C171.065 56.2425 171.482 55.9543 171.984 55.6767C172.421 55.4418 172.806 55.239 173.137 55.0681C173.468 54.8866 173.745 54.7212 173.969 54.5717C174.204 54.4222 174.38 54.2727 174.498 54.1233C174.615 53.9631 174.674 53.7816 174.674 53.5788C174.674 53.3653 174.615 53.1731 174.498 53.0023C174.38 52.8208 174.215 52.6766 174.001 52.5699C173.788 52.4631 173.521 52.4097 173.201 52.4097C172.944 52.4097 172.704 52.4418 172.48 52.5058C172.266 52.5699 172.064 52.6606 171.871 52.7781C171.69 52.8955 171.519 53.029 171.359 53.1784C171.199 53.3172 171.055 53.4667 170.927 53.6268L169.565 52.0574C169.715 51.9079 169.912 51.7478 170.158 51.577C170.414 51.3955 170.713 51.23 171.055 51.0805C171.407 50.9204 171.791 50.7923 172.208 50.6962C172.635 50.5894 173.088 50.536 173.569 50.536C174.295 50.536 174.914 50.6535 175.427 50.8884C175.939 51.1126 176.329 51.4275 176.596 51.8332C176.873 52.2389 177.012 52.714 177.012 53.2585C177.012 53.6322 176.943 53.9631 176.804 54.2514C176.665 54.5397 176.489 54.7959 176.275 55.0201C176.062 55.2336 175.827 55.4258 175.571 55.5966C175.325 55.7674 175.085 55.9169 174.85 56.045C174.519 56.2158 174.22 56.376 173.953 56.5255C173.686 56.6642 173.451 56.8084 173.249 56.9578C173.046 57.0966 172.864 57.2408 172.704 57.3902C172.555 57.5397 172.421 57.7105 172.304 57.9027H177.188V59.8405H169.469ZM184.61 59.8405L182.16 56.2212L181.023 57.3422V59.8405H178.877V48.1499H181.023V55.2283L184.402 51.4649H186.676L183.553 55.0201L186.9 59.8405H184.61ZM190.683 59.8885C190.128 59.8885 189.616 59.7817 189.146 59.5682C188.687 59.344 188.286 59.0344 187.945 58.6394C187.614 58.2443 187.358 57.7906 187.176 57.2781C186.995 56.7657 186.904 56.2212 186.904 55.6447C186.904 55.0361 187 54.4703 187.192 53.9471C187.384 53.424 187.651 52.9649 187.993 52.5699C188.345 52.1642 188.756 51.8546 189.226 51.641C189.706 51.4168 190.235 51.3047 190.811 51.3047C191.463 51.3047 192.034 51.4542 192.525 51.7531C193.016 52.0414 193.422 52.4311 193.742 52.9222V51.4489H195.616V59.4401C195.616 60.2728 195.413 60.9828 195.007 61.57C194.612 62.1679 194.062 62.6216 193.358 62.9313C192.653 63.2515 191.852 63.4117 190.956 63.4117C190.048 63.4117 189.279 63.2569 188.649 62.9473C188.02 62.6483 187.48 62.2213 187.032 61.6661L188.201 60.5291C188.521 60.9241 188.922 61.2337 189.402 61.4579C189.893 61.6821 190.411 61.7942 190.956 61.7942C191.415 61.7942 191.831 61.7088 192.205 61.538C192.589 61.3778 192.893 61.1216 193.117 60.7693C193.352 60.4277 193.47 59.9846 193.47 59.4401V58.3831C193.192 58.8636 192.797 59.2372 192.285 59.5041C191.783 59.7604 191.249 59.8885 190.683 59.8885ZM191.404 58.1749C191.639 58.1749 191.863 58.1376 192.077 58.0628C192.29 57.9881 192.488 57.8867 192.669 57.7586C192.851 57.6305 193.011 57.481 193.15 57.3102C193.288 57.1287 193.395 56.9472 193.47 56.7657V54.7639C193.342 54.4329 193.16 54.1446 192.925 53.8991C192.701 53.6535 192.445 53.4667 192.157 53.3386C191.879 53.1998 191.585 53.1304 191.276 53.1304C190.945 53.1304 190.646 53.1998 190.379 53.3386C190.112 53.4774 189.883 53.6749 189.69 53.9311C189.498 54.1767 189.349 54.4542 189.242 54.7639C189.146 55.0628 189.098 55.3777 189.098 55.7087C189.098 56.0504 189.157 56.3706 189.274 56.6696C189.391 56.9685 189.552 57.2301 189.754 57.4543C189.968 57.6785 190.214 57.8547 190.491 57.9828C190.779 58.1109 191.084 58.1749 191.404 58.1749Z" fill="#12761C"/>
</svg>
