<svg width="362" height="149" viewBox="0 0 362 149" fill="none" xmlns="http://www.w3.org/2000/svg">
<rect width="362" height="149" rx="30" fill="url(#paint0_linear_704_5181)" fill-opacity="0.2"/>
<path d="M44.496 94.64V106H43.056V100.832H36.8V106H35.36V94.64H36.8V99.552H43.056V94.64H44.496ZM50.5508 106.16C49.9214 106.16 49.3454 106.048 48.8228 105.824C48.3108 105.589 47.8628 105.275 47.4788 104.88C47.1054 104.475 46.8121 104.011 46.5988 103.488C46.3961 102.965 46.2948 102.411 46.2948 101.824C46.2948 101.035 46.4761 100.315 46.8388 99.664C47.2014 99.0133 47.7028 98.4907 48.3428 98.096C48.9934 97.7013 49.7348 97.504 50.5668 97.504C51.4094 97.504 52.1401 97.7067 52.7588 98.112C53.3881 98.5067 53.8734 99.0293 54.2148 99.68C54.5668 100.32 54.7428 101.013 54.7428 101.76C54.7428 101.867 54.7374 101.973 54.7268 102.08C54.7268 102.176 54.7214 102.251 54.7108 102.304H47.7828C47.8254 102.848 47.9748 103.333 48.2308 103.76C48.4974 104.176 48.8388 104.507 49.2548 104.752C49.6708 104.987 50.1188 105.104 50.5988 105.104C51.1108 105.104 51.5908 104.976 52.0388 104.72C52.4974 104.464 52.8121 104.128 52.9828 103.712L54.1988 104.048C54.0174 104.453 53.7454 104.816 53.3828 105.136C53.0308 105.456 52.6094 105.707 52.1188 105.888C51.6388 106.069 51.1161 106.16 50.5508 106.16ZM47.7348 101.328H53.4308C53.3881 100.784 53.2334 100.304 52.9668 99.888C52.7001 99.472 52.3588 99.1467 51.9428 98.912C51.5268 98.6773 51.0681 98.56 50.5668 98.56C50.0761 98.56 49.6228 98.6773 49.2068 98.912C48.7908 99.1467 48.4494 99.472 48.1828 99.888C47.9268 100.304 47.7774 100.784 47.7348 101.328ZM60.7239 98.88C60.0199 98.8907 59.3959 99.072 58.8519 99.424C58.3185 99.7653 57.9399 100.24 57.7159 100.848V106H56.3079V97.648H57.6199V99.584C57.9079 99.008 58.2865 98.544 58.7559 98.192C59.2359 97.8293 59.7372 97.6267 60.2599 97.584C60.3665 97.584 60.4572 97.584 60.5319 97.584C60.6065 97.584 60.6705 97.5893 60.7239 97.6V98.88ZM71.6803 106L68.7843 101.936L67.2003 103.424V106H65.7923V94.32H67.2003V101.952L71.5203 97.664H73.0403L69.7123 101.12L73.2003 106H71.6803ZM73.7613 103.584C73.7613 103.051 73.9106 102.592 74.2093 102.208C74.5186 101.813 74.9399 101.509 75.4733 101.296C76.0066 101.083 76.6253 100.976 77.3293 100.976C77.7026 100.976 78.0973 101.008 78.5133 101.072C78.9293 101.125 79.2973 101.211 79.6173 101.328V100.72C79.6173 100.08 79.4253 99.5787 79.0413 99.216C78.6573 98.8427 78.1133 98.656 77.4093 98.656C76.9506 98.656 76.5079 98.7413 76.0813 98.912C75.6653 99.072 75.2226 99.3067 74.7533 99.616L74.2413 98.624C74.7853 98.2507 75.3293 97.9733 75.8733 97.792C76.4173 97.6 76.9826 97.504 77.5693 97.504C78.6359 97.504 79.4786 97.8027 80.0973 98.4C80.7159 98.9867 81.0253 99.808 81.0253 100.864V104.4C81.0253 104.571 81.0573 104.699 81.1213 104.784C81.1959 104.859 81.3133 104.901 81.4733 104.912V106C81.3346 106.021 81.2119 106.037 81.1053 106.048C81.0093 106.059 80.9293 106.064 80.8653 106.064C80.5346 106.064 80.2839 105.973 80.1133 105.792C79.9533 105.611 79.8626 105.419 79.8413 105.216L79.8093 104.688C79.4466 105.157 78.9719 105.52 78.3853 105.776C77.7986 106.032 77.2173 106.16 76.6413 106.16C76.0866 106.16 75.5906 106.048 75.1533 105.824C74.7159 105.589 74.3746 105.28 74.1293 104.896C73.8839 104.501 73.7613 104.064 73.7613 103.584ZM79.2013 104.176C79.3293 104.027 79.4306 103.877 79.5053 103.728C79.5799 103.568 79.6173 103.435 79.6173 103.328V102.288C79.2866 102.16 78.9399 102.064 78.5773 102C78.2146 101.925 77.8573 101.888 77.5052 101.888C76.7906 101.888 76.2093 102.032 75.7613 102.32C75.3239 102.597 75.1053 102.981 75.1053 103.472C75.1053 103.739 75.1746 104 75.3133 104.256C75.4626 104.501 75.6759 104.704 75.9533 104.864C76.2413 105.024 76.5933 105.104 77.0093 105.104C77.4466 105.104 77.8626 105.019 78.2573 104.848C78.6519 104.667 78.9666 104.443 79.2013 104.176ZM90.5246 106H89.1166V101.328C89.1166 100.443 88.978 99.7973 88.7006 99.392C88.434 98.976 88.0233 98.768 87.4686 98.768C87.0846 98.768 86.7006 98.864 86.3166 99.056C85.9433 99.248 85.6073 99.5093 85.3086 99.84C85.0206 100.16 84.8126 100.533 84.6846 100.96V106H83.2766V97.648H84.5566V99.44C84.7806 99.0453 85.0686 98.704 85.4206 98.416C85.7726 98.128 86.1726 97.904 86.6206 97.744C87.0686 97.584 87.538 97.504 88.0286 97.504C88.5086 97.504 88.9086 97.5947 89.2286 97.776C89.5593 97.9467 89.8153 98.192 89.9966 98.512C90.1886 98.8213 90.322 99.1893 90.3966 99.616C90.482 100.043 90.5246 100.507 90.5246 101.008V106ZM96.217 101.84C96.217 101.051 96.377 100.331 96.697 99.68C97.0277 99.0187 97.4757 98.4907 98.041 98.096C98.617 97.7013 99.273 97.504 100.009 97.504C100.681 97.504 101.284 97.68 101.817 98.032C102.35 98.384 102.766 98.8107 103.065 99.312V94.32H104.473V104.4C104.473 104.571 104.505 104.699 104.569 104.784C104.644 104.859 104.761 104.901 104.921 104.912V106C104.654 106.043 104.446 106.064 104.297 106.064C104.02 106.064 103.774 105.968 103.561 105.776C103.358 105.584 103.257 105.371 103.257 105.136V104.432C102.926 104.965 102.484 105.387 101.929 105.696C101.374 106.005 100.798 106.16 100.201 106.16C99.625 106.16 99.0917 106.048 98.601 105.824C98.121 105.589 97.6997 105.269 97.337 104.864C96.985 104.459 96.7077 104 96.505 103.488C96.313 102.965 96.217 102.416 96.217 101.84ZM103.065 103.072V100.672C102.937 100.309 102.729 99.984 102.441 99.696C102.153 99.3973 101.828 99.1627 101.465 98.992C101.113 98.8107 100.761 98.72 100.409 98.72C99.993 98.72 99.6143 98.8107 99.273 98.992C98.9423 99.1627 98.6543 99.3973 98.409 99.696C98.1743 99.984 97.993 100.315 97.865 100.688C97.737 101.061 97.673 101.451 97.673 101.856C97.673 102.272 97.7423 102.667 97.881 103.04C98.0303 103.413 98.233 103.744 98.489 104.032C98.7557 104.32 99.0597 104.544 99.401 104.704C99.753 104.864 100.132 104.944 100.537 104.944C100.793 104.944 101.054 104.896 101.321 104.8C101.598 104.704 101.86 104.571 102.105 104.4C102.35 104.229 102.558 104.032 102.729 103.808C102.9 103.573 103.012 103.328 103.065 103.072ZM106.743 102.656V97.648H108.152V102.384C108.152 103.237 108.301 103.877 108.6 104.304C108.898 104.731 109.341 104.944 109.928 104.944C110.312 104.944 110.68 104.864 111.032 104.704C111.394 104.533 111.72 104.293 112.008 103.984C112.296 103.675 112.52 103.307 112.68 102.88V97.648H114.088V104.4C114.088 104.571 114.12 104.699 114.184 104.784C114.258 104.859 114.376 104.901 114.536 104.912V106C114.376 106.021 114.248 106.032 114.152 106.032C114.066 106.043 113.981 106.048 113.896 106.048C113.629 106.048 113.4 105.968 113.208 105.808C113.016 105.637 112.914 105.429 112.904 105.184L112.872 104.208C112.509 104.827 112.018 105.307 111.4 105.648C110.792 105.989 110.125 106.16 109.4 106.16C108.525 106.16 107.864 105.867 107.416 105.28C106.968 104.683 106.743 103.808 106.743 102.656ZM120.928 106V98.752H119.792V97.648H120.928V97.472C120.928 96.7893 121.029 96.2027 121.232 95.712C121.445 95.2107 121.744 94.8267 122.128 94.56C122.512 94.2933 122.965 94.16 123.488 94.16C123.818 94.16 124.144 94.208 124.464 94.304C124.784 94.3893 125.072 94.512 125.328 94.672L124.976 95.712C124.826 95.6053 124.64 95.52 124.416 95.456C124.202 95.392 123.989 95.36 123.776 95.36C123.317 95.36 122.96 95.5413 122.704 95.904C122.458 96.256 122.336 96.7627 122.336 97.424V97.648H124.56V98.752H122.336V106H120.928ZM129.409 106.16C128.78 106.16 128.209 106.048 127.697 105.824C127.185 105.589 126.742 105.275 126.369 104.88C125.996 104.475 125.708 104.011 125.505 103.488C125.302 102.965 125.201 102.416 125.201 101.84C125.201 101.253 125.302 100.699 125.505 100.176C125.708 99.6533 125.996 99.1947 126.369 98.8C126.742 98.3947 127.185 98.08 127.697 97.856C128.22 97.6213 128.79 97.504 129.409 97.504C130.038 97.504 130.609 97.6213 131.121 97.856C131.633 98.08 132.076 98.3947 132.449 98.8C132.833 99.1947 133.126 99.6533 133.329 100.176C133.532 100.699 133.633 101.253 133.633 101.84C133.633 102.416 133.532 102.965 133.329 103.488C133.126 104.011 132.838 104.475 132.465 104.88C132.092 105.275 131.644 105.589 131.121 105.824C130.609 106.048 130.038 106.16 129.409 106.16ZM129.409 104.944C129.921 104.944 130.385 104.805 130.801 104.528C131.228 104.251 131.564 103.877 131.809 103.408C132.065 102.928 132.193 102.4 132.193 101.824C132.193 101.248 132.065 100.725 131.809 100.256C131.564 99.7867 131.228 99.4133 130.801 99.136C130.385 98.8587 129.921 98.72 129.409 98.72C128.897 98.72 128.433 98.864 128.017 99.152C127.601 99.4293 127.265 99.8027 127.009 100.272C126.764 100.741 126.641 101.269 126.641 101.856C126.641 102.432 126.764 102.955 127.009 103.424C127.265 103.893 127.601 104.267 128.017 104.544C128.433 104.811 128.897 104.944 129.409 104.944ZM125.665 106.032L126.897 104.496L127.713 104.976L126.865 106.032H125.665ZM127.857 104.864L127.073 104.432L130.993 98.72L131.857 99.088L127.857 104.864ZM132.033 99.008L131.137 98.624L131.921 97.616H133.137L132.033 99.008ZM135.371 94.32H136.779V103.84C136.779 104.299 136.843 104.581 136.971 104.688C137.099 104.795 137.254 104.848 137.435 104.848C137.659 104.848 137.872 104.827 138.075 104.784C138.278 104.731 138.448 104.677 138.587 104.624L138.811 105.776C138.576 105.872 138.299 105.952 137.979 106.016C137.659 106.08 137.376 106.112 137.131 106.112C136.587 106.112 136.155 105.957 135.835 105.648C135.526 105.339 135.371 104.907 135.371 104.352V94.32ZM143.245 106.096C142.68 106.096 142.157 105.984 141.677 105.76C141.208 105.525 140.803 105.211 140.461 104.816C140.12 104.411 139.853 103.952 139.661 103.44C139.48 102.928 139.389 102.395 139.389 101.84C139.389 101.253 139.48 100.699 139.661 100.176C139.853 99.6533 140.12 99.1947 140.461 98.8C140.813 98.3947 141.224 98.08 141.693 97.856C142.163 97.6213 142.685 97.504 143.261 97.504C143.955 97.504 144.557 97.6747 145.069 98.016C145.592 98.3573 146.029 98.7893 146.381 99.312V97.648H147.629V105.904C147.629 106.693 147.437 107.36 147.053 107.904C146.68 108.448 146.168 108.859 145.517 109.136C144.877 109.424 144.163 109.568 143.373 109.568C142.435 109.568 141.667 109.403 141.069 109.072C140.472 108.741 139.976 108.293 139.581 107.728L140.397 107.008C140.728 107.499 141.155 107.867 141.677 108.112C142.211 108.357 142.776 108.48 143.373 108.48C143.885 108.48 144.355 108.384 144.781 108.192C145.219 108.011 145.565 107.728 145.821 107.344C146.088 106.96 146.221 106.48 146.221 105.904V104.432C145.912 104.944 145.485 105.349 144.941 105.648C144.408 105.947 143.843 106.096 143.245 106.096ZM143.677 104.944C143.976 104.944 144.264 104.891 144.541 104.784C144.819 104.677 145.075 104.539 145.309 104.368C145.544 104.187 145.741 103.984 145.901 103.76C146.061 103.536 146.168 103.307 146.221 103.072V100.672C146.072 100.288 145.859 99.952 145.581 99.664C145.304 99.3653 144.989 99.136 144.637 98.976C144.285 98.8053 143.923 98.72 143.549 98.72C143.123 98.72 142.739 98.8107 142.397 98.992C142.067 99.1733 141.784 99.4187 141.549 99.728C141.315 100.027 141.133 100.363 141.005 100.736C140.877 101.109 140.813 101.488 140.813 101.872C140.813 102.288 140.888 102.683 141.037 103.056C141.187 103.419 141.389 103.744 141.645 104.032C141.901 104.32 142.205 104.544 142.557 104.704C142.909 104.864 143.283 104.944 143.677 104.944ZM153.598 106.16C152.968 106.16 152.392 106.048 151.87 105.824C151.358 105.589 150.91 105.275 150.526 104.88C150.152 104.475 149.859 104.011 149.646 103.488C149.443 102.965 149.342 102.411 149.342 101.824C149.342 101.035 149.523 100.315 149.886 99.664C150.248 99.0133 150.75 98.4907 151.39 98.096C152.04 97.7013 152.782 97.504 153.614 97.504C154.456 97.504 155.187 97.7067 155.806 98.112C156.435 98.5067 156.92 99.0293 157.262 99.68C157.614 100.32 157.79 101.013 157.79 101.76C157.79 101.867 157.784 101.973 157.774 102.08C157.774 102.176 157.768 102.251 157.758 102.304H150.83C150.872 102.848 151.022 103.333 151.278 103.76C151.544 104.176 151.886 104.507 152.302 104.752C152.718 104.987 153.166 105.104 153.646 105.104C154.158 105.104 154.638 104.976 155.086 104.72C155.544 104.464 155.859 104.128 156.03 103.712L157.246 104.048C157.064 104.453 156.792 104.816 156.43 105.136C156.078 105.456 155.656 105.707 155.166 105.888C154.686 106.069 154.163 106.16 153.598 106.16ZM150.782 101.328H156.478C156.435 100.784 156.28 100.304 156.014 99.888C155.747 99.472 155.406 99.1467 154.99 98.912C154.574 98.6773 154.115 98.56 153.614 98.56C153.123 98.56 152.67 98.6773 152.254 98.912C151.838 99.1467 151.496 99.472 151.23 99.888C150.974 100.304 150.824 100.784 150.782 101.328ZM162.858 101.84C162.858 101.051 163.018 100.331 163.338 99.68C163.668 99.0187 164.116 98.4907 164.682 98.096C165.258 97.7013 165.914 97.504 166.65 97.504C167.322 97.504 167.924 97.68 168.458 98.032C168.991 98.384 169.407 98.8107 169.706 99.312V94.32H171.114V104.4C171.114 104.571 171.146 104.699 171.21 104.784C171.284 104.859 171.402 104.901 171.562 104.912V106C171.295 106.043 171.087 106.064 170.938 106.064C170.66 106.064 170.415 105.968 170.202 105.776C169.999 105.584 169.898 105.371 169.898 105.136V104.432C169.567 104.965 169.124 105.387 168.57 105.696C168.015 106.005 167.439 106.16 166.842 106.16C166.266 106.16 165.732 106.048 165.242 105.824C164.762 105.589 164.34 105.269 163.978 104.864C163.626 104.459 163.348 104 163.146 103.488C162.954 102.965 162.858 102.416 162.858 101.84ZM169.706 103.072V100.672C169.578 100.309 169.37 99.984 169.082 99.696C168.794 99.3973 168.468 99.1627 168.106 98.992C167.754 98.8107 167.402 98.72 167.05 98.72C166.634 98.72 166.255 98.8107 165.914 98.992C165.583 99.1627 165.295 99.3973 165.05 99.696C164.815 99.984 164.634 100.315 164.506 100.688C164.378 101.061 164.314 101.451 164.314 101.856C164.314 102.272 164.383 102.667 164.522 103.04C164.671 103.413 164.874 103.744 165.13 104.032C165.396 104.32 165.7 104.544 166.042 104.704C166.394 104.864 166.772 104.944 167.178 104.944C167.434 104.944 167.695 104.896 167.962 104.8C168.239 104.704 168.5 104.571 168.746 104.4C168.991 104.229 169.199 104.032 169.37 103.808C169.54 103.573 169.652 103.328 169.706 103.072ZM173.464 106V97.648H174.872V106H173.464ZM173.464 96.08V94.32H174.872V96.08H173.464ZM184.4 106H182.992V101.328C182.992 100.443 182.853 99.7973 182.576 99.392C182.309 98.976 181.898 98.768 181.344 98.768C180.96 98.768 180.576 98.864 180.192 99.056C179.818 99.248 179.482 99.5093 179.184 99.84C178.896 100.16 178.688 100.533 178.56 100.96V106H177.152V97.648H178.432V99.44C178.656 99.0453 178.944 98.704 179.296 98.416C179.648 98.128 180.048 97.904 180.496 97.744C180.944 97.584 181.413 97.504 181.904 97.504C182.384 97.504 182.784 97.5947 183.104 97.776C183.434 97.9467 183.69 98.192 183.872 98.512C184.064 98.8213 184.197 99.1893 184.272 99.616C184.357 100.043 184.4 100.507 184.4 101.008V106ZM194.924 106.16C194.273 106.16 193.681 106 193.148 105.68C192.615 105.36 192.193 104.944 191.884 104.432V106H190.636V94.32H192.044V99.312C192.396 98.768 192.828 98.3307 193.34 98C193.852 97.6693 194.449 97.504 195.132 97.504C195.708 97.504 196.225 97.6267 196.684 97.872C197.143 98.1067 197.532 98.432 197.852 98.848C198.183 99.2533 198.433 99.7173 198.604 100.24C198.785 100.752 198.876 101.291 198.876 101.856C198.876 102.443 198.775 102.997 198.572 103.52C198.38 104.032 198.103 104.491 197.74 104.896C197.377 105.291 196.956 105.6 196.476 105.824C196.007 106.048 195.489 106.16 194.924 106.16ZM194.572 104.944C194.988 104.944 195.372 104.859 195.724 104.688C196.076 104.517 196.38 104.288 196.636 104C196.892 103.712 197.089 103.381 197.228 103.008C197.367 102.635 197.436 102.251 197.436 101.856C197.436 101.312 197.319 100.8 197.084 100.32C196.86 99.84 196.54 99.456 196.124 99.168C195.719 98.8693 195.244 98.72 194.7 98.72C194.305 98.72 193.937 98.8107 193.596 98.992C193.255 99.1733 192.951 99.4133 192.684 99.712C192.428 100 192.215 100.32 192.044 100.672V103.088C192.097 103.355 192.209 103.6 192.38 103.824C192.551 104.048 192.759 104.245 193.004 104.416C193.249 104.576 193.505 104.704 193.772 104.8C194.049 104.896 194.316 104.944 194.572 104.944ZM202.733 106.16C202.21 106.16 201.735 106.048 201.309 105.824C200.893 105.589 200.562 105.275 200.317 104.88C200.071 104.485 199.949 104.043 199.949 103.552C199.949 103.04 200.098 102.592 200.397 102.208C200.695 101.824 201.106 101.525 201.629 101.312C202.162 101.088 202.77 100.976 203.453 100.976C203.815 100.976 204.173 101.008 204.525 101.072C204.887 101.125 205.218 101.2 205.517 101.296C205.538 101.125 205.565 100.944 205.597 100.752C205.629 100.56 205.677 100.389 205.741 100.24C205.666 99.7067 205.442 99.2907 205.069 98.992C204.695 98.6827 204.199 98.528 203.581 98.528C203.154 98.528 202.722 98.6133 202.285 98.784C201.847 98.944 201.394 99.184 200.925 99.504L200.461 98.592C201.559 97.8667 202.642 97.504 203.709 97.504C204.391 97.504 204.978 97.6373 205.469 97.904C205.959 98.1707 206.338 98.544 206.605 99.024C206.957 98.5653 207.399 98.1973 207.933 97.92C208.477 97.6427 209.074 97.504 209.725 97.504C210.567 97.504 211.303 97.7013 211.933 98.096C212.573 98.4907 213.069 99.0133 213.421 99.664C213.783 100.315 213.965 101.035 213.965 101.824C213.965 101.888 213.959 101.973 213.949 102.08C213.949 102.176 213.943 102.251 213.933 102.304H206.845C206.887 102.848 207.047 103.333 207.325 103.76C207.602 104.176 207.959 104.507 208.397 104.752C208.834 104.987 209.309 105.104 209.821 105.104C210.333 105.104 210.813 104.976 211.261 104.72C211.719 104.464 212.034 104.128 212.205 103.712L213.421 104.048C213.239 104.453 212.967 104.816 212.605 105.136C212.253 105.456 211.831 105.707 211.341 105.888C210.861 106.069 210.338 106.16 209.773 106.16C209.026 106.16 208.349 105.995 207.741 105.664C207.143 105.333 206.658 104.896 206.285 104.352C206.05 104.779 205.73 105.125 205.325 105.392C204.93 105.659 204.503 105.856 204.045 105.984C203.586 106.101 203.149 106.16 202.733 106.16ZM203.101 105.104C203.602 105.104 204.066 105.013 204.493 104.832C204.93 104.64 205.266 104.389 205.501 104.08C205.682 103.899 205.783 103.712 205.805 103.52C205.719 103.339 205.65 103.115 205.597 102.848C205.554 102.571 205.527 102.331 205.517 102.128C205.229 102.032 204.925 101.957 204.605 101.904C204.285 101.851 203.97 101.824 203.661 101.824C202.957 101.824 202.381 101.973 201.933 102.272C201.495 102.571 201.277 102.96 201.277 103.44C201.277 103.749 201.357 104.032 201.517 104.288C201.677 104.544 201.895 104.747 202.173 104.896C202.45 105.035 202.759 105.104 203.101 105.104ZM212.621 101.392C212.578 100.837 212.423 100.347 212.157 99.92C211.901 99.4933 211.559 99.1627 211.133 98.928C210.717 98.6827 210.242 98.56 209.709 98.56C209.186 98.56 208.711 98.6827 208.285 98.928C207.858 99.1733 207.517 99.5093 207.261 99.936C207.005 100.352 206.861 100.837 206.829 101.392H212.621ZM219.943 98.88C219.239 98.8907 218.615 99.072 218.071 99.424C217.537 99.7653 217.159 100.24 216.935 100.848V106H215.527V97.648H216.839V99.584C217.127 99.008 217.505 98.544 217.975 98.192C218.455 97.8293 218.956 97.6267 219.479 97.584C219.585 97.584 219.676 97.584 219.751 97.584C219.825 97.584 219.889 97.5893 219.943 97.6V98.88ZM224.832 106.16C224.203 106.16 223.627 106.048 223.104 105.824C222.592 105.589 222.144 105.275 221.76 104.88C221.387 104.475 221.093 104.011 220.88 103.488C220.677 102.965 220.576 102.411 220.576 101.824C220.576 101.035 220.757 100.315 221.12 99.664C221.483 99.0133 221.984 98.4907 222.624 98.096C223.275 97.7013 224.016 97.504 224.848 97.504C225.691 97.504 226.421 97.7067 227.04 98.112C227.669 98.5067 228.155 99.0293 228.496 99.68C228.848 100.32 229.024 101.013 229.024 101.76C229.024 101.867 229.019 101.973 229.008 102.08C229.008 102.176 229.003 102.251 228.992 102.304H222.064C222.107 102.848 222.256 103.333 222.512 103.76C222.779 104.176 223.12 104.507 223.536 104.752C223.952 104.987 224.4 105.104 224.88 105.104C225.392 105.104 225.872 104.976 226.32 104.72C226.779 104.464 227.093 104.128 227.264 103.712L228.48 104.048C228.299 104.453 228.027 104.816 227.664 105.136C227.312 105.456 226.891 105.707 226.4 105.888C225.92 106.069 225.397 106.16 224.832 106.16ZM222.016 101.328H227.712C227.669 100.784 227.515 100.304 227.248 99.888C226.981 99.472 226.64 99.1467 226.224 98.912C225.808 98.6773 225.349 98.56 224.848 98.56C224.357 98.56 223.904 98.6773 223.488 98.912C223.072 99.1467 222.731 99.472 222.464 99.888C222.208 100.304 222.059 100.784 222.016 101.328ZM230.045 101.84C230.045 101.051 230.205 100.331 230.525 99.68C230.856 99.0187 231.304 98.4907 231.869 98.096C232.445 97.7013 233.101 97.504 233.837 97.504C234.509 97.504 235.112 97.68 235.645 98.032C236.178 98.384 236.594 98.8107 236.893 99.312V94.32H238.301V104.4C238.301 104.571 238.333 104.699 238.397 104.784C238.472 104.859 238.589 104.901 238.749 104.912V106C238.482 106.043 238.274 106.064 238.125 106.064C237.848 106.064 237.602 105.968 237.389 105.776C237.186 105.584 237.085 105.371 237.085 105.136V104.432C236.754 104.965 236.312 105.387 235.757 105.696C235.202 106.005 234.626 106.16 234.029 106.16C233.453 106.16 232.92 106.048 232.429 105.824C231.949 105.589 231.528 105.269 231.165 104.864C230.813 104.459 230.536 104 230.333 103.488C230.141 102.965 230.045 102.416 230.045 101.84ZM236.893 103.072V100.672C236.765 100.309 236.557 99.984 236.269 99.696C235.981 99.3973 235.656 99.1627 235.293 98.992C234.941 98.8107 234.589 98.72 234.237 98.72C233.821 98.72 233.442 98.8107 233.101 98.992C232.77 99.1627 232.482 99.3973 232.237 99.696C232.002 99.984 231.821 100.315 231.693 100.688C231.565 101.061 231.501 101.451 231.501 101.856C231.501 102.272 231.57 102.667 231.709 103.04C231.858 103.413 232.061 103.744 232.317 104.032C232.584 104.32 232.888 104.544 233.229 104.704C233.581 104.864 233.96 104.944 234.365 104.944C234.621 104.944 234.882 104.896 235.149 104.8C235.426 104.704 235.688 104.571 235.933 104.4C236.178 104.229 236.386 104.032 236.557 103.808C236.728 103.573 236.84 103.328 236.893 103.072ZM241.036 108.272C241.174 108.283 241.313 108.293 241.452 108.304C241.59 108.325 241.697 108.336 241.772 108.336C241.942 108.336 242.092 108.277 242.22 108.16C242.348 108.043 242.486 107.813 242.636 107.472C242.796 107.141 242.998 106.651 243.244 106L239.708 97.648H241.196L244.012 104.576L246.556 97.648H247.948L243.884 108.192C243.788 108.437 243.644 108.667 243.452 108.88C243.27 109.104 243.036 109.28 242.748 109.408C242.46 109.536 242.113 109.6 241.708 109.6C241.612 109.6 241.51 109.595 241.404 109.584C241.308 109.573 241.185 109.552 241.036 109.52V108.272ZM252.417 106.096C251.852 106.096 251.329 105.984 250.849 105.76C250.38 105.525 249.974 105.211 249.633 104.816C249.292 104.411 249.025 103.952 248.833 103.44C248.652 102.928 248.561 102.395 248.561 101.84C248.561 101.253 248.652 100.699 248.833 100.176C249.025 99.6533 249.292 99.1947 249.633 98.8C249.985 98.3947 250.396 98.08 250.865 97.856C251.334 97.6213 251.857 97.504 252.433 97.504C253.126 97.504 253.729 97.6747 254.241 98.016C254.764 98.3573 255.201 98.7893 255.553 99.312V97.648H256.801V105.904C256.801 106.693 256.609 107.36 256.225 107.904C255.852 108.448 255.34 108.859 254.689 109.136C254.049 109.424 253.334 109.568 252.545 109.568C251.606 109.568 250.838 109.403 250.241 109.072C249.644 108.741 249.148 108.293 248.753 107.728L249.569 107.008C249.9 107.499 250.326 107.867 250.849 108.112C251.382 108.357 251.948 108.48 252.545 108.48C253.057 108.48 253.526 108.384 253.953 108.192C254.39 108.011 254.737 107.728 254.993 107.344C255.26 106.96 255.393 106.48 255.393 105.904V104.432C255.084 104.944 254.657 105.349 254.113 105.648C253.58 105.947 253.014 106.096 252.417 106.096ZM252.849 104.944C253.148 104.944 253.436 104.891 253.713 104.784C253.99 104.677 254.246 104.539 254.481 104.368C254.716 104.187 254.913 103.984 255.073 103.76C255.233 103.536 255.34 103.307 255.393 103.072V100.672C255.244 100.288 255.03 99.952 254.753 99.664C254.476 99.3653 254.161 99.136 253.809 98.976C253.457 98.8053 253.094 98.72 252.721 98.72C252.294 98.72 251.91 98.8107 251.569 98.992C251.238 99.1733 250.956 99.4187 250.721 99.728C250.486 100.027 250.305 100.363 250.177 100.736C250.049 101.109 249.985 101.488 249.985 101.872C249.985 102.288 250.06 102.683 250.209 103.056C250.358 103.419 250.561 103.744 250.817 104.032C251.073 104.32 251.377 104.544 251.729 104.704C252.081 104.864 252.454 104.944 252.849 104.944ZM263.394 105.584C263.276 105.637 263.116 105.707 262.914 105.792C262.711 105.877 262.476 105.952 262.21 106.016C261.943 106.08 261.66 106.112 261.362 106.112C261.02 106.112 260.706 106.053 260.418 105.936C260.13 105.808 259.9 105.616 259.73 105.36C259.559 105.093 259.474 104.763 259.474 104.368V98.752H258.338V97.648H259.474V94.864H260.882V97.648H262.754V98.752H260.882V103.936C260.903 104.235 261.004 104.459 261.186 104.608C261.367 104.747 261.58 104.816 261.826 104.816C262.103 104.816 262.359 104.768 262.594 104.672C262.828 104.576 262.983 104.507 263.058 104.464L263.394 105.584ZM264.699 106V97.648H266.107V106H264.699ZM264.699 96.08V94.32H266.107V96.08H264.699ZM271.714 106.096C271.149 106.096 270.626 105.984 270.146 105.76C269.677 105.525 269.271 105.211 268.93 104.816C268.589 104.411 268.322 103.952 268.13 103.44C267.949 102.928 267.858 102.395 267.858 101.84C267.858 101.253 267.949 100.699 268.13 100.176C268.322 99.6533 268.589 99.1947 268.93 98.8C269.282 98.3947 269.693 98.08 270.162 97.856C270.631 97.6213 271.154 97.504 271.73 97.504C272.423 97.504 273.026 97.6747 273.538 98.016C274.061 98.3573 274.498 98.7893 274.85 99.312V97.648H276.098V105.904C276.098 106.693 275.906 107.36 275.522 107.904C275.149 108.448 274.637 108.859 273.986 109.136C273.346 109.424 272.631 109.568 271.842 109.568C270.903 109.568 270.135 109.403 269.538 109.072C268.941 108.741 268.445 108.293 268.05 107.728L268.866 107.008C269.197 107.499 269.623 107.867 270.146 108.112C270.679 108.357 271.245 108.48 271.842 108.48C272.354 108.48 272.823 108.384 273.25 108.192C273.687 108.011 274.034 107.728 274.29 107.344C274.557 106.96 274.69 106.48 274.69 105.904V104.432C274.381 104.944 273.954 105.349 273.41 105.648C272.877 105.947 272.311 106.096 271.714 106.096ZM272.146 104.944C272.445 104.944 272.733 104.891 273.01 104.784C273.287 104.677 273.543 104.539 273.778 104.368C274.013 104.187 274.21 103.984 274.37 103.76C274.53 103.536 274.637 103.307 274.69 103.072V100.672C274.541 100.288 274.327 99.952 274.05 99.664C273.773 99.3653 273.458 99.136 273.106 98.976C272.754 98.8053 272.391 98.72 272.018 98.72C271.591 98.72 271.207 98.8107 270.866 98.992C270.535 99.1733 270.253 99.4187 270.018 99.728C269.783 100.027 269.602 100.363 269.474 100.736C269.346 101.109 269.282 101.488 269.282 101.872C269.282 102.288 269.357 102.683 269.506 103.056C269.655 103.419 269.858 103.744 270.114 104.032C270.37 104.32 270.674 104.544 271.026 104.704C271.378 104.864 271.751 104.944 272.146 104.944ZM282.066 106.16C281.437 106.16 280.861 106.048 280.338 105.824C279.826 105.589 279.378 105.275 278.994 104.88C278.621 104.475 278.328 104.011 278.114 103.488C277.912 102.965 277.81 102.411 277.81 101.824C277.81 101.035 277.992 100.315 278.354 99.664C278.717 99.0133 279.218 98.4907 279.858 98.096C280.509 97.7013 281.25 97.504 282.082 97.504C282.925 97.504 283.656 97.7067 284.274 98.112C284.904 98.5067 285.389 99.0293 285.73 99.68C286.082 100.32 286.258 101.013 286.258 101.76C286.258 101.867 286.253 101.973 286.242 102.08C286.242 102.176 286.237 102.251 286.226 102.304H279.298C279.341 102.848 279.49 103.333 279.746 103.76C280.013 104.176 280.354 104.507 280.77 104.752C281.186 104.987 281.634 105.104 282.114 105.104C282.626 105.104 283.106 104.976 283.554 104.72C284.013 104.464 284.328 104.128 284.498 103.712L285.714 104.048C285.533 104.453 285.261 104.816 284.898 105.136C284.546 105.456 284.125 105.707 283.634 105.888C283.154 106.069 282.632 106.16 282.066 106.16ZM279.25 101.328H284.946C284.904 100.784 284.749 100.304 284.482 99.888C284.216 99.472 283.874 99.1467 283.458 98.912C283.042 98.6773 282.584 98.56 282.082 98.56C281.592 98.56 281.138 98.6773 280.722 98.912C280.306 99.1467 279.965 99.472 279.698 99.888C279.442 100.304 279.293 100.784 279.25 101.328ZM296.286 98.88C295.582 98.8907 294.958 99.072 294.414 99.424C293.881 99.7653 293.502 100.24 293.278 100.848V106H291.87V97.648H293.182V99.584C293.47 99.008 293.849 98.544 294.318 98.192C294.798 97.8293 295.3 97.6267 295.822 97.584C295.929 97.584 296.02 97.584 296.094 97.584C296.169 97.584 296.233 97.5893 296.286 97.6V98.88ZM301.176 106.16C300.546 106.16 299.97 106.048 299.448 105.824C298.936 105.589 298.488 105.275 298.104 104.88C297.73 104.475 297.437 104.011 297.224 103.488C297.021 102.965 296.92 102.411 296.92 101.824C296.92 101.035 297.101 100.315 297.464 99.664C297.826 99.0133 298.328 98.4907 298.968 98.096C299.618 97.7013 300.36 97.504 301.192 97.504C302.034 97.504 302.765 97.7067 303.384 98.112C304.013 98.5067 304.498 99.0293 304.84 99.68C305.192 100.32 305.368 101.013 305.368 101.76C305.368 101.867 305.362 101.973 305.352 102.08C305.352 102.176 305.346 102.251 305.336 102.304H298.408C298.45 102.848 298.6 103.333 298.856 103.76C299.122 104.176 299.464 104.507 299.88 104.752C300.296 104.987 300.744 105.104 301.224 105.104C301.736 105.104 302.216 104.976 302.664 104.72C303.122 104.464 303.437 104.128 303.608 103.712L304.824 104.048C304.642 104.453 304.37 104.816 304.008 105.136C303.656 105.456 303.234 105.707 302.744 105.888C302.264 106.069 301.741 106.16 301.176 106.16ZM298.36 101.328H304.056C304.013 100.784 303.858 100.304 303.592 99.888C303.325 99.472 302.984 99.1467 302.568 98.912C302.152 98.6773 301.693 98.56 301.192 98.56C300.701 98.56 300.248 98.6773 299.832 98.912C299.416 99.1467 299.074 99.472 298.808 99.888C298.552 100.304 298.402 100.784 298.36 101.328ZM305.861 108.976C305.498 108.976 305.152 108.923 304.821 108.816C304.49 108.709 304.197 108.539 303.941 108.304L304.597 107.36C304.746 107.499 304.922 107.595 305.125 107.648C305.317 107.701 305.509 107.728 305.701 107.728C305.936 107.728 306.154 107.669 306.357 107.552C306.56 107.435 306.725 107.269 306.853 107.056C306.981 106.853 307.045 106.624 307.045 106.368V97.648H308.453V106.272C308.453 106.795 308.33 107.259 308.085 107.664C307.84 108.08 307.52 108.4 307.125 108.624C306.741 108.859 306.32 108.976 305.861 108.976ZM307.045 96.08V94.32H308.453V96.08H307.045ZM313.594 106.16C312.9 106.16 312.25 106.048 311.642 105.824C311.034 105.589 310.511 105.243 310.074 104.784L310.618 103.792C311.098 104.24 311.578 104.56 312.058 104.752C312.538 104.944 313.028 105.04 313.53 105.04C314.106 105.04 314.575 104.933 314.938 104.72C315.3 104.496 315.482 104.171 315.482 103.744C315.482 103.435 315.386 103.205 315.194 103.056C315.012 102.907 314.751 102.784 314.41 102.688C314.068 102.581 313.663 102.464 313.194 102.336C312.618 102.165 312.132 101.984 311.738 101.792C311.343 101.6 311.044 101.36 310.842 101.072C310.639 100.784 310.538 100.421 310.538 99.984C310.538 99.4507 310.676 99.0027 310.954 98.64C311.231 98.2667 311.61 97.984 312.09 97.792C312.58 97.6 313.135 97.504 313.754 97.504C314.372 97.504 314.932 97.6 315.434 97.792C315.935 97.984 316.367 98.2667 316.73 98.64L316.09 99.616C315.759 99.2747 315.396 99.024 315.002 98.864C314.607 98.6933 314.164 98.608 313.674 98.608C313.386 98.608 313.103 98.6453 312.826 98.72C312.548 98.784 312.319 98.9067 312.138 99.088C311.956 99.2587 311.866 99.504 311.866 99.824C311.866 100.091 311.935 100.304 312.074 100.464C312.223 100.613 312.436 100.741 312.714 100.848C313.002 100.955 313.348 101.072 313.754 101.2C314.383 101.381 314.927 101.563 315.386 101.744C315.855 101.925 316.218 102.16 316.474 102.448C316.73 102.736 316.858 103.136 316.858 103.648C316.858 104.437 316.559 105.056 315.962 105.504C315.364 105.941 314.575 106.16 313.594 106.16ZM322.238 106.16C321.609 106.16 321.033 106.048 320.51 105.824C319.998 105.589 319.55 105.275 319.166 104.88C318.793 104.475 318.5 104.011 318.286 103.488C318.084 102.965 317.982 102.411 317.982 101.824C317.982 101.035 318.164 100.315 318.526 99.664C318.889 99.0133 319.39 98.4907 320.03 98.096C320.681 97.7013 321.422 97.504 322.254 97.504C323.097 97.504 323.828 97.7067 324.446 98.112C325.076 98.5067 325.561 99.0293 325.902 99.68C326.254 100.32 326.43 101.013 326.43 101.76C326.43 101.867 326.425 101.973 326.414 102.08C326.414 102.176 326.409 102.251 326.398 102.304H319.47C319.513 102.848 319.662 103.333 319.918 103.76C320.185 104.176 320.526 104.507 320.942 104.752C321.358 104.987 321.806 105.104 322.286 105.104C322.798 105.104 323.278 104.976 323.726 104.72C324.185 104.464 324.5 104.128 324.67 103.712L325.886 104.048C325.705 104.453 325.433 104.816 325.07 105.136C324.718 105.456 324.297 105.707 323.806 105.888C323.326 106.069 322.804 106.16 322.238 106.16ZM319.422 101.328H325.118C325.076 100.784 324.921 100.304 324.654 99.888C324.388 99.472 324.046 99.1467 323.63 98.912C323.214 98.6773 322.756 98.56 322.254 98.56C321.764 98.56 321.31 98.6773 320.894 98.912C320.478 99.1467 320.137 99.472 319.87 99.888C319.614 100.304 319.465 100.784 319.422 101.328ZM38.784 130.16C38.1547 130.16 37.584 130.048 37.072 129.824C36.56 129.589 36.1173 129.275 35.744 128.88C35.3707 128.475 35.0827 128.011 34.88 127.488C34.6773 126.965 34.576 126.416 34.576 125.84C34.576 125.253 34.6773 124.699 34.88 124.176C35.0827 123.653 35.3707 123.195 35.744 122.8C36.1173 122.395 36.56 122.08 37.072 121.856C37.5947 121.621 38.1653 121.504 38.784 121.504C39.4133 121.504 39.984 121.621 40.496 121.856C41.008 122.08 41.4507 122.395 41.824 122.8C42.208 123.195 42.5013 123.653 42.704 124.176C42.9067 124.699 43.008 125.253 43.008 125.84C43.008 126.416 42.9067 126.965 42.704 127.488C42.5013 128.011 42.2133 128.475 41.84 128.88C41.4667 129.275 41.0187 129.589 40.496 129.824C39.984 130.048 39.4133 130.16 38.784 130.16ZM36.016 125.856C36.016 126.432 36.1387 126.955 36.384 127.424C36.64 127.893 36.976 128.267 37.392 128.544C37.808 128.811 38.272 128.944 38.784 128.944C39.296 128.944 39.76 128.805 40.176 128.528C40.6027 128.251 40.9387 127.877 41.184 127.408C41.44 126.928 41.568 126.4 41.568 125.824C41.568 125.248 41.44 124.725 41.184 124.256C40.9387 123.787 40.6027 123.413 40.176 123.136C39.76 122.859 39.296 122.72 38.784 122.72C38.272 122.72 37.808 122.864 37.392 123.152C36.976 123.429 36.64 123.803 36.384 124.272C36.1387 124.741 36.016 125.269 36.016 125.856ZM48.0421 130.096C47.4768 130.096 46.9541 129.984 46.4741 129.76C46.0048 129.525 45.5995 129.211 45.2581 128.816C44.9168 128.411 44.6501 127.952 44.4581 127.44C44.2768 126.928 44.1861 126.395 44.1861 125.84C44.1861 125.253 44.2768 124.699 44.4581 124.176C44.6501 123.653 44.9168 123.195 45.2581 122.8C45.6101 122.395 46.0208 122.08 46.4901 121.856C46.9595 121.621 47.4821 121.504 48.0581 121.504C48.7515 121.504 49.3541 121.675 49.8661 122.016C50.3888 122.357 50.8261 122.789 51.1781 123.312V121.648H52.4261V129.904C52.4261 130.693 52.2341 131.36 51.8501 131.904C51.4768 132.448 50.9648 132.859 50.3141 133.136C49.6741 133.424 48.9595 133.568 48.1701 133.568C47.2315 133.568 46.4635 133.403 45.8661 133.072C45.2688 132.741 44.7728 132.293 44.3781 131.728L45.1941 131.008C45.5248 131.499 45.9515 131.867 46.4741 132.112C47.0075 132.357 47.5728 132.48 48.1701 132.48C48.6821 132.48 49.1515 132.384 49.5781 132.192C50.0155 132.011 50.3621 131.728 50.6181 131.344C50.8848 130.96 51.0181 130.48 51.0181 129.904V128.432C50.7088 128.944 50.2821 129.349 49.7381 129.648C49.2048 129.947 48.6395 130.096 48.0421 130.096ZM48.4741 128.944C48.7728 128.944 49.0608 128.891 49.3381 128.784C49.6155 128.677 49.8715 128.539 50.1061 128.368C50.3408 128.187 50.5381 127.984 50.6981 127.76C50.8581 127.536 50.9648 127.307 51.0181 127.072V124.672C50.8688 124.288 50.6555 123.952 50.3781 123.664C50.1008 123.365 49.7861 123.136 49.4341 122.976C49.0821 122.805 48.7195 122.72 48.3461 122.72C47.9195 122.72 47.5355 122.811 47.1941 122.992C46.8635 123.173 46.5808 123.419 46.3461 123.728C46.1115 124.027 45.9301 124.363 45.8021 124.736C45.6741 125.109 45.6101 125.488 45.6101 125.872C45.6101 126.288 45.6848 126.683 45.8341 127.056C45.9835 127.419 46.1861 127.744 46.4421 128.032C46.6981 128.32 47.0021 128.544 47.3541 128.704C47.7061 128.864 48.0795 128.944 48.4741 128.944ZM61.6094 130.16C60.916 130.16 60.2654 130.048 59.6574 129.824C59.0494 129.589 58.5267 129.243 58.0894 128.784L58.6334 127.792C59.1134 128.24 59.5934 128.56 60.0734 128.752C60.5534 128.944 61.044 129.04 61.5454 129.04C62.1214 129.04 62.5907 128.933 62.9534 128.72C63.316 128.496 63.4974 128.171 63.4974 127.744C63.4974 127.435 63.4014 127.205 63.2094 127.056C63.028 126.907 62.7667 126.784 62.4254 126.688C62.084 126.581 61.6787 126.464 61.2094 126.336C60.6334 126.165 60.148 125.984 59.7534 125.792C59.3587 125.6 59.06 125.36 58.8574 125.072C58.6547 124.784 58.5534 124.421 58.5534 123.984C58.5534 123.451 58.692 123.003 58.9694 122.64C59.2467 122.267 59.6254 121.984 60.1054 121.792C60.596 121.6 61.1507 121.504 61.7694 121.504C62.388 121.504 62.948 121.6 63.4494 121.792C63.9507 121.984 64.3827 122.267 64.7454 122.64L64.1054 123.616C63.7747 123.275 63.412 123.024 63.0174 122.864C62.6227 122.693 62.18 122.608 61.6894 122.608C61.4014 122.608 61.1187 122.645 60.8414 122.72C60.564 122.784 60.3347 122.907 60.1534 123.088C59.972 123.259 59.8814 123.504 59.8814 123.824C59.8814 124.091 59.9507 124.304 60.0894 124.464C60.2387 124.613 60.452 124.741 60.7294 124.848C61.0174 124.955 61.364 125.072 61.7694 125.2C62.3987 125.381 62.9427 125.563 63.4014 125.744C63.8707 125.925 64.2334 126.16 64.4894 126.448C64.7454 126.736 64.8734 127.136 64.8734 127.648C64.8734 128.437 64.5747 129.056 63.9774 129.504C63.38 129.941 62.5907 130.16 61.6094 130.16ZM70.2539 130.16C69.6245 130.16 69.0485 130.048 68.5259 129.824C68.0139 129.589 67.5659 129.275 67.1819 128.88C66.8085 128.475 66.5152 128.011 66.3019 127.488C66.0992 126.965 65.9979 126.411 65.9979 125.824C65.9979 125.035 66.1792 124.315 66.5419 123.664C66.9045 123.013 67.4059 122.491 68.0459 122.096C68.6965 121.701 69.4379 121.504 70.2699 121.504C71.1125 121.504 71.8432 121.707 72.4619 122.112C73.0912 122.507 73.5765 123.029 73.9179 123.68C74.2699 124.32 74.4459 125.013 74.4459 125.76C74.4459 125.867 74.4405 125.973 74.4299 126.08C74.4299 126.176 74.4245 126.251 74.4139 126.304H67.4859C67.5285 126.848 67.6779 127.333 67.9339 127.76C68.2005 128.176 68.5419 128.507 68.9579 128.752C69.3739 128.987 69.8219 129.104 70.3019 129.104C70.8139 129.104 71.2939 128.976 71.7419 128.72C72.2005 128.464 72.5152 128.128 72.6859 127.712L73.9019 128.048C73.7205 128.453 73.4485 128.816 73.0859 129.136C72.7339 129.456 72.3125 129.707 71.8219 129.888C71.3419 130.069 70.8192 130.16 70.2539 130.16ZM67.4379 125.328H73.1339C73.0912 124.784 72.9365 124.304 72.6699 123.888C72.4032 123.472 72.0619 123.147 71.6459 122.912C71.2299 122.677 70.7712 122.56 70.2699 122.56C69.7792 122.56 69.3259 122.677 68.9099 122.912C68.4939 123.147 68.1525 123.472 67.8859 123.888C67.6299 124.304 67.4805 124.784 67.4379 125.328ZM79.5139 125.84C79.5139 125.051 79.6739 124.331 79.9939 123.68C80.3245 123.019 80.7725 122.491 81.3379 122.096C81.9139 121.701 82.5699 121.504 83.3059 121.504C83.9779 121.504 84.5805 121.68 85.1139 122.032C85.6472 122.384 86.0632 122.811 86.3619 123.312V118.32H87.7699V128.4C87.7699 128.571 87.8019 128.699 87.8659 128.784C87.9405 128.859 88.0579 128.901 88.2179 128.912V130C87.9512 130.043 87.7432 130.064 87.5939 130.064C87.3165 130.064 87.0712 129.968 86.8579 129.776C86.6552 129.584 86.5539 129.371 86.5539 129.136V128.432C86.2232 128.965 85.7805 129.387 85.2259 129.696C84.6712 130.005 84.0952 130.16 83.4979 130.16C82.9219 130.16 82.3885 130.048 81.8979 129.824C81.4179 129.589 80.9965 129.269 80.6339 128.864C80.2819 128.459 80.0045 128 79.8019 127.488C79.6099 126.965 79.5139 126.416 79.5139 125.84ZM86.3619 127.072V124.672C86.2339 124.309 86.0259 123.984 85.7379 123.696C85.4499 123.397 85.1245 123.163 84.7619 122.992C84.4099 122.811 84.0579 122.72 83.7059 122.72C83.2899 122.72 82.9112 122.811 82.5699 122.992C82.2392 123.163 81.9512 123.397 81.7059 123.696C81.4712 123.984 81.2899 124.315 81.1619 124.688C81.0339 125.061 80.9699 125.451 80.9699 125.856C80.9699 126.272 81.0392 126.667 81.1779 127.04C81.3272 127.413 81.5299 127.744 81.7859 128.032C82.0525 128.32 82.3565 128.544 82.6979 128.704C83.0499 128.864 83.4285 128.944 83.8339 128.944C84.0899 128.944 84.3512 128.896 84.6179 128.8C84.8952 128.704 85.1565 128.571 85.4019 128.4C85.6472 128.229 85.8552 128.032 86.0259 127.808C86.1965 127.573 86.3085 127.328 86.3619 127.072ZM93.8164 130.16C93.187 130.16 92.611 130.048 92.0884 129.824C91.5764 129.589 91.1284 129.275 90.7444 128.88C90.371 128.475 90.0777 128.011 89.8644 127.488C89.6617 126.965 89.5604 126.411 89.5604 125.824C89.5604 125.035 89.7417 124.315 90.1044 123.664C90.467 123.013 90.9684 122.491 91.6084 122.096C92.259 121.701 93.0004 121.504 93.8324 121.504C94.675 121.504 95.4057 121.707 96.0244 122.112C96.6537 122.507 97.139 123.029 97.4804 123.68C97.8324 124.32 98.0084 125.013 98.0084 125.76C98.0084 125.867 98.003 125.973 97.9924 126.08C97.9924 126.176 97.987 126.251 97.9764 126.304H91.0484C91.091 126.848 91.2404 127.333 91.4964 127.76C91.763 128.176 92.1044 128.507 92.5204 128.752C92.9364 128.987 93.3844 129.104 93.8644 129.104C94.3764 129.104 94.8564 128.976 95.3044 128.72C95.763 128.464 96.0777 128.128 96.2484 127.712L97.4644 128.048C97.283 128.453 97.011 128.816 96.6484 129.136C96.2964 129.456 95.875 129.707 95.3844 129.888C94.9044 130.069 94.3817 130.16 93.8164 130.16ZM91.0004 125.328H96.6964C96.6537 124.784 96.499 124.304 96.2324 123.888C95.9657 123.472 95.6244 123.147 95.2084 122.912C94.7924 122.677 94.3337 122.56 93.8324 122.56C93.3417 122.56 92.8884 122.677 92.4724 122.912C92.0564 123.147 91.715 123.472 91.4484 123.888C91.1924 124.304 91.043 124.784 91.0004 125.328ZM106.822 130H105.414V125.328C105.414 124.443 105.275 123.797 104.998 123.392C104.731 122.976 104.32 122.768 103.766 122.768C103.382 122.768 102.998 122.864 102.614 123.056C102.24 123.248 101.904 123.509 101.606 123.84C101.318 124.16 101.11 124.533 100.982 124.96V130H99.5735V121.648H100.854V123.44C101.078 123.045 101.366 122.704 101.718 122.416C102.07 122.128 102.47 121.904 102.918 121.744C103.366 121.584 103.835 121.504 104.326 121.504C104.806 121.504 105.206 121.595 105.526 121.776C105.856 121.947 106.112 122.192 106.294 122.512C106.486 122.821 106.619 123.189 106.694 123.616C106.779 124.043 106.822 124.507 106.822 125.008V130ZM117.554 130.16C116.871 130.16 116.263 129.989 115.73 129.648C115.197 129.307 114.775 128.875 114.466 128.352V133.408H113.058V121.648H114.306V123.216C114.637 122.704 115.069 122.293 115.602 121.984C116.135 121.664 116.717 121.504 117.346 121.504C117.922 121.504 118.45 121.621 118.93 121.856C119.41 122.091 119.826 122.411 120.178 122.816C120.53 123.221 120.802 123.685 120.994 124.208C121.197 124.72 121.298 125.259 121.298 125.824C121.298 126.613 121.138 127.339 120.818 128C120.509 128.661 120.071 129.189 119.506 129.584C118.941 129.968 118.29 130.16 117.554 130.16ZM117.122 128.944C117.538 128.944 117.911 128.859 118.242 128.688C118.583 128.507 118.871 128.272 119.106 127.984C119.351 127.685 119.538 127.349 119.666 126.976C119.794 126.603 119.858 126.219 119.858 125.824C119.858 125.408 119.783 125.013 119.634 124.64C119.495 124.267 119.293 123.936 119.026 123.648C118.77 123.36 118.466 123.136 118.114 122.976C117.773 122.805 117.399 122.72 116.994 122.72C116.738 122.72 116.471 122.768 116.194 122.864C115.927 122.96 115.671 123.099 115.426 123.28C115.181 123.451 114.973 123.648 114.802 123.872C114.631 124.096 114.519 124.336 114.466 124.592V126.976C114.626 127.339 114.839 127.669 115.106 127.968C115.373 128.267 115.682 128.507 116.034 128.688C116.386 128.859 116.749 128.944 117.122 128.944ZM126.675 130.16C126.045 130.16 125.475 130.048 124.963 129.824C124.451 129.589 124.008 129.275 123.635 128.88C123.261 128.475 122.973 128.011 122.771 127.488C122.568 126.965 122.467 126.416 122.467 125.84C122.467 125.253 122.568 124.699 122.771 124.176C122.973 123.653 123.261 123.195 123.635 122.8C124.008 122.395 124.451 122.08 124.963 121.856C125.485 121.621 126.056 121.504 126.675 121.504C127.304 121.504 127.875 121.621 128.387 121.856C128.899 122.08 129.341 122.395 129.715 122.8C130.099 123.195 130.392 123.653 130.595 124.176C130.797 124.699 130.899 125.253 130.899 125.84C130.899 126.416 130.797 126.965 130.595 127.488C130.392 128.011 130.104 128.475 129.731 128.88C129.357 129.275 128.909 129.589 128.387 129.824C127.875 130.048 127.304 130.16 126.675 130.16ZM123.907 125.856C123.907 126.432 124.029 126.955 124.275 127.424C124.531 127.893 124.867 128.267 125.283 128.544C125.699 128.811 126.163 128.944 126.675 128.944C127.187 128.944 127.651 128.805 128.067 128.528C128.493 128.251 128.829 127.877 129.075 127.408C129.331 126.928 129.459 126.4 129.459 125.824C129.459 125.248 129.331 124.725 129.075 124.256C128.829 123.787 128.493 123.413 128.067 123.136C127.651 122.859 127.187 122.72 126.675 122.72C126.163 122.72 125.699 122.864 125.283 123.152C124.867 123.429 124.531 123.803 124.275 124.272C124.029 124.741 123.907 125.269 123.907 125.856ZM135.469 130.16C134.775 130.16 134.125 130.048 133.517 129.824C132.909 129.589 132.386 129.243 131.949 128.784L132.493 127.792C132.973 128.24 133.453 128.56 133.933 128.752C134.413 128.944 134.903 129.04 135.405 129.04C135.981 129.04 136.45 128.933 136.813 128.72C137.175 128.496 137.357 128.171 137.357 127.744C137.357 127.435 137.261 127.205 137.069 127.056C136.887 126.907 136.626 126.784 136.285 126.688C135.943 126.581 135.538 126.464 135.069 126.336C134.493 126.165 134.007 125.984 133.613 125.792C133.218 125.6 132.919 125.36 132.717 125.072C132.514 124.784 132.413 124.421 132.413 123.984C132.413 123.451 132.551 123.003 132.829 122.64C133.106 122.267 133.485 121.984 133.965 121.792C134.455 121.6 135.01 121.504 135.629 121.504C136.247 121.504 136.807 121.6 137.309 121.792C137.81 121.984 138.242 122.267 138.605 122.64L137.965 123.616C137.634 123.275 137.271 123.024 136.877 122.864C136.482 122.693 136.039 122.608 135.549 122.608C135.261 122.608 134.978 122.645 134.701 122.72C134.423 122.784 134.194 122.907 134.013 123.088C133.831 123.259 133.741 123.504 133.741 123.824C133.741 124.091 133.81 124.304 133.949 124.464C134.098 124.613 134.311 124.741 134.589 124.848C134.877 124.955 135.223 125.072 135.629 125.2C136.258 125.381 136.802 125.563 137.261 125.744C137.73 125.925 138.093 126.16 138.349 126.448C138.605 126.736 138.733 127.136 138.733 127.648C138.733 128.437 138.434 129.056 137.837 129.504C137.239 129.941 136.45 130.16 135.469 130.16ZM140.417 130V121.648H141.825V130H140.417ZM140.417 120.08V118.32H141.825V120.08H140.417ZM148.425 129.584C148.307 129.637 148.147 129.707 147.945 129.792C147.742 129.877 147.507 129.952 147.241 130.016C146.974 130.08 146.691 130.112 146.393 130.112C146.051 130.112 145.737 130.053 145.449 129.936C145.161 129.808 144.931 129.616 144.761 129.36C144.59 129.093 144.505 128.763 144.505 128.368V122.752H143.369V121.648H144.505V118.864H145.913V121.648H147.785V122.752H145.913V127.936C145.934 128.235 146.035 128.459 146.217 128.608C146.398 128.747 146.611 128.816 146.857 128.816C147.134 128.816 147.39 128.768 147.625 128.672C147.859 128.576 148.014 128.507 148.089 128.464L148.425 129.584ZM149.73 130V121.648H151.138V130H149.73ZM149.73 120.08V118.32H151.138V120.08H149.73ZM155.817 130L152.537 121.648H154.009L156.633 128.656L159.257 121.648H160.633L157.353 130H155.817ZM165.457 130.16C164.828 130.16 164.252 130.048 163.729 129.824C163.217 129.589 162.769 129.275 162.385 128.88C162.012 128.475 161.718 128.011 161.505 127.488C161.302 126.965 161.201 126.411 161.201 125.824C161.201 125.035 161.382 124.315 161.745 123.664C162.108 123.013 162.609 122.491 163.249 122.096C163.9 121.701 164.641 121.504 165.473 121.504C166.316 121.504 167.046 121.707 167.665 122.112C168.294 122.507 168.78 123.029 169.121 123.68C169.473 124.32 169.649 125.013 169.649 125.76C169.649 125.867 169.644 125.973 169.633 126.08C169.633 126.176 169.628 126.251 169.617 126.304H162.689C162.732 126.848 162.881 127.333 163.137 127.76C163.404 128.176 163.745 128.507 164.161 128.752C164.577 128.987 165.025 129.104 165.505 129.104C166.017 129.104 166.497 128.976 166.945 128.72C167.404 128.464 167.718 128.128 167.889 127.712L169.105 128.048C168.924 128.453 168.652 128.816 168.289 129.136C167.937 129.456 167.516 129.707 167.025 129.888C166.545 130.069 166.022 130.16 165.457 130.16ZM162.641 125.328H168.337C168.294 124.784 168.14 124.304 167.873 123.888C167.606 123.472 167.265 123.147 166.849 122.912C166.433 122.677 165.974 122.56 165.473 122.56C164.982 122.56 164.529 122.677 164.113 122.912C163.697 123.147 163.356 123.472 163.089 123.888C162.833 124.304 162.684 124.784 162.641 125.328ZM175.709 130V122.752H174.573V121.648H175.709V121.472C175.709 120.789 175.81 120.203 176.013 119.712C176.226 119.211 176.525 118.827 176.909 118.56C177.293 118.293 177.746 118.16 178.269 118.16C178.6 118.16 178.925 118.208 179.245 118.304C179.565 118.389 179.853 118.512 180.109 118.672L179.757 119.712C179.608 119.605 179.421 119.52 179.197 119.456C178.984 119.392 178.77 119.36 178.557 119.36C178.098 119.36 177.741 119.541 177.485 119.904C177.24 120.256 177.117 120.763 177.117 121.424V121.648H179.341V122.752H177.117V130H175.709ZM184.19 130.16C183.561 130.16 182.99 130.048 182.478 129.824C181.966 129.589 181.524 129.275 181.15 128.88C180.777 128.475 180.489 128.011 180.286 127.488C180.084 126.965 179.982 126.416 179.982 125.84C179.982 125.253 180.084 124.699 180.286 124.176C180.489 123.653 180.777 123.195 181.15 122.8C181.524 122.395 181.966 122.08 182.478 121.856C183.001 121.621 183.572 121.504 184.19 121.504C184.82 121.504 185.39 121.621 185.902 121.856C186.414 122.08 186.857 122.395 187.23 122.8C187.614 123.195 187.908 123.653 188.11 124.176C188.313 124.699 188.414 125.253 188.414 125.84C188.414 126.416 188.313 126.965 188.11 127.488C187.908 128.011 187.62 128.475 187.246 128.88C186.873 129.275 186.425 129.589 185.902 129.824C185.39 130.048 184.82 130.16 184.19 130.16ZM181.422 125.856C181.422 126.432 181.545 126.955 181.79 127.424C182.046 127.893 182.382 128.267 182.798 128.544C183.214 128.811 183.678 128.944 184.19 128.944C184.702 128.944 185.166 128.805 185.582 128.528C186.009 128.251 186.345 127.877 186.59 127.408C186.846 126.928 186.974 126.4 186.974 125.824C186.974 125.248 186.846 124.725 186.59 124.256C186.345 123.787 186.009 123.413 185.582 123.136C185.166 122.859 184.702 122.72 184.19 122.72C183.678 122.72 183.214 122.864 182.798 123.152C182.382 123.429 182.046 123.803 181.79 124.272C181.545 124.741 181.422 125.269 181.422 125.856ZM194.536 122.88C193.832 122.891 193.208 123.072 192.664 123.424C192.131 123.765 191.752 124.24 191.528 124.848V130H190.12V121.648H191.432V123.584C191.72 123.008 192.099 122.544 192.568 122.192C193.048 121.829 193.55 121.627 194.072 121.584C194.179 121.584 194.27 121.584 194.344 121.584C194.419 121.584 194.483 121.589 194.536 121.6V122.88ZM198.797 130.16C198.104 130.16 197.453 130.048 196.845 129.824C196.237 129.589 195.714 129.243 195.277 128.784L195.821 127.792C196.301 128.24 196.781 128.56 197.261 128.752C197.741 128.944 198.232 129.04 198.733 129.04C199.309 129.04 199.778 128.933 200.141 128.72C200.504 128.496 200.685 128.171 200.685 127.744C200.685 127.435 200.589 127.205 200.397 127.056C200.216 126.907 199.954 126.784 199.613 126.688C199.272 126.581 198.866 126.464 198.397 126.336C197.821 126.165 197.336 125.984 196.941 125.792C196.546 125.6 196.248 125.36 196.045 125.072C195.842 124.784 195.741 124.421 195.741 123.984C195.741 123.451 195.88 123.003 196.157 122.64C196.434 122.267 196.813 121.984 197.293 121.792C197.784 121.6 198.338 121.504 198.957 121.504C199.576 121.504 200.136 121.6 200.637 121.792C201.138 121.984 201.57 122.267 201.933 122.64L201.293 123.616C200.962 123.275 200.6 123.024 200.205 122.864C199.81 122.693 199.368 122.608 198.877 122.608C198.589 122.608 198.306 122.645 198.029 122.72C197.752 122.784 197.522 122.907 197.341 123.088C197.16 123.259 197.069 123.504 197.069 123.824C197.069 124.091 197.138 124.304 197.277 124.464C197.426 124.613 197.64 124.741 197.917 124.848C198.205 124.955 198.552 125.072 198.957 125.2C199.586 125.381 200.13 125.563 200.589 125.744C201.058 125.925 201.421 126.16 201.677 126.448C201.933 126.736 202.061 127.136 202.061 127.648C202.061 128.437 201.762 129.056 201.165 129.504C200.568 129.941 199.778 130.16 198.797 130.16ZM209.633 130L206.737 125.936L205.153 127.424V130H203.745V118.32H205.153V125.952L209.473 121.664H210.993L207.665 125.12L211.153 130H209.633ZM215.629 130.16C215 130.16 214.424 130.048 213.901 129.824C213.389 129.589 212.941 129.275 212.557 128.88C212.184 128.475 211.89 128.011 211.677 127.488C211.474 126.965 211.373 126.411 211.373 125.824C211.373 125.035 211.554 124.315 211.917 123.664C212.28 123.013 212.781 122.491 213.421 122.096C214.072 121.701 214.813 121.504 215.645 121.504C216.488 121.504 217.218 121.707 217.837 122.112C218.466 122.507 218.952 123.029 219.293 123.68C219.645 124.32 219.821 125.013 219.821 125.76C219.821 125.867 219.816 125.973 219.805 126.08C219.805 126.176 219.8 126.251 219.789 126.304H212.861C212.904 126.848 213.053 127.333 213.309 127.76C213.576 128.176 213.917 128.507 214.333 128.752C214.749 128.987 215.197 129.104 215.677 129.104C216.189 129.104 216.669 128.976 217.117 128.72C217.576 128.464 217.89 128.128 218.061 127.712L219.277 128.048C219.096 128.453 218.824 128.816 218.461 129.136C218.109 129.456 217.688 129.707 217.197 129.888C216.717 130.069 216.194 130.16 215.629 130.16ZM212.813 125.328H218.509C218.466 124.784 218.312 124.304 218.045 123.888C217.778 123.472 217.437 123.147 217.021 122.912C216.605 122.677 216.146 122.56 215.645 122.56C215.154 122.56 214.701 122.677 214.285 122.912C213.869 123.147 213.528 123.472 213.261 123.888C213.005 124.304 212.856 124.784 212.813 125.328ZM221.418 118.32H222.826V127.84C222.826 128.299 222.89 128.581 223.018 128.688C223.146 128.795 223.301 128.848 223.482 128.848C223.706 128.848 223.919 128.827 224.122 128.784C224.325 128.731 224.495 128.677 224.634 128.624L224.858 129.776C224.623 129.872 224.346 129.952 224.026 130.016C223.706 130.08 223.423 130.112 223.178 130.112C222.634 130.112 222.202 129.957 221.882 129.648C221.573 129.339 221.418 128.907 221.418 128.352V118.32ZM226.012 131.296L226.332 129.872H225.852V128.208H227.18V129.872L226.7 131.296H226.012ZM232.842 125.84C232.842 125.051 233.002 124.331 233.322 123.68C233.653 123.019 234.101 122.491 234.666 122.096C235.242 121.701 235.898 121.504 236.634 121.504C237.306 121.504 237.909 121.68 238.442 122.032C238.975 122.384 239.391 122.811 239.69 123.312V118.32H241.098V128.4C241.098 128.571 241.13 128.699 241.194 128.784C241.269 128.859 241.386 128.901 241.546 128.912V130C241.279 130.043 241.071 130.064 240.922 130.064C240.645 130.064 240.399 129.968 240.186 129.776C239.983 129.584 239.882 129.371 239.882 129.136V128.432C239.551 128.965 239.109 129.387 238.554 129.696C237.999 130.005 237.423 130.16 236.826 130.16C236.25 130.16 235.717 130.048 235.226 129.824C234.746 129.589 234.325 129.269 233.962 128.864C233.61 128.459 233.333 128 233.13 127.488C232.938 126.965 232.842 126.416 232.842 125.84ZM239.69 127.072V124.672C239.562 124.309 239.354 123.984 239.066 123.696C238.778 123.397 238.453 123.163 238.09 122.992C237.738 122.811 237.386 122.72 237.034 122.72C236.618 122.72 236.239 122.811 235.898 122.992C235.567 123.163 235.279 123.397 235.034 123.696C234.799 123.984 234.618 124.315 234.49 124.688C234.362 125.061 234.298 125.451 234.298 125.856C234.298 126.272 234.367 126.667 234.506 127.04C234.655 127.413 234.858 127.744 235.114 128.032C235.381 128.32 235.685 128.544 236.026 128.704C236.378 128.864 236.757 128.944 237.162 128.944C237.418 128.944 237.679 128.896 237.946 128.8C238.223 128.704 238.485 128.571 238.73 128.4C238.975 128.229 239.183 128.032 239.354 127.808C239.525 127.573 239.637 127.328 239.69 127.072ZM243.368 126.656V121.648H244.777V126.384C244.777 127.237 244.926 127.877 245.225 128.304C245.523 128.731 245.966 128.944 246.553 128.944C246.937 128.944 247.305 128.864 247.657 128.704C248.019 128.533 248.345 128.293 248.633 127.984C248.921 127.675 249.145 127.307 249.305 126.88V121.648H250.713V128.4C250.713 128.571 250.745 128.699 250.809 128.784C250.883 128.859 251.001 128.901 251.161 128.912V130C251.001 130.021 250.873 130.032 250.777 130.032C250.691 130.043 250.606 130.048 250.521 130.048C250.254 130.048 250.025 129.968 249.833 129.808C249.641 129.637 249.539 129.429 249.529 129.184L249.497 128.208C249.134 128.827 248.643 129.307 248.025 129.648C247.417 129.989 246.75 130.16 246.025 130.16C245.15 130.16 244.489 129.867 244.041 129.28C243.593 128.683 243.368 127.808 243.368 126.656ZM260.433 130.096C259.867 130.096 259.345 129.984 258.865 129.76C258.395 129.525 257.99 129.211 257.649 128.816C257.307 128.411 257.041 127.952 256.849 127.44C256.667 126.928 256.577 126.395 256.577 125.84C256.577 125.253 256.667 124.699 256.849 124.176C257.041 123.653 257.307 123.195 257.649 122.8C258.001 122.395 258.411 122.08 258.881 121.856C259.35 121.621 259.873 121.504 260.449 121.504C261.142 121.504 261.745 121.675 262.257 122.016C262.779 122.357 263.217 122.789 263.569 123.312V121.648H264.817V129.904C264.817 130.693 264.625 131.36 264.241 131.904C263.867 132.448 263.355 132.859 262.705 133.136C262.065 133.424 261.35 133.568 260.561 133.568C259.622 133.568 258.854 133.403 258.257 133.072C257.659 132.741 257.163 132.293 256.769 131.728L257.585 131.008C257.915 131.499 258.342 131.867 258.865 132.112C259.398 132.357 259.963 132.48 260.561 132.48C261.073 132.48 261.542 132.384 261.969 132.192C262.406 132.011 262.753 131.728 263.009 131.344C263.275 130.96 263.409 130.48 263.409 129.904V128.432C263.099 128.944 262.673 129.349 262.129 129.648C261.595 129.947 261.03 130.096 260.433 130.096ZM260.865 128.944C261.163 128.944 261.451 128.891 261.729 128.784C262.006 128.677 262.262 128.539 262.497 128.368C262.731 128.187 262.929 127.984 263.089 127.76C263.249 127.536 263.355 127.307 263.409 127.072V124.672C263.259 124.288 263.046 123.952 262.769 123.664C262.491 123.365 262.177 123.136 261.825 122.976C261.473 122.805 261.11 122.72 260.737 122.72C260.31 122.72 259.926 122.811 259.585 122.992C259.254 123.173 258.971 123.419 258.737 123.728C258.502 124.027 258.321 124.363 258.193 124.736C258.065 125.109 258.001 125.488 258.001 125.872C258.001 126.288 258.075 126.683 258.225 127.056C258.374 127.419 258.577 127.744 258.833 128.032C259.089 128.32 259.393 128.544 259.745 128.704C260.097 128.864 260.47 128.944 260.865 128.944ZM270.737 130.16C270.108 130.16 269.537 130.048 269.025 129.824C268.513 129.589 268.07 129.275 267.697 128.88C267.324 128.475 267.036 128.011 266.833 127.488C266.63 126.965 266.529 126.416 266.529 125.84C266.529 125.253 266.63 124.699 266.833 124.176C267.036 123.653 267.324 123.195 267.697 122.8C268.07 122.395 268.513 122.08 269.025 121.856C269.548 121.621 270.118 121.504 270.737 121.504C271.366 121.504 271.937 121.621 272.449 121.856C272.961 122.08 273.404 122.395 273.777 122.8C274.161 123.195 274.454 123.653 274.657 124.176C274.86 124.699 274.961 125.253 274.961 125.84C274.961 126.416 274.86 126.965 274.657 127.488C274.454 128.011 274.166 128.475 273.793 128.88C273.42 129.275 272.972 129.589 272.449 129.824C271.937 130.048 271.366 130.16 270.737 130.16ZM270.737 128.944C271.249 128.944 271.713 128.805 272.129 128.528C272.556 128.251 272.892 127.877 273.137 127.408C273.393 126.928 273.521 126.4 273.521 125.824C273.521 125.248 273.393 124.725 273.137 124.256C272.892 123.787 272.556 123.413 272.129 123.136C271.713 122.859 271.249 122.72 270.737 122.72C270.225 122.72 269.761 122.864 269.345 123.152C268.929 123.429 268.593 123.803 268.337 124.272C268.092 124.741 267.969 125.269 267.969 125.856C267.969 126.432 268.092 126.955 268.337 127.424C268.593 127.893 268.929 128.267 269.345 128.544C269.761 128.811 270.225 128.944 270.737 128.944ZM266.993 130.032L268.225 128.496L269.041 128.976L268.193 130.032H266.993ZM269.185 128.864L268.401 128.432L272.321 122.72L273.185 123.088L269.185 128.864ZM273.361 123.008L272.465 122.624L273.249 121.616H274.465L273.361 123.008ZM281.083 122.88C280.379 122.891 279.755 123.072 279.211 123.424C278.678 123.765 278.299 124.24 278.075 124.848V130H276.667V121.648H277.979V123.584C278.267 123.008 278.646 122.544 279.115 122.192C279.595 121.829 280.097 121.627 280.619 121.584C280.726 121.584 280.817 121.584 280.891 121.584C280.966 121.584 281.03 121.589 281.083 121.6V122.88ZM282.736 126.16V118.528H284.144V126.16H282.736ZM282.736 130V128.016H284.144V130H282.736Z" fill="white"/>
<path d="M35.785 63.93L39.78 74.079L43.758 63.93H45.373L40.477 76H39.083L34.17 63.93H35.785ZM49.5266 76.17C48.8579 76.17 48.2459 76.051 47.6906 75.813C47.1466 75.5637 46.6706 75.2293 46.2626 74.81C45.8659 74.3793 45.5542 73.8863 45.3276 73.331C45.1122 72.7757 45.0046 72.1863 45.0046 71.563C45.0046 70.7243 45.1972 69.9593 45.5826 69.268C45.9679 68.5767 46.5006 68.0213 47.1806 67.602C47.8719 67.1827 48.6596 66.973 49.5436 66.973C50.4389 66.973 51.2152 67.1883 51.8726 67.619C52.5412 68.0383 53.0569 68.5937 53.4196 69.285C53.7936 69.965 53.9806 70.7017 53.9806 71.495C53.9806 71.6083 53.9749 71.7217 53.9636 71.835C53.9636 71.937 53.9579 72.0163 53.9466 72.073H46.5856C46.6309 72.651 46.7896 73.1667 47.0616 73.62C47.3449 74.062 47.7076 74.4133 48.1496 74.674C48.5916 74.9233 49.0676 75.048 49.5776 75.048C50.1216 75.048 50.6316 74.912 51.1076 74.64C51.5949 74.368 51.9292 74.011 52.1106 73.569L53.4026 73.926C53.2099 74.3567 52.9209 74.742 52.5356 75.082C52.1616 75.422 51.7139 75.6883 51.1926 75.881C50.6826 76.0737 50.1272 76.17 49.5266 76.17ZM46.5346 71.036H52.5866C52.5412 70.458 52.3769 69.948 52.0936 69.506C51.8102 69.064 51.4476 68.7183 51.0056 68.469C50.5636 68.2197 50.0762 68.095 49.5436 68.095C49.0222 68.095 48.5406 68.2197 48.0986 68.469C47.6566 68.7183 47.2939 69.064 47.0106 69.506C46.7386 69.948 46.5799 70.458 46.5346 71.036ZM55.6775 63.59H57.1735V73.705C57.1735 74.1923 57.2415 74.4927 57.3775 74.606C57.5135 74.7193 57.6779 74.776 57.8705 74.776C58.1085 74.776 58.3352 74.7533 58.5505 74.708C58.7659 74.6513 58.9472 74.5947 59.0945 74.538L59.3325 75.762C59.0832 75.864 58.7885 75.949 58.4485 76.017C58.1085 76.085 57.8082 76.119 57.5475 76.119C56.9695 76.119 56.5105 75.9547 56.1705 75.626C55.8419 75.2973 55.6775 74.8383 55.6775 74.249V63.59ZM66.7638 76L63.6868 71.682L62.0038 73.263V76H60.5078V63.59H62.0038V71.699L66.5938 67.143H68.2088L64.6728 70.815L68.3788 76H66.7638ZM73.083 76.17C72.4143 76.17 71.808 76.051 71.264 75.813C70.72 75.5637 70.2497 75.2293 69.853 74.81C69.4563 74.3793 69.1503 73.8863 68.935 73.331C68.7197 72.7757 68.612 72.192 68.612 71.58C68.612 70.9567 68.7197 70.3673 68.935 69.812C69.1503 69.2567 69.4563 68.7693 69.853 68.35C70.2497 67.9193 70.72 67.585 71.264 67.347C71.8193 67.0977 72.4257 66.973 73.083 66.973C73.7517 66.973 74.358 67.0977 74.902 67.347C75.446 67.585 75.9163 67.9193 76.313 68.35C76.721 68.7693 77.0327 69.2567 77.248 69.812C77.4633 70.3673 77.571 70.9567 77.571 71.58C77.571 72.192 77.4633 72.7757 77.248 73.331C77.0327 73.8863 76.7267 74.3793 76.33 74.81C75.9333 75.2293 75.4573 75.5637 74.902 75.813C74.358 76.051 73.7517 76.17 73.083 76.17ZM70.142 71.597C70.142 72.209 70.2723 72.7643 70.533 73.263C70.805 73.7617 71.162 74.1583 71.604 74.453C72.046 74.7363 72.539 74.878 73.083 74.878C73.627 74.878 74.12 74.7307 74.562 74.436C75.0153 74.1413 75.3723 73.7447 75.633 73.246C75.905 72.736 76.041 72.175 76.041 71.563C76.041 70.951 75.905 70.3957 75.633 69.897C75.3723 69.3983 75.0153 69.0017 74.562 68.707C74.12 68.4123 73.627 68.265 73.083 68.265C72.539 68.265 72.046 68.418 71.604 68.724C71.162 69.0187 70.805 69.4153 70.533 69.914C70.2723 70.4127 70.142 70.9737 70.142 71.597ZM92.7628 76H91.2668V71.036C91.2668 70.1067 91.1138 69.421 90.8078 68.979C90.5131 68.537 90.0711 68.316 89.4818 68.316C88.8811 68.316 88.3371 68.537 87.8498 68.979C87.3624 69.4097 87.0168 69.9707 86.8128 70.662V76H85.3168V71.036C85.3168 70.0953 85.1694 69.4097 84.8748 68.979C84.5801 68.537 84.1381 68.316 83.5488 68.316C82.9594 68.316 82.4154 68.5313 81.9168 68.962C81.4294 69.3813 81.0838 69.9423 80.8798 70.645V76H79.3838V67.126H80.7438V69.03C81.1064 68.3727 81.5768 67.8683 82.1548 67.517C82.7328 67.1543 83.3844 66.973 84.1098 66.973C84.8464 66.973 85.4358 67.177 85.8778 67.585C86.3198 67.9817 86.5918 68.4973 86.6938 69.132C87.0904 68.4293 87.5721 67.8967 88.1388 67.534C88.7054 67.16 89.3514 66.973 90.0768 66.973C90.5868 66.973 91.0118 67.0693 91.3518 67.262C91.7031 67.4433 91.9808 67.704 92.1848 68.044C92.3888 68.3727 92.5361 68.7637 92.6268 69.217C92.7174 69.6703 92.7628 70.1633 92.7628 70.696V76ZM108.468 76H106.972V71.036C106.972 70.1067 106.819 69.421 106.513 68.979C106.218 68.537 105.776 68.316 105.187 68.316C104.586 68.316 104.042 68.537 103.555 68.979C103.068 69.4097 102.722 69.9707 102.518 70.662V76H101.022V71.036C101.022 70.0953 100.875 69.4097 100.58 68.979C100.285 68.537 99.8432 68.316 99.2538 68.316C98.6645 68.316 98.1205 68.5313 97.6218 68.962C97.1345 69.3813 96.7888 69.9423 96.5848 70.645V76H95.0888V67.126H96.4488V69.03C96.8115 68.3727 97.2818 67.8683 97.8598 67.517C98.4378 67.1543 99.0895 66.973 99.8148 66.973C100.552 66.973 101.141 67.177 101.583 67.585C102.025 67.9817 102.297 68.4973 102.399 69.132C102.796 68.4293 103.277 67.8967 103.844 67.534C104.411 67.16 105.057 66.973 105.782 66.973C106.292 66.973 106.717 67.0693 107.057 67.262C107.408 67.4433 107.686 67.704 107.89 68.044C108.094 68.3727 108.241 68.7637 108.332 69.217C108.423 69.6703 108.468 70.1633 108.468 70.696V76ZM114.721 76.17C114.052 76.17 113.44 76.051 112.885 75.813C112.341 75.5637 111.865 75.2293 111.457 74.81C111.06 74.3793 110.749 73.8863 110.522 73.331C110.307 72.7757 110.199 72.1863 110.199 71.563C110.199 70.7243 110.392 69.9593 110.777 69.268C111.162 68.5767 111.695 68.0213 112.375 67.602C113.066 67.1827 113.854 66.973 114.738 66.973C115.633 66.973 116.41 67.1883 117.067 67.619C117.736 68.0383 118.251 68.5937 118.614 69.285C118.988 69.965 119.175 70.7017 119.175 71.495C119.175 71.6083 119.169 71.7217 119.158 71.835C119.158 71.937 119.152 72.0163 119.141 72.073H111.78C111.825 72.651 111.984 73.1667 112.256 73.62C112.539 74.062 112.902 74.4133 113.344 74.674C113.786 74.9233 114.262 75.048 114.772 75.048C115.316 75.048 115.826 74.912 116.302 74.64C116.789 74.368 117.124 74.011 117.305 73.569L118.597 73.926C118.404 74.3567 118.115 74.742 117.73 75.082C117.356 75.422 116.908 75.6883 116.387 75.881C115.877 76.0737 115.322 76.17 114.721 76.17ZM111.729 71.036H117.781C117.736 70.458 117.571 69.948 117.288 69.506C117.005 69.064 116.642 68.7183 116.2 68.469C115.758 68.2197 115.271 68.095 114.738 68.095C114.217 68.095 113.735 68.2197 113.293 68.469C112.851 68.7183 112.488 69.064 112.205 69.506C111.933 69.948 111.774 70.458 111.729 71.036ZM128.539 76H127.043V71.036C127.043 70.0953 126.896 69.4097 126.601 68.979C126.318 68.537 125.881 68.316 125.292 68.316C124.884 68.316 124.476 68.418 124.068 68.622C123.671 68.826 123.314 69.1037 122.997 69.455C122.691 69.795 122.47 70.1917 122.334 70.645V76H120.838V67.126H122.198V69.03C122.436 68.6107 122.742 68.248 123.116 67.942C123.49 67.636 123.915 67.398 124.391 67.228C124.867 67.058 125.366 66.973 125.887 66.973C126.397 66.973 126.822 67.0693 127.162 67.262C127.513 67.4433 127.785 67.704 127.978 68.044C128.182 68.3727 128.324 68.7637 128.403 69.217C128.494 69.6703 128.539 70.1633 128.539 70.696V76ZM139.755 75.558C139.63 75.6147 139.46 75.6883 139.245 75.779C139.03 75.8697 138.78 75.949 138.497 76.017C138.214 76.085 137.913 76.119 137.596 76.119C137.233 76.119 136.899 76.0567 136.593 75.932C136.287 75.796 136.043 75.592 135.862 75.32C135.681 75.0367 135.59 74.6853 135.59 74.266V68.299H134.383V67.126H135.59V64.168H137.086V67.126H139.075V68.299H137.086V73.807C137.109 74.1243 137.216 74.3623 137.409 74.521C137.602 74.6683 137.828 74.742 138.089 74.742C138.384 74.742 138.656 74.691 138.905 74.589C139.154 74.487 139.319 74.4133 139.398 74.368L139.755 75.558ZM141.142 76V67.126H142.638V76H141.142ZM141.142 65.46V63.59H142.638V65.46H141.142ZM145.094 63.59H146.59V73.705C146.59 74.1923 146.658 74.4927 146.794 74.606C146.93 74.7193 147.094 74.776 147.287 74.776C147.525 74.776 147.751 74.7533 147.967 74.708C148.182 74.6513 148.363 74.5947 148.511 74.538L148.749 75.762C148.499 75.864 148.205 75.949 147.865 76.017C147.525 76.085 147.224 76.119 146.964 76.119C146.386 76.119 145.927 75.9547 145.587 75.626C145.258 75.2973 145.094 74.8383 145.094 74.249V63.59ZM153.131 71.58C153.131 70.7413 153.301 69.9763 153.641 69.285C153.992 68.5823 154.468 68.0213 155.069 67.602C155.681 67.1827 156.378 66.973 157.16 66.973C157.874 66.973 158.514 67.16 159.081 67.534C159.648 67.908 160.09 68.3613 160.407 68.894V63.59H161.903V74.3C161.903 74.4813 161.937 74.6173 162.005 74.708C162.084 74.7873 162.209 74.8327 162.379 74.844V76C162.096 76.0453 161.875 76.068 161.716 76.068C161.421 76.068 161.161 75.966 160.934 75.762C160.719 75.558 160.611 75.3313 160.611 75.082V74.334C160.26 74.9007 159.789 75.3483 159.2 75.677C158.611 76.0057 157.999 76.17 157.364 76.17C156.752 76.17 156.185 76.051 155.664 75.813C155.154 75.5637 154.706 75.2237 154.321 74.793C153.947 74.3623 153.652 73.875 153.437 73.331C153.233 72.7757 153.131 72.192 153.131 71.58ZM160.407 72.889V70.339C160.271 69.9537 160.05 69.608 159.744 69.302C159.438 68.9847 159.092 68.7353 158.707 68.554C158.333 68.3613 157.959 68.265 157.585 68.265C157.143 68.265 156.741 68.3613 156.378 68.554C156.027 68.7353 155.721 68.9847 155.46 69.302C155.211 69.608 155.018 69.9593 154.882 70.356C154.746 70.7527 154.678 71.1663 154.678 71.597C154.678 72.039 154.752 72.4583 154.899 72.855C155.058 73.2517 155.273 73.603 155.545 73.909C155.828 74.215 156.151 74.453 156.514 74.623C156.888 74.793 157.29 74.878 157.721 74.878C157.993 74.878 158.271 74.827 158.554 74.725C158.849 74.623 159.126 74.4813 159.387 74.3C159.648 74.1187 159.869 73.909 160.05 73.671C160.231 73.4217 160.35 73.161 160.407 72.889ZM164.4 76V67.126H165.896V76H164.4ZM164.4 65.46V63.59H165.896V65.46H164.4ZM176.019 76H174.523V71.036C174.523 70.0953 174.376 69.4097 174.081 68.979C173.798 68.537 173.362 68.316 172.772 68.316C172.364 68.316 171.956 68.418 171.548 68.622C171.152 68.826 170.795 69.1037 170.477 69.455C170.171 69.795 169.95 70.1917 169.814 70.645V76H168.318V67.126H169.678V69.03C169.916 68.6107 170.222 68.248 170.596 67.942C170.97 67.636 171.395 67.398 171.871 67.228C172.347 67.058 172.846 66.973 173.367 66.973C173.877 66.973 174.302 67.0693 174.642 67.262C174.994 67.4433 175.266 67.704 175.458 68.044C175.662 68.3727 175.804 68.7637 175.883 69.217C175.974 69.6703 176.019 70.1633 176.019 70.696V76ZM187.422 76.17C186.697 76.17 186.051 75.9887 185.484 75.626C184.918 75.2633 184.47 74.8043 184.141 74.249V79.621H182.645V67.126H183.971V68.792C184.323 68.248 184.782 67.8117 185.348 67.483C185.915 67.143 186.533 66.973 187.201 66.973C187.813 66.973 188.374 67.0977 188.884 67.347C189.394 67.5963 189.836 67.9363 190.21 68.367C190.584 68.7977 190.873 69.2907 191.077 69.846C191.293 70.39 191.4 70.9623 191.4 71.563C191.4 72.4017 191.23 73.1723 190.89 73.875C190.562 74.5777 190.097 75.1387 189.496 75.558C188.896 75.966 188.204 76.17 187.422 76.17ZM186.963 74.878C187.405 74.878 187.802 74.7873 188.153 74.606C188.516 74.4133 188.822 74.164 189.071 73.858C189.332 73.5407 189.53 73.1837 189.666 72.787C189.802 72.3903 189.87 71.9823 189.87 71.563C189.87 71.121 189.791 70.7017 189.632 70.305C189.485 69.9083 189.27 69.557 188.986 69.251C188.714 68.945 188.391 68.707 188.017 68.537C187.655 68.3557 187.258 68.265 186.827 68.265C186.555 68.265 186.272 68.316 185.977 68.418C185.694 68.52 185.422 68.6673 185.161 68.86C184.901 69.0413 184.68 69.251 184.498 69.489C184.317 69.727 184.198 69.982 184.141 70.254V72.787C184.311 73.1723 184.538 73.5237 184.821 73.841C185.105 74.1583 185.433 74.4133 185.807 74.606C186.181 74.7873 186.567 74.878 186.963 74.878ZM197.929 68.435C197.181 68.4463 196.518 68.639 195.94 69.013C195.374 69.3757 194.971 69.88 194.733 70.526V76H193.237V67.126H194.631V69.183C194.937 68.571 195.34 68.078 195.838 67.704C196.348 67.3187 196.881 67.1033 197.436 67.058C197.55 67.058 197.646 67.058 197.725 67.058C197.805 67.058 197.873 67.0637 197.929 67.075V68.435ZM203.073 76.17C202.405 76.17 201.798 76.051 201.254 75.813C200.71 75.5637 200.24 75.2293 199.843 74.81C199.447 74.3793 199.141 73.8863 198.925 73.331C198.71 72.7757 198.602 72.192 198.602 71.58C198.602 70.9567 198.71 70.3673 198.925 69.812C199.141 69.2567 199.447 68.7693 199.843 68.35C200.24 67.9193 200.71 67.585 201.254 67.347C201.81 67.0977 202.416 66.973 203.073 66.973C203.742 66.973 204.348 67.0977 204.892 67.347C205.436 67.585 205.907 67.9193 206.303 68.35C206.711 68.7693 207.023 69.2567 207.238 69.812C207.454 70.3673 207.561 70.9567 207.561 71.58C207.561 72.192 207.454 72.7757 207.238 73.331C207.023 73.8863 206.717 74.3793 206.32 74.81C205.924 75.2293 205.448 75.5637 204.892 75.813C204.348 76.051 203.742 76.17 203.073 76.17ZM200.132 71.597C200.132 72.209 200.263 72.7643 200.523 73.263C200.795 73.7617 201.152 74.1583 201.594 74.453C202.036 74.7363 202.529 74.878 203.073 74.878C203.617 74.878 204.11 74.7307 204.552 74.436C205.006 74.1413 205.363 73.7447 205.623 73.246C205.895 72.736 206.031 72.175 206.031 71.563C206.031 70.951 205.895 70.3957 205.623 69.897C205.363 69.3983 205.006 69.0017 204.552 68.707C204.11 68.4123 203.617 68.265 203.073 68.265C202.529 68.265 202.036 68.418 201.594 68.724C201.152 69.0187 200.795 69.4153 200.523 69.914C200.263 70.4127 200.132 70.9737 200.132 71.597ZM209.701 68.299H208.494V67.126H209.701V66.939C209.701 66.497 209.769 66.072 209.905 65.664C210.041 65.2447 210.245 64.865 210.517 64.525C210.789 64.185 211.129 63.9187 211.537 63.726C211.945 63.522 212.426 63.42 212.982 63.42C213.401 63.42 213.786 63.4653 214.138 63.556C214.489 63.6467 214.801 63.76 215.073 63.896C215.356 64.032 215.588 64.168 215.77 64.304L215.124 65.409C214.908 65.2163 214.614 65.052 214.24 64.916C213.877 64.78 213.486 64.712 213.067 64.712C212.636 64.712 212.279 64.8197 211.996 65.035C211.724 65.2503 211.52 65.528 211.384 65.868C211.259 66.1967 211.197 66.5367 211.197 66.888V67.126H215.736V76H214.24V68.299H211.197V76H209.701V68.299ZM218.19 63.59H219.686V73.705C219.686 74.1923 219.754 74.4927 219.89 74.606C220.026 74.7193 220.191 74.776 220.383 74.776C220.621 74.776 220.848 74.7533 221.063 74.708C221.279 74.6513 221.46 74.5947 221.607 74.538L221.845 75.762C221.596 75.864 221.301 75.949 220.961 76.017C220.621 76.085 220.321 76.119 220.06 76.119C219.482 76.119 219.023 75.9547 218.683 75.626C218.355 75.2973 218.19 74.8383 218.19 74.249V63.59Z" fill="white"/>
<path d="M47.42 27.8V42H44.68V35.94H38.24V42H35.48V27.8H38.24V33.54H44.68V27.8H47.42ZM54.8066 42.2C53.9666 42.2 53.2066 42.06 52.5266 41.78C51.8466 41.4867 51.2666 41.0933 50.7866 40.6C50.3066 40.0933 49.9332 39.52 49.6666 38.88C49.4132 38.2267 49.2866 37.54 49.2866 36.82C49.2866 35.82 49.5066 34.9067 49.9466 34.08C50.3999 33.2533 51.0399 32.5933 51.8666 32.1C52.7066 31.5933 53.6932 31.34 54.8266 31.34C55.9732 31.34 56.9532 31.5933 57.7666 32.1C58.5799 32.5933 59.1999 33.2533 59.6266 34.08C60.0666 34.8933 60.2866 35.7733 60.2866 36.72C60.2866 36.88 60.2799 37.0467 60.2666 37.22C60.2532 37.38 60.2399 37.5133 60.2266 37.62H52.1266C52.1799 38.1533 52.3332 38.62 52.5866 39.02C52.8532 39.42 53.1866 39.7267 53.5866 39.94C53.9999 40.14 54.4399 40.24 54.9066 40.24C55.4399 40.24 55.9399 40.1133 56.4066 39.86C56.8866 39.5933 57.2132 39.2467 57.3866 38.82L59.6866 39.46C59.4332 39.9933 59.0666 40.4667 58.5866 40.88C58.1199 41.2933 57.5666 41.62 56.9266 41.86C56.2866 42.0867 55.5799 42.2 54.8066 42.2ZM52.0666 35.92H57.5466C57.4932 35.3867 57.3399 34.9267 57.0866 34.54C56.8466 34.14 56.5266 33.8333 56.1266 33.62C55.7266 33.3933 55.2799 33.28 54.7866 33.28C54.3066 33.28 53.8666 33.3933 53.4666 33.62C53.0799 33.8333 52.7599 34.14 52.5066 34.54C52.2666 34.9267 52.1199 35.3867 52.0666 35.92ZM61.0592 45.92C60.5659 45.92 60.0926 45.84 59.6392 45.68C59.1859 45.5333 58.7726 45.3 58.3992 44.98L59.5592 43.16C59.7059 43.32 59.8859 43.4333 60.0992 43.5C60.3126 43.5667 60.5259 43.6 60.7392 43.6C60.9792 43.6 61.1926 43.54 61.3792 43.42C61.5792 43.3133 61.7326 43.16 61.8392 42.96C61.9592 42.76 62.0192 42.5333 62.0192 42.28V31.52H64.6992V42.08C64.6992 42.8267 64.5326 43.4933 64.1992 44.08C63.8792 44.6667 63.4459 45.12 62.8992 45.44C62.3659 45.76 61.7526 45.92 61.0592 45.92ZM62.0192 30.06V27.4H64.6992V30.06H62.0192ZM67.3741 44.3L67.9141 41.92H67.0741V39.12H69.3941V41.92L68.5741 44.3H67.3741ZM86.7072 39.58V42H76.8472V27.8H86.5272V30.22H79.6072V33.64H85.5872V35.88H79.6072V39.58H86.7072ZM104.82 42H102.14V36.12C102.14 35.2933 101.994 34.6867 101.7 34.3C101.42 33.9 101.027 33.7 100.52 33.7C100 33.7 99.5003 33.9067 99.0203 34.32C98.5536 34.72 98.2203 35.2467 98.0203 35.9V42H95.3403V36.12C95.3403 35.28 95.1936 34.6667 94.9003 34.28C94.6203 33.8933 94.227 33.7 93.7203 33.7C93.2003 33.7 92.7003 33.9 92.2203 34.3C91.7536 34.7 91.4203 35.2267 91.2203 35.88V42H88.5403V31.52H90.9603V33.46C91.3603 32.78 91.8936 32.26 92.5603 31.9C93.227 31.5267 93.9936 31.34 94.8603 31.34C95.727 31.34 96.4003 31.5533 96.8803 31.98C97.3736 32.4067 97.687 32.9333 97.8203 33.56C98.247 32.84 98.787 32.2933 99.4403 31.92C100.107 31.5333 100.854 31.34 101.68 31.34C102.334 31.34 102.86 31.46 103.26 31.7C103.674 31.9267 103.994 32.24 104.22 32.64C104.447 33.0267 104.6 33.4667 104.68 33.96C104.774 34.4533 104.82 34.9533 104.82 35.46V42ZM123.434 42H120.754V36.12C120.754 35.2933 120.607 34.6867 120.314 34.3C120.034 33.9 119.64 33.7 119.134 33.7C118.614 33.7 118.114 33.9067 117.634 34.32C117.167 34.72 116.834 35.2467 116.634 35.9V42H113.954V36.12C113.954 35.28 113.807 34.6667 113.514 34.28C113.234 33.8933 112.84 33.7 112.334 33.7C111.814 33.7 111.314 33.9 110.834 34.3C110.367 34.7 110.034 35.2267 109.834 35.88V42H107.154V31.52H109.574V33.46C109.974 32.78 110.507 32.26 111.174 31.9C111.84 31.5267 112.607 31.34 113.474 31.34C114.34 31.34 115.014 31.5533 115.494 31.98C115.987 32.4067 116.3 32.9333 116.434 33.56C116.86 32.84 117.4 32.2933 118.054 31.92C118.72 31.5333 119.467 31.34 120.294 31.34C120.947 31.34 121.474 31.46 121.874 31.7C122.287 31.9267 122.607 32.24 122.834 32.64C123.06 33.0267 123.214 33.4667 123.294 33.96C123.387 34.4533 123.434 34.9533 123.434 35.46V42ZM125.047 38.9C125.047 38.22 125.234 37.6267 125.607 37.12C125.994 36.6 126.527 36.2 127.207 35.92C127.887 35.64 128.667 35.5 129.547 35.5C129.987 35.5 130.434 35.5333 130.887 35.6C131.34 35.6667 131.734 35.7733 132.067 35.92V35.36C132.067 34.6933 131.867 34.18 131.467 33.82C131.08 33.46 130.5 33.28 129.727 33.28C129.154 33.28 128.607 33.38 128.087 33.58C127.567 33.78 127.02 34.0733 126.447 34.46L125.587 32.7C126.28 32.2467 126.987 31.9067 127.707 31.68C128.44 31.4533 129.207 31.34 130.007 31.34C131.5 31.34 132.66 31.7133 133.487 32.46C134.327 33.2067 134.747 34.2733 134.747 35.66V39C134.747 39.28 134.794 39.48 134.887 39.6C134.994 39.72 135.16 39.7933 135.387 39.82V42C135.147 42.04 134.927 42.0733 134.727 42.1C134.54 42.1267 134.38 42.14 134.247 42.14C133.714 42.14 133.307 42.02 133.027 41.78C132.76 41.54 132.594 41.2467 132.527 40.9L132.467 40.36C132.014 40.9467 131.447 41.4 130.767 41.72C130.087 42.04 129.394 42.2 128.687 42.2C127.994 42.2 127.367 42.06 126.807 41.78C126.26 41.4867 125.827 41.0933 125.507 40.6C125.2 40.0933 125.047 39.5267 125.047 38.9ZM131.567 39.44C131.714 39.28 131.834 39.12 131.927 38.96C132.02 38.8 132.067 38.6533 132.067 38.52V37.46C131.747 37.3267 131.4 37.2267 131.027 37.16C130.654 37.08 130.3 37.04 129.967 37.04C129.274 37.04 128.7 37.1933 128.247 37.5C127.807 37.7933 127.587 38.1867 127.587 38.68C127.587 38.9467 127.66 39.2 127.807 39.44C127.954 39.68 128.167 39.8733 128.447 40.02C128.727 40.1667 129.06 40.24 129.447 40.24C129.847 40.24 130.24 40.1667 130.627 40.02C131.014 39.86 131.327 39.6667 131.567 39.44ZM137.771 36.66V27.66H140.451V36.66H137.771ZM137.771 42V38.98H140.451V42H137.771Z" fill="white"/>
<path d="M312.59 67.4014C310.535 68.7683 308.277 69.8394 305.897 70.533C297.725 72.8894 288.44 70.686 282.07 65.0042C275.701 59.3326 272.39 50.4069 273.342 41.8995C274.435 32.0455 281.21 22.4364 290.769 19.4476C291.376 19.2537 292.004 19.1007 292.632 18.9579C293.219 18.8253 293.827 18.6213 294.424 18.5907C294.9 18.5601 295.244 18.9987 295.558 19.3149C296.48 20.2534 297.715 20.9471 299.021 20.9267C299.862 20.9267 300.662 20.6104 301.381 20.182C301.755 19.9576 302.11 19.6924 302.444 19.417C302.738 19.1823 302.991 18.8355 303.406 18.8661C318.453 19.774 326.939 37.9008 323.81 51.325C322.291 57.8637 318.139 63.7291 312.6 67.4116L312.59 67.4014Z" fill="#EDF3E6"/>
<path d="M320.033 24.9764C315.932 20.0494 310.514 16.775 304.003 15.5305C303.882 15.7141 303.578 16.5607 303.831 16.6219L305.158 16.9688C321.025 21.1103 329.399 38.166 324.559 53.4161C320.499 66.2181 308.297 75.0316 294.586 72.8486C284.865 71.2981 277.423 64.6574 273.402 55.7827C271.073 49.7439 270.527 43.3888 272.208 37.1255C274.871 27.6796 282.263 19.6414 292.47 16.979L293.796 16.6321C294.049 16.5607 293.746 15.7243 293.624 15.5407C287.113 16.7852 281.696 20.0596 277.595 24.9866C274.223 28.6385 272.005 32.8616 270.932 37.3295C269.241 43.858 269.899 50.6823 272.522 56.7518C276.936 66.973 286.313 73.9707 297.492 74.4909C310.494 75.0928 321.4 66.7077 325.511 54.5892C328.964 44.3884 327.03 33.4022 320.033 24.9866V24.9764Z" fill="#5C8843"/>
<path d="M298.049 13.0925C299.356 12.6844 300.986 13.6943 301.411 14.796C301.938 16.1731 301.138 17.9582 300.054 18.3969C298.414 19.0701 296.642 18.2643 296.237 17.0402C295.72 15.4795 296.318 13.6229 298.049 13.0925Z" fill="#5C8843" stroke="#5C8843" stroke-width="0.5" stroke-miterlimit="10"/>
<path d="M299.548 60.4139C299.609 59.4958 299.528 58.5369 299.518 57.6188C299.518 56.9354 299.507 56.2417 299.497 55.5583L302.343 53.6303L304.348 53.5997C308.398 53.0795 311.345 49.5704 311.426 45.5105C311.497 42.2973 309.947 39.6451 307.264 38.1456C307.072 33.0758 302.96 29.1791 298.009 29.6993C294.303 30.087 291.275 32.882 290.667 36.4828L290.384 38.166L289.037 39.1248C285.321 42.3585 285.23 48.2749 288.885 51.58C290.738 53.2631 292.986 53.9466 295.406 53.5487L297.057 54.8442L298.232 55.5685C298.232 55.5685 298.211 60.3731 298.211 60.4037C298.211 60.3628 299.264 60.3935 299.356 60.4037C299.416 60.4037 299.487 60.4037 299.548 60.4343V60.4139ZM303.203 44.7761C303.031 44.572 302.728 44.4496 302.464 44.5414C302.333 44.5925 302.211 44.6741 302.1 44.7761C301.614 45.2555 301.158 45.7757 300.672 46.2552C300.388 46.5306 300.105 46.806 299.831 47.0712C299.781 47.1222 299.467 47.3569 299.467 47.4283C299.437 45.5819 299.406 43.7458 299.376 41.8994C299.376 41.318 299.416 40.6243 298.849 40.2571C298.819 40.2367 298.799 40.2265 298.768 40.2265C298.738 40.2265 298.708 40.2265 298.687 40.2469C298.039 40.5529 298.252 41.6036 298.242 42.1749C298.242 43.2153 298.232 44.2558 298.221 45.2861V46.8774C298.221 46.959 298.14 47.4589 298.211 47.5201C297.806 47.1324 297.401 46.7346 296.996 46.347C296.692 46.0614 296.399 45.7655 296.095 45.4799C295.771 45.1739 295.457 44.7353 294.991 44.6537C294.91 44.6435 294.809 44.6435 294.738 44.6945C294.637 44.7659 294.617 44.8883 294.596 45.0107C294.576 45.1739 294.556 45.3371 294.627 45.4799C294.667 45.5513 294.728 45.6125 294.789 45.6737C295.741 46.6122 296.692 47.5609 297.644 48.5095C298.019 48.887 298.302 49.448 298.292 49.8458L298.232 54.0894C296.622 53.7731 296.186 52.2634 295.012 52.3858C292.774 52.6205 290.678 51.8656 289.29 50.3559C286.313 47.1324 286.87 42.4401 290.009 39.7471L291.538 38.8494L291.67 36.8195C292.46 32.9738 296.065 30.2196 300.014 30.8112C303.912 31.5661 306.413 34.9119 306.15 38.88C308.003 39.5227 309.087 40.7876 309.796 42.5217C311.406 46.449 309.299 51.0597 305.117 52.2838C304.368 52.5082 303.102 52.3858 302.414 52.3756C302.1 52.3756 301.624 52.7735 301.32 52.9775L299.518 54.171L299.487 50.4273C299.487 50.4273 299.528 49.0706 299.538 49.0706C300.024 48.5504 300.5 48.0403 300.986 47.5201C301.755 46.704 302.545 45.8982 303.224 45.0005C303.254 44.9597 303.295 44.9087 303.284 44.8577C303.284 44.8067 303.254 44.7659 303.224 44.7353L303.203 44.7761Z" fill="#3D763C"/>
<defs>
<linearGradient id="paint0_linear_704_5181" x1="181" y1="0" x2="181" y2="149" gradientUnits="userSpaceOnUse">
<stop stop-color="#BCBCBC"/>
<stop offset="1" stop-color="#005F96"/>
</linearGradient>
</defs>
</svg>
