<svg width="69" height="69" viewBox="0 0 69 69" fill="none" xmlns="http://www.w3.org/2000/svg">
<rect width="68.293" height="68.293" rx="17.9718" fill="white"/>
<path d="M47.1951 28.9294H34.3426C33.438 28.9321 32.5714 29.2929 31.9323 29.9331C31.2933 30.5732 30.9338 31.4404 30.9326 32.3449V40.3191L25.3301 34.8029C25.0961 34.5722 24.7807 34.4429 24.4522 34.4429C24.1236 34.4429 23.8083 34.5722 23.5743 34.8029L14.5684 43.686C14.3922 43.8599 14.2715 44.0822 14.2218 44.3248C14.172 44.5674 14.1954 44.8193 14.289 45.0485C14.3825 45.2778 14.542 45.4741 14.7473 45.6126C14.9526 45.7511 15.1943 45.8256 15.4419 45.8266H16.8793V56.8437C16.8799 57.316 17.0675 57.7689 17.4011 58.1033C17.7347 58.4378 18.1871 58.6265 18.6595 58.6282H48.826C49.0606 58.6285 49.2929 58.5826 49.5098 58.4931C49.7266 58.4035 49.9237 58.2721 50.0897 58.1064C50.2557 57.9407 50.3875 57.7439 50.4774 57.5272C50.5674 57.3105 50.6137 57.0783 50.6139 56.8437V32.3449C50.613 31.4388 50.2524 30.57 49.6114 29.9296C48.9703 29.2892 48.1012 28.9294 47.1951 28.9294ZM30.9326 56.7486H27.254V53.0545C27.2537 52.7746 27.1423 52.5063 26.9443 52.3085C26.7463 52.1107 26.4779 51.9996 26.1981 51.9996H23.488C23.2083 51.9996 22.94 52.1108 22.7421 52.3086C22.5443 52.5064 22.4332 52.7747 22.4332 53.0545V56.7486H18.759V45.8266H30.9326V56.7486ZM48.7342 56.7486H43.1837V53.0545C43.1834 52.7746 43.072 52.5063 42.874 52.3085C42.676 52.1107 42.4076 51.9996 42.1277 51.9996H39.4188C39.2802 51.9995 39.1429 52.0267 39.0148 52.0796C38.8867 52.1326 38.7703 52.2102 38.6722 52.3082C38.5741 52.4062 38.4963 52.5225 38.4433 52.6505C38.3902 52.7786 38.3629 52.9159 38.3629 53.0545V56.7486H32.8123V32.3449C32.8126 31.9377 32.9745 31.5472 33.2624 31.2593C33.5504 30.9713 33.9409 30.8094 34.3481 30.8091H47.1951C47.397 30.8088 47.597 30.8483 47.7837 30.9254C47.9703 31.0024 48.14 31.1155 48.2829 31.2581C48.4258 31.4007 48.5393 31.5701 48.6167 31.7566C48.6941 31.9431 48.7341 32.143 48.7342 32.3449V56.7486Z" fill="#12761C"/>
<path d="M39.0379 34.438H36.4716C36.1742 34.438 35.9331 34.6791 35.9331 34.9765V38.6263C35.9331 38.9237 36.1742 39.1648 36.4716 39.1648H39.0379C39.3353 39.1648 39.5764 38.9237 39.5764 38.6263V34.9765C39.5764 34.6791 39.3353 34.438 39.0379 34.438Z" fill="#12761C"/>
<path d="M45.0657 34.438H42.4994C42.202 34.438 41.9609 34.6791 41.9609 34.9765V38.6263C41.9609 38.9237 42.202 39.1648 42.4994 39.1648H45.0657C45.3631 39.1648 45.6042 38.9237 45.6042 38.6263V34.9765C45.6042 34.6791 45.3631 34.438 45.0657 34.438Z" fill="#12761C"/>
<path d="M39.0379 41.0997H36.4716C36.1742 41.0997 35.9331 41.3408 35.9331 41.6382V45.2881C35.9331 45.5855 36.1742 45.8266 36.4716 45.8266H39.0379C39.3353 45.8266 39.5764 45.5855 39.5764 45.2881V41.6382C39.5764 41.3408 39.3353 41.0997 39.0379 41.0997Z" fill="#12761C"/>
<path d="M45.0657 41.0997H42.4994C42.202 41.0997 41.9609 41.3408 41.9609 41.6382V45.2881C41.9609 45.5855 42.202 45.8266 42.4994 45.8266H45.0657C45.3631 45.8266 45.6042 45.5855 45.6042 45.2881V41.6382C45.6042 41.3408 45.3631 41.0997 45.0657 41.0997Z" fill="#12761C"/>
<path d="M32.9294 25.0893C33.0333 25.0893 35.0003 25.0893 35.2823 25.0728C38.6115 24.9246 41.2121 23.8996 43.0221 22.0211C45.6758 19.2734 45.9035 15.4168 45.8062 13.3624C45.7773 12.7031 45.5024 12.0786 45.0358 11.6119C44.5691 11.1453 43.9446 10.8704 43.2853 10.8414C41.2298 10.7441 37.3743 10.9752 34.6266 13.6245C34.3414 13.9008 34.0754 14.1964 33.8305 14.509C33.5856 14.1964 33.3196 13.9008 33.0344 13.6245C30.2868 10.9708 26.4302 10.7497 24.3758 10.8414C23.7165 10.8704 23.0919 11.1453 22.6253 11.6119C22.1587 12.0786 21.8838 12.7031 21.8548 13.3624C21.7575 15.4168 21.9886 19.2723 24.6378 22.0211C26.5496 24.0025 29.3359 25.033 32.9294 25.0893ZM36.0087 15.0574C37.9658 13.1711 40.7278 12.814 42.5389 12.814C42.7733 12.814 42.9923 12.8195 43.1913 12.8295C43.356 12.8381 43.5116 12.9078 43.6277 13.0249C43.7438 13.1421 43.8121 13.2983 43.8193 13.463C43.9011 15.1968 43.722 18.4386 41.5903 20.65C40.2955 21.9934 38.4302 22.7906 36.0386 23.0317C36.0805 22.8454 36.1027 22.6553 36.1049 22.4644C36.1304 20.0894 35.7478 18.0505 34.965 16.3655C35.2577 15.8881 35.6082 15.4488 36.0087 15.0574ZM23.8439 13.463C23.8525 13.2992 23.9214 13.1444 24.0374 13.0284C24.1533 12.9124 24.3082 12.8435 24.472 12.835C26.2046 12.7521 29.4476 12.9323 31.659 15.063C33.1516 16.5004 33.9698 18.6399 34.1003 21.424C33.2297 20.1521 31.9885 19.1793 30.5455 18.6377L29.9319 20.493C30.027 20.5262 31.8724 21.1763 32.8133 23.1013C29.8478 23.0283 27.5801 22.2035 26.0774 20.6456C23.9412 18.4298 23.761 15.1912 23.8439 13.463Z" fill="#12761C"/>
</svg>
