<svg width="541" height="280" viewBox="0 0 541 280" fill="none" xmlns="http://www.w3.org/2000/svg">
<rect width="540.451" height="279.483" rx="44.0824" fill="url(#paint0_linear_645_1700)" fill-opacity="0.4"/>
<path d="M49.9652 230.569V232.318H40.6268V230.569H44.4355V214.177C44.2662 214.403 44.0123 214.657 43.6738 214.939C43.354 215.202 42.9779 215.465 42.5453 215.729C42.1127 215.973 41.6707 216.18 41.2193 216.349C40.7679 216.519 40.3541 216.603 39.9779 216.603V214.798C40.4857 214.798 40.9936 214.666 41.5014 214.403C42.0092 214.121 42.4794 213.81 42.912 213.472C43.3634 213.114 43.7208 212.795 43.9841 212.512C44.2662 212.211 44.4167 212.052 44.4355 212.033H46.3822V230.569H49.9652ZM58.5706 232.572C57.3856 232.572 56.3135 232.374 55.3543 231.979C54.3951 231.584 53.6145 231.039 53.0126 230.343C52.4108 229.647 52.0346 228.838 51.8841 227.917L53.0691 226.844C53.1067 227.484 53.3606 228.114 53.8308 228.735C54.301 229.337 54.9405 229.826 55.7493 230.202C56.5769 230.578 57.5173 230.766 58.5706 230.766C59.511 230.766 60.3574 230.606 61.1097 230.286C61.8809 229.948 62.4827 229.496 62.9153 228.932C63.3667 228.349 63.5924 227.672 63.5924 226.901C63.5924 226.073 63.3291 225.368 62.8025 224.785C62.2758 224.183 61.5329 223.722 60.5737 223.403C59.6144 223.083 58.4765 222.923 57.1599 222.923H56.2007V221.258H57.1599C58.9843 221.258 60.4232 220.957 61.4765 220.356C62.5297 219.754 63.0564 218.851 63.0564 217.647C63.0564 216.857 62.8401 216.171 62.4075 215.588C61.9937 215.005 61.4294 214.553 60.7147 214.233C60.0188 213.914 59.2571 213.754 58.4295 213.754C57.1881 213.754 56.1254 214.026 55.2414 214.572C54.3574 215.117 53.7368 215.794 53.3794 216.603L52.0534 215.305C52.4108 214.628 52.9092 214.045 53.5487 213.556C54.207 213.067 54.9499 212.691 55.7775 212.428C56.6239 212.164 57.4985 212.033 58.4013 212.033C59.6803 212.033 60.8182 212.277 61.815 212.766C62.8307 213.255 63.6206 213.914 64.1849 214.741C64.768 215.569 65.0595 216.519 65.0595 217.591C65.0595 218.343 64.909 219.02 64.6081 219.622C64.3071 220.205 63.8651 220.703 63.2821 221.117C62.699 221.512 61.9843 221.813 61.1379 222.02C62.0219 222.189 62.7931 222.519 63.4514 223.008C64.1285 223.497 64.6457 224.098 65.0031 224.813C65.3792 225.509 65.5673 226.28 65.5673 227.127C65.5673 228.255 65.2382 229.224 64.5799 230.033C63.9404 230.841 63.094 231.471 62.0407 231.923C60.9874 232.355 59.8307 232.572 58.5706 232.572ZM78.6858 214.064H67.8803V212.287H81.7328L71.5762 232.318H69.432L78.6858 214.064ZM97.2137 225.716C97.2137 226.976 96.8939 228.133 96.2544 229.186C95.6337 230.221 94.7874 231.048 93.7153 231.669C92.6432 232.29 91.4394 232.6 90.104 232.6C88.7122 232.6 87.4709 232.271 86.38 231.612C85.3079 230.935 84.4615 229.967 83.8408 228.707C83.2201 227.446 82.9098 225.951 82.9098 224.221C82.9098 221.493 83.2201 219.246 83.8408 217.478C84.4615 215.691 85.3267 214.356 86.4364 213.472C87.5461 212.588 88.8345 212.146 90.3015 212.146C91.6369 212.146 92.8313 212.484 93.8846 213.161C94.9378 213.82 95.7372 214.722 96.2826 215.87L95.0413 216.998C94.6463 216.039 94.0162 215.277 93.151 214.713C92.3046 214.13 91.3548 213.838 90.3015 213.838C89.1918 213.838 88.2232 214.186 87.3956 214.882C86.568 215.578 85.9192 216.575 85.4489 217.873C84.9975 219.171 84.7718 220.741 84.7718 222.584C85.054 221.851 85.4677 221.211 86.0132 220.666C86.5586 220.12 87.1981 219.697 87.9317 219.396C88.684 219.095 89.4834 218.945 90.3297 218.945C91.6087 218.945 92.7654 219.246 93.7999 219.848C94.8532 220.45 95.6808 221.268 96.2826 222.302C96.9033 223.318 97.2137 224.456 97.2137 225.716ZM90.1605 230.907C91.1009 230.907 91.9661 230.672 92.756 230.202C93.546 229.732 94.1761 229.101 94.6463 228.312C95.1353 227.522 95.3798 226.656 95.3798 225.716C95.3798 224.776 95.1353 223.91 94.6463 223.12C94.1761 222.33 93.546 221.7 92.756 221.23C91.9661 220.76 91.1009 220.525 90.1605 220.525C89.2012 220.525 88.3172 220.76 87.5085 221.23C86.7185 221.7 86.0884 222.33 85.6182 223.12C85.148 223.892 84.9129 224.757 84.9129 225.716C84.9129 226.656 85.148 227.522 85.6182 228.312C86.1072 229.101 86.7467 229.732 87.5367 230.202C88.3266 230.672 89.2012 230.907 90.1605 230.907ZM114.693 212.287L101.376 232.318H99.2038L112.52 212.287H114.693ZM126.641 230.569V232.318H117.303V230.569H121.111V214.177C120.942 214.403 120.688 214.657 120.35 214.939C120.03 215.202 119.654 215.465 119.221 215.729C118.789 215.973 118.347 216.18 117.895 216.349C117.444 216.519 117.03 216.603 116.654 216.603V214.798C117.162 214.798 117.669 214.666 118.177 214.403C118.685 214.121 119.155 213.81 119.588 213.472C120.039 213.114 120.397 212.795 120.66 212.512C120.942 212.211 121.093 212.052 121.111 212.033H123.058V230.569H126.641ZM134.767 232.6C133.337 232.6 132.049 232.252 130.902 231.556C129.773 230.841 128.917 229.901 128.334 228.735L129.632 227.775C130.14 228.697 130.855 229.44 131.776 230.004C132.698 230.569 133.704 230.851 134.795 230.851C135.735 230.851 136.572 230.644 137.306 230.23C138.058 229.816 138.651 229.252 139.083 228.537C139.535 227.804 139.76 226.957 139.76 225.998C139.76 225.076 139.544 224.268 139.112 223.572C138.679 222.857 138.105 222.302 137.391 221.907C136.676 221.493 135.867 221.287 134.964 221.287C134.099 221.287 133.272 221.484 132.482 221.879C131.692 222.274 131.052 222.829 130.563 223.544H128.758L131.015 212.287H140.692V214.064H132.453L131.043 221.258C131.532 220.732 132.134 220.327 132.848 220.045C133.582 219.744 134.362 219.594 135.19 219.594C136.413 219.594 137.513 219.867 138.491 220.412C139.488 220.957 140.268 221.71 140.833 222.669C141.416 223.609 141.707 224.71 141.707 225.97C141.707 227.268 141.397 228.424 140.776 229.44C140.155 230.437 139.318 231.217 138.265 231.782C137.231 232.327 136.065 232.6 134.767 232.6ZM152.531 232.6C151.177 232.562 149.983 232.233 148.948 231.612C147.914 230.992 147.049 230.183 146.353 229.186C145.657 228.17 145.13 227.08 144.773 225.913C144.416 224.729 144.237 223.572 144.237 222.443C144.237 221.24 144.425 220.036 144.801 218.832C145.196 217.628 145.751 216.537 146.466 215.559C147.199 214.563 148.074 213.773 149.089 213.189C150.105 212.588 151.252 212.287 152.531 212.287C153.904 212.287 155.099 212.606 156.114 213.246C157.149 213.885 158.014 214.713 158.71 215.729C159.406 216.744 159.923 217.845 160.262 219.03C160.619 220.214 160.798 221.352 160.798 222.443C160.798 223.666 160.6 224.879 160.205 226.083C159.829 227.268 159.284 228.349 158.569 229.327C157.854 230.305 156.98 231.095 155.945 231.697C154.929 232.28 153.792 232.581 152.531 232.6ZM146.24 222.443C146.278 223.421 146.428 224.409 146.691 225.406C146.973 226.384 147.378 227.286 147.904 228.114C148.431 228.923 149.071 229.581 149.823 230.089C150.594 230.578 151.497 230.822 152.531 230.822C153.585 230.822 154.506 230.559 155.296 230.033C156.086 229.506 156.735 228.819 157.243 227.973C157.77 227.108 158.165 226.196 158.428 225.236C158.691 224.258 158.823 223.327 158.823 222.443C158.823 221.465 158.682 220.487 158.4 219.509C158.118 218.512 157.704 217.609 157.158 216.801C156.613 215.973 155.955 215.315 155.183 214.826C154.412 214.318 153.528 214.064 152.531 214.064C151.459 214.064 150.528 214.337 149.738 214.882C148.948 215.409 148.29 216.095 147.763 216.942C147.256 217.788 146.87 218.7 146.607 219.678C146.362 220.638 146.24 221.559 146.24 222.443ZM171.817 232.6C170.463 232.562 169.269 232.233 168.234 231.612C167.2 230.992 166.335 230.183 165.639 229.186C164.943 228.17 164.416 227.08 164.059 225.913C163.702 224.729 163.523 223.572 163.523 222.443C163.523 221.24 163.711 220.036 164.087 218.832C164.482 217.628 165.037 216.537 165.752 215.559C166.485 214.563 167.36 213.773 168.375 213.189C169.391 212.588 170.538 212.287 171.817 212.287C173.19 212.287 174.385 212.606 175.4 213.246C176.435 213.885 177.3 214.713 177.996 215.729C178.692 216.744 179.209 217.845 179.548 219.03C179.905 220.214 180.084 221.352 180.084 222.443C180.084 223.666 179.886 224.879 179.491 226.083C179.115 227.268 178.57 228.349 177.855 229.327C177.14 230.305 176.266 231.095 175.231 231.697C174.216 232.28 173.078 232.581 171.817 232.6ZM165.526 222.443C165.564 223.421 165.714 224.409 165.977 225.406C166.26 226.384 166.664 227.286 167.191 228.114C167.717 228.923 168.357 229.581 169.109 230.089C169.88 230.578 170.783 230.822 171.817 230.822C172.871 230.822 173.792 230.559 174.582 230.033C175.372 229.506 176.021 228.819 176.529 227.973C177.056 227.108 177.451 226.196 177.714 225.236C177.977 224.258 178.109 223.327 178.109 222.443C178.109 221.465 177.968 220.487 177.686 219.509C177.404 218.512 176.99 217.609 176.444 216.801C175.899 215.973 175.241 215.315 174.469 214.826C173.698 214.318 172.814 214.064 171.817 214.064C170.745 214.064 169.814 214.337 169.024 214.882C168.234 215.409 167.576 216.095 167.049 216.942C166.542 217.788 166.156 218.7 165.893 219.678C165.648 220.638 165.526 221.559 165.526 222.443ZM198.266 232.6C197.044 232.6 195.943 232.28 194.965 231.641C194.006 231.001 193.244 230.211 192.68 229.271V238.327H190.762V217.619H192.483V220.468C193.066 219.547 193.846 218.804 194.824 218.24C195.802 217.657 196.846 217.365 197.956 217.365C198.972 217.365 199.903 217.581 200.749 218.014C201.595 218.428 202.329 218.992 202.95 219.707C203.57 220.421 204.05 221.24 204.388 222.161C204.746 223.064 204.924 224.004 204.924 224.982C204.924 226.355 204.642 227.625 204.078 228.791C203.533 229.938 202.761 230.86 201.765 231.556C200.768 232.252 199.602 232.6 198.266 232.6ZM197.73 230.907C198.539 230.907 199.263 230.747 199.903 230.427C200.542 230.089 201.088 229.638 201.539 229.073C202.009 228.509 202.367 227.879 202.611 227.183C202.856 226.468 202.978 225.735 202.978 224.982C202.978 224.192 202.837 223.44 202.555 222.725C202.291 222.011 201.906 221.381 201.398 220.835C200.89 220.29 200.307 219.857 199.649 219.537C198.99 219.218 198.276 219.058 197.505 219.058C197.015 219.058 196.508 219.152 195.981 219.34C195.454 219.528 194.947 219.801 194.458 220.158C193.987 220.497 193.592 220.882 193.273 221.315C192.953 221.747 192.755 222.208 192.68 222.697V227.211C192.981 227.907 193.385 228.537 193.893 229.101C194.401 229.647 194.984 230.089 195.642 230.427C196.32 230.747 197.015 230.907 197.73 230.907ZM214.437 232.6C213.384 232.6 212.406 232.402 211.503 232.007C210.619 231.594 209.848 231.039 209.19 230.343C208.55 229.628 208.052 228.819 207.695 227.917C207.337 226.995 207.159 226.026 207.159 225.011C207.159 223.957 207.337 222.979 207.695 222.077C208.052 221.155 208.56 220.346 209.218 219.65C209.876 218.935 210.648 218.381 211.532 217.986C212.434 217.572 213.412 217.365 214.466 217.365C215.519 217.365 216.488 217.572 217.372 217.986C218.256 218.381 219.027 218.935 219.685 219.65C220.343 220.346 220.851 221.155 221.209 222.077C221.566 222.979 221.745 223.957 221.745 225.011C221.745 226.026 221.566 226.995 221.209 227.917C220.851 228.819 220.343 229.628 219.685 230.343C219.046 231.039 218.274 231.594 217.372 232.007C216.488 232.402 215.51 232.6 214.437 232.6ZM209.105 225.039C209.105 226.13 209.34 227.127 209.811 228.029C210.3 228.913 210.948 229.619 211.757 230.145C212.566 230.653 213.459 230.907 214.437 230.907C215.415 230.907 216.309 230.644 217.118 230.117C217.926 229.591 218.575 228.876 219.064 227.973C219.553 227.051 219.798 226.055 219.798 224.982C219.798 223.892 219.553 222.895 219.064 221.992C218.575 221.089 217.926 220.374 217.118 219.848C216.309 219.321 215.415 219.058 214.437 219.058C213.459 219.058 212.566 219.33 211.757 219.876C210.967 220.421 210.328 221.145 209.839 222.048C209.35 222.932 209.105 223.929 209.105 225.039ZM224.953 232.318V217.619H226.872V232.318H224.953ZM224.953 214.544V211.722H226.872V214.544H224.953ZM243.454 232.318H241.536V224.108C241.536 222.377 241.282 221.117 240.774 220.327C240.266 219.519 239.467 219.114 238.376 219.114C237.624 219.114 236.881 219.302 236.147 219.678C235.414 220.036 234.765 220.534 234.2 221.174C233.655 221.794 233.26 222.509 233.016 223.318V232.318H231.097V217.619H232.846V220.948C233.241 220.233 233.758 219.613 234.398 219.086C235.037 218.541 235.762 218.117 236.57 217.816C237.379 217.515 238.216 217.365 239.081 217.365C239.89 217.365 240.577 217.515 241.141 217.816C241.705 218.117 242.156 218.55 242.495 219.114C242.834 219.66 243.078 220.327 243.229 221.117C243.379 221.888 243.454 222.754 243.454 223.713V232.318ZM254.461 231.612C254.31 231.669 254.075 231.772 253.755 231.923C253.436 232.073 253.05 232.205 252.599 232.318C252.147 232.431 251.658 232.487 251.132 232.487C250.586 232.487 250.069 232.384 249.58 232.177C249.11 231.97 248.734 231.659 248.451 231.246C248.169 230.813 248.028 230.286 248.028 229.666V219.142H245.997V217.619H248.028V212.653H249.947V217.619H253.332V219.142H249.947V229.13C249.984 229.656 250.172 230.051 250.511 230.315C250.868 230.578 251.273 230.71 251.724 230.71C252.251 230.71 252.73 230.625 253.163 230.456C253.596 230.268 253.859 230.136 253.953 230.061L254.461 231.612Z" fill="white"/>
<line x1="48.293" y1="188.871" x2="478.934" y2="188.871" stroke="white" stroke-opacity="0.52" stroke-width="19" stroke-linecap="round"/>
<line x1="48.3594" y1="188.5" x2="360.859" y2="188.5" stroke="#12761C" stroke-width="19" stroke-linecap="round"/>
<path d="M43.8395 149.227V167.668H41.6178V145.133H43.4587L58.2492 163.922V145.164H60.4709V167.668H58.4079L43.8395 149.227ZM65.6908 167.668V151.131H67.8491V167.668H65.6908ZM65.6908 147.672V144.498H67.8491V147.672H65.6908ZM77.5224 167.668L70.8254 151.131H73.0789L78.7285 165.509L84.4099 151.131H86.5364L79.8394 167.668H77.5224ZM96.1098 167.985C94.9248 167.985 93.8245 167.763 92.8089 167.318C91.7932 166.853 90.9151 166.229 90.1745 165.446C89.4339 164.642 88.852 163.721 88.4289 162.684C88.0268 161.648 87.8258 160.537 87.8258 159.352C87.8258 157.807 88.1749 156.389 88.8732 155.099C89.5926 153.808 90.5766 152.782 91.825 152.02C93.0734 151.237 94.4911 150.846 96.078 150.846C97.7073 150.846 99.125 151.237 100.331 152.02C101.558 152.803 102.521 153.84 103.219 155.13C103.918 156.4 104.267 157.797 104.267 159.32C104.267 159.489 104.267 159.659 104.267 159.828C104.267 159.976 104.256 160.092 104.235 160.177H90.0793C90.1851 161.362 90.5131 162.42 91.0632 163.351C91.6345 164.261 92.3645 164.991 93.2532 165.541C94.1631 166.07 95.147 166.334 96.205 166.334C97.2841 166.334 98.2998 166.059 99.252 165.509C100.225 164.959 100.902 164.24 101.283 163.351L103.156 163.859C102.817 164.642 102.299 165.351 101.601 165.985C100.902 166.62 100.077 167.117 99.125 167.477C98.194 167.816 97.1889 167.985 96.1098 167.985ZM90.0158 158.622H102.235C102.151 157.416 101.823 156.358 101.252 155.448C100.701 154.538 99.9714 153.829 99.0615 153.321C98.1728 152.792 97.1889 152.528 96.1098 152.528C95.0306 152.528 94.0467 152.792 93.158 153.321C92.2693 153.829 91.5393 154.549 90.968 155.48C90.4179 156.389 90.1005 157.437 90.0158 158.622ZM106.264 162.907C106.264 161.87 106.56 160.981 107.152 160.241C107.745 159.479 108.559 158.897 109.596 158.495C110.654 158.072 111.871 157.86 113.246 157.86C114.05 157.86 114.886 157.924 115.754 158.051C116.621 158.177 117.394 158.368 118.071 158.622V157.225C118.071 155.829 117.658 154.718 116.833 153.893C116.008 153.067 114.865 152.655 113.405 152.655C112.516 152.655 111.638 152.824 110.771 153.163C109.924 153.48 109.036 153.956 108.105 154.591L107.279 153.067C108.358 152.327 109.416 151.777 110.453 151.417C111.49 151.036 112.548 150.846 113.627 150.846C115.658 150.846 117.267 151.428 118.452 152.591C119.636 153.755 120.229 155.363 120.229 157.416V165.065C120.229 165.361 120.292 165.583 120.419 165.731C120.546 165.858 120.747 165.932 121.022 165.954V167.668C120.79 167.689 120.589 167.71 120.419 167.731C120.25 167.752 120.123 167.752 120.039 167.731C119.51 167.71 119.108 167.541 118.832 167.223C118.557 166.906 118.409 166.567 118.388 166.208L118.356 165.001C117.616 165.954 116.653 166.694 115.468 167.223C114.283 167.731 113.077 167.985 111.85 167.985C110.792 167.985 109.829 167.763 108.961 167.318C108.115 166.853 107.449 166.239 106.962 165.478C106.496 164.695 106.264 163.838 106.264 162.907ZM117.341 164.176C117.573 163.88 117.753 163.594 117.88 163.319C118.007 163.044 118.071 162.801 118.071 162.589V160.177C117.351 159.902 116.6 159.69 115.817 159.542C115.055 159.394 114.283 159.32 113.5 159.32C111.956 159.32 110.707 159.627 109.755 160.241C108.803 160.854 108.327 161.69 108.327 162.748C108.327 163.362 108.485 163.943 108.803 164.494C109.12 165.023 109.586 165.467 110.199 165.827C110.813 166.165 111.532 166.334 112.358 166.334C113.394 166.334 114.357 166.133 115.246 165.731C116.156 165.329 116.854 164.811 117.341 164.176ZM124.733 160.844V151.131H126.892V160.463C126.892 162.346 127.209 163.753 127.844 164.684C128.5 165.615 129.463 166.081 130.732 166.081C131.579 166.081 132.393 165.901 133.176 165.541C133.98 165.16 134.689 164.631 135.303 163.954C135.916 163.256 136.382 162.452 136.699 161.542V151.131H138.857V165.065C138.857 165.361 138.921 165.583 139.048 165.731C139.175 165.858 139.365 165.932 139.619 165.954V167.668C139.365 167.689 139.164 167.699 139.016 167.699C138.868 167.72 138.731 167.731 138.604 167.731C138.18 167.689 137.81 167.519 137.493 167.223C137.196 166.927 137.038 166.567 137.017 166.144L136.953 163.922C136.234 165.192 135.25 166.186 134.001 166.906C132.774 167.625 131.441 167.985 130.002 167.985C128.267 167.985 126.955 167.382 126.067 166.176C125.178 164.97 124.733 163.192 124.733 160.844ZM150.843 167.668C150.843 166.948 150.907 166.229 151.034 165.509C151.161 164.769 151.404 164.039 151.764 163.319C152.123 162.6 152.652 161.912 153.351 161.256C154.049 160.579 154.969 159.944 156.112 159.352C156.726 159.034 157.36 158.728 158.016 158.431C158.672 158.114 159.286 157.775 159.857 157.416C160.45 157.035 160.915 156.612 161.254 156.146C161.614 155.659 161.793 155.088 161.793 154.432C161.793 153.903 161.635 153.385 161.317 152.877C161.021 152.369 160.556 151.957 159.921 151.639C159.307 151.322 158.535 151.163 157.604 151.163C156.927 151.163 156.313 151.258 155.763 151.449C155.213 151.639 154.726 151.883 154.303 152.179C153.88 152.454 153.52 152.739 153.224 153.036C152.928 153.311 152.684 153.544 152.494 153.734L151.129 152.242C151.235 152.115 151.468 151.893 151.827 151.576C152.208 151.237 152.684 150.888 153.256 150.528C153.848 150.169 154.536 149.862 155.319 149.608C156.123 149.354 157.001 149.227 157.953 149.227C159.244 149.227 160.344 149.46 161.254 149.925C162.185 150.37 162.894 150.973 163.38 151.734C163.867 152.496 164.11 153.321 164.11 154.21C164.11 155.078 163.92 155.829 163.539 156.464C163.179 157.077 162.703 157.617 162.111 158.082C161.539 158.527 160.936 158.918 160.302 159.257C159.688 159.574 159.127 159.849 158.619 160.082C157.625 160.547 156.789 161.013 156.112 161.478C155.435 161.944 154.895 162.42 154.493 162.907C154.091 163.372 153.774 163.838 153.541 164.303C153.33 164.748 153.181 165.213 153.097 165.7H164.459V167.668H150.843Z" fill="white"/>
<path d="M54.4087 90.306C52.4621 90.306 50.6141 89.911 48.8649 89.1211C47.1439 88.3311 45.6205 87.2449 44.2945 85.8625C42.9967 84.4519 41.981 82.8155 41.2475 80.9535C40.5139 79.0914 40.1472 77.0742 40.1472 74.9018C40.1472 72.8423 40.5139 70.9097 41.2475 69.1041C41.981 67.2703 43.0108 65.6622 44.3368 64.2797C45.6628 62.8973 47.2145 61.8111 48.9919 61.0212C50.7693 60.2312 52.7019 59.8362 54.7896 59.8362C57.6109 59.8362 60.0231 60.4428 62.0262 61.656C64.0575 62.8409 65.581 64.4208 66.5966 66.3957L62.2378 69.612C61.476 68.1167 60.4039 66.9741 59.0215 66.1841C57.6673 65.3941 56.1861 64.9992 54.578 64.9992C53.3084 64.9992 52.1517 65.2672 51.1078 65.8032C50.064 66.3393 49.1612 67.0728 48.3994 68.0038C47.6377 68.9349 47.0452 70.0069 46.622 71.2201C46.227 72.4332 46.0295 73.7169 46.0295 75.0711C46.0295 76.51 46.2411 77.836 46.6643 79.0491C47.1157 80.2623 47.7364 81.3203 48.5264 82.2231C49.3445 83.1259 50.2897 83.8453 51.3618 84.3813C52.4338 84.8892 53.6188 85.1431 54.9166 85.1431C56.4401 85.1431 57.893 84.7481 59.2754 83.9581C60.6861 83.1682 61.998 82.0115 63.2111 80.488V86.2434C60.7002 88.9518 57.7661 90.306 54.4087 90.306ZM62.7879 78.9222H56.7363V74.6479H67.6123V90.0944H62.7879V78.9222ZM85.2429 72.8282C83.5219 72.8282 81.9843 73.1668 80.6301 73.8439C79.2759 74.4928 78.3025 75.4379 77.71 76.6793V90.0944H72.0393V67.9192H77.2445V72.6589C78.0345 71.1354 79.036 69.9364 80.2492 69.0618C81.4623 68.1872 82.746 67.7076 84.1002 67.623C84.4106 67.623 84.6504 67.623 84.8197 67.623C84.9889 67.623 85.13 67.6371 85.2429 67.6653V72.8282ZM98.3991 90.5176C96.6217 90.5176 95.0136 90.2214 93.5748 89.6289C92.1359 89.0082 90.9087 88.176 89.893 87.1321C88.8773 86.06 88.0874 84.8468 87.5231 83.4926C86.9871 82.1102 86.7191 80.6573 86.7191 79.1338C86.7191 77.0178 87.1846 75.0852 88.1156 73.336C89.0748 71.5869 90.429 70.1903 92.1782 69.1464C93.9556 68.0744 96.0434 67.5383 98.4415 67.5383C100.868 67.5383 102.941 68.0744 104.662 69.1464C106.383 70.1903 107.695 71.5869 108.598 73.336C109.529 75.057 109.995 76.9191 109.995 78.9222C109.995 79.2607 109.98 79.6134 109.952 79.9801C109.924 80.3187 109.896 80.6008 109.868 80.8265H92.7284C92.8412 81.955 93.1657 82.9425 93.7017 83.7889C94.266 84.6353 94.9713 85.2841 95.8177 85.7355C96.6923 86.1587 97.6233 86.3703 98.6107 86.3703C99.7393 86.3703 100.797 86.1023 101.785 85.5663C102.8 85.002 103.492 84.2685 103.858 83.3657L108.725 84.7199C108.189 85.8484 107.413 86.85 106.397 87.7245C105.41 88.5991 104.239 89.2904 102.885 89.7982C101.531 90.2778 100.035 90.5176 98.3991 90.5176ZM92.6014 77.2294H104.197C104.084 76.1009 103.76 75.1276 103.224 74.3094C102.716 73.463 102.039 72.8141 101.192 72.3627C100.346 71.8831 99.4007 71.6433 98.3568 71.6433C97.3412 71.6433 96.4101 71.8831 95.5638 72.3627C94.7456 72.8141 94.0685 73.463 93.5324 74.3094C93.0246 75.1276 92.7143 76.1009 92.6014 77.2294ZM123.733 90.5176C121.955 90.5176 120.347 90.2214 118.908 89.6289C117.47 89.0082 116.242 88.176 115.227 87.1321C114.211 86.06 113.421 84.8468 112.857 83.4926C112.321 82.1102 112.053 80.6573 112.053 79.1338C112.053 77.0178 112.518 75.0852 113.449 73.336C114.408 71.5869 115.763 70.1903 117.512 69.1464C119.289 68.0744 121.377 67.5383 123.775 67.5383C126.201 67.5383 128.275 68.0744 129.996 69.1464C131.717 70.1903 133.029 71.5869 133.932 73.336C134.863 75.057 135.328 76.9191 135.328 78.9222C135.328 79.2607 135.314 79.6134 135.286 79.9801C135.258 80.3187 135.229 80.6008 135.201 80.8265H118.062C118.175 81.955 118.499 82.9425 119.035 83.7889C119.6 84.6353 120.305 85.2841 121.151 85.7355C122.026 86.1587 122.957 86.3703 123.944 86.3703C125.073 86.3703 126.131 86.1023 127.118 85.5663C128.134 85.002 128.825 84.2685 129.192 83.3657L134.059 84.7199C133.523 85.8484 132.747 86.85 131.731 87.7245C130.744 88.5991 129.573 89.2904 128.219 89.7982C126.864 90.2778 125.369 90.5176 123.733 90.5176ZM117.935 77.2294H129.53C129.418 76.1009 129.093 75.1276 128.557 74.3094C128.049 73.463 127.372 72.8141 126.526 72.3627C125.679 71.8831 124.734 71.6433 123.69 71.6433C122.675 71.6433 121.744 71.8831 120.897 72.3627C120.079 72.8141 119.402 73.463 118.866 74.3094C118.358 75.1276 118.048 76.1009 117.935 77.2294ZM159.392 90.0944H153.721V77.6526C153.721 75.8752 153.411 74.5774 152.79 73.7592C152.17 72.9411 151.309 72.532 150.209 72.532C149.447 72.532 148.671 72.7295 147.881 73.1244C147.12 73.5194 146.428 74.0696 145.808 74.7749C145.187 75.452 144.736 76.242 144.454 77.1448V90.0944H138.783V67.9192H143.903V72.0241C144.468 71.0649 145.187 70.2609 146.062 69.612C146.936 68.9349 147.938 68.427 149.066 68.0885C150.223 67.7217 151.436 67.5383 152.706 67.5383C154.088 67.5383 155.217 67.7922 156.091 68.3001C156.994 68.7797 157.671 69.4427 158.123 70.2891C158.602 71.1072 158.927 72.0383 159.096 73.0821C159.294 74.126 159.392 75.184 159.392 76.2561V90.0944ZM199.543 90.0944V70.3737L191.84 85.0584H188.582L180.88 70.3737V90.0944H175.04V60.0478H181.303L190.19 77.1448L199.162 60.0478H205.383V90.0944H199.543ZM221.017 90.5176C219.24 90.5176 217.632 90.2214 216.193 89.6289C214.754 89.0082 213.527 88.176 212.511 87.1321C211.495 86.06 210.705 84.8468 210.141 83.4926C209.605 82.1102 209.337 80.6573 209.337 79.1338C209.337 77.0178 209.803 75.0852 210.734 73.336C211.693 71.5869 213.047 70.1903 214.796 69.1464C216.574 68.0744 218.661 67.5383 221.06 67.5383C223.486 67.5383 225.559 68.0744 227.28 69.1464C229.001 70.1903 230.313 71.5869 231.216 73.336C232.147 75.057 232.613 76.9191 232.613 78.9222C232.613 79.2607 232.599 79.6134 232.57 79.9801C232.542 80.3187 232.514 80.6008 232.486 80.8265H215.346C215.459 81.955 215.784 82.9425 216.32 83.7889C216.884 84.6353 217.589 85.2841 218.436 85.7355C219.31 86.1587 220.241 86.3703 221.229 86.3703C222.357 86.3703 223.415 86.1023 224.403 85.5663C225.418 85.002 226.11 84.2685 226.476 83.3657L231.343 84.7199C230.807 85.8484 230.031 86.85 229.016 87.7245C228.028 88.5991 226.857 89.2904 225.503 89.7982C224.149 90.2778 222.654 90.5176 221.017 90.5176ZM215.219 77.2294H226.815C226.702 76.1009 226.378 75.1276 225.842 74.3094C225.334 73.463 224.657 72.8141 223.81 72.3627C222.964 71.8831 222.019 71.6433 220.975 71.6433C219.959 71.6433 219.028 71.8831 218.182 72.3627C217.364 72.8141 216.687 73.463 216.15 74.3094C215.643 75.1276 215.332 76.1009 215.219 77.2294ZM270.515 90.0944H264.844V77.6526C264.844 75.9034 264.534 74.6197 263.913 73.8016C263.321 72.9552 262.489 72.532 261.416 72.532C260.316 72.532 259.258 72.9693 258.242 73.8439C257.255 74.6903 256.55 75.8047 256.127 77.1871V90.0944H250.456V77.6526C250.456 75.8752 250.145 74.5774 249.525 73.7592C248.932 72.9411 248.1 72.532 247.028 72.532C245.928 72.532 244.87 72.9552 243.854 73.8016C242.867 74.6479 242.161 75.7623 241.738 77.1448V90.0944H236.067V67.9192H241.188V72.0241C242.034 70.5853 243.163 69.485 244.573 68.7233C245.984 67.9333 247.606 67.5383 249.44 67.5383C251.274 67.5383 252.699 67.9897 253.714 68.8925C254.758 69.7953 255.421 70.9097 255.703 72.2357C256.606 70.7123 257.749 69.5555 259.131 68.7656C260.542 67.9474 262.122 67.5383 263.871 67.5383C265.253 67.5383 266.368 67.7922 267.214 68.3001C268.089 68.7797 268.766 69.4427 269.245 70.2891C269.725 71.1072 270.05 72.0383 270.219 73.0821C270.416 74.126 270.515 75.184 270.515 76.2561V90.0944ZM288.063 90.5176C286.371 90.5176 284.861 90.1367 283.535 89.375C282.209 88.6133 281.165 87.5694 280.404 86.2434V90.0944H275.452V59.2015H281.123V71.8126C281.913 70.4866 282.943 69.4427 284.212 68.6809C285.51 67.9192 287.019 67.5383 288.74 67.5383C290.179 67.5383 291.491 67.8487 292.676 68.4693C293.861 69.0618 294.877 69.8941 295.723 70.9662C296.598 72.0383 297.261 73.2655 297.712 74.6479C298.192 76.0304 298.431 77.5115 298.431 79.0914C298.431 80.6714 298.163 82.1525 297.627 83.535C297.12 84.9174 296.4 86.1446 295.469 87.2167C294.538 88.2606 293.438 89.0788 292.168 89.6712C290.927 90.2355 289.559 90.5176 288.063 90.5176ZM286.497 85.6932C287.4 85.6932 288.218 85.524 288.952 85.1854C289.714 84.8186 290.363 84.339 290.899 83.7466C291.463 83.1541 291.886 82.4629 292.168 81.6729C292.479 80.8547 292.634 80.0084 292.634 79.1338C292.634 77.9206 292.38 76.8062 291.872 75.7906C291.392 74.7467 290.715 73.9144 289.841 73.2937C288.994 72.673 287.993 72.3627 286.836 72.3627C286.018 72.3627 285.228 72.5602 284.466 72.9552C283.733 73.3219 283.07 73.8298 282.477 74.4787C281.913 75.1276 281.461 75.8611 281.123 76.6793V81.9691C281.292 82.5334 281.56 83.0412 281.927 83.4926C282.322 83.944 282.773 84.339 283.281 84.6776C283.789 84.9879 284.311 85.2418 284.847 85.4393C285.411 85.6086 285.961 85.6932 286.497 85.6932ZM312.557 90.5176C310.78 90.5176 309.172 90.2214 307.733 89.6289C306.294 89.0082 305.067 88.176 304.051 87.1321C303.035 86.06 302.245 84.8468 301.681 83.4926C301.145 82.1102 300.877 80.6573 300.877 79.1338C300.877 77.0178 301.343 75.0852 302.274 73.336C303.233 71.5869 304.587 70.1903 306.336 69.1464C308.114 68.0744 310.201 67.5383 312.599 67.5383C315.026 67.5383 317.099 68.0744 318.82 69.1464C320.541 70.1903 321.853 71.5869 322.756 73.336C323.687 75.057 324.153 76.9191 324.153 78.9222C324.153 79.2607 324.138 79.6134 324.11 79.9801C324.082 80.3187 324.054 80.6008 324.026 80.8265H306.886C306.999 81.955 307.324 82.9425 307.86 83.7889C308.424 84.6353 309.129 85.2841 309.976 85.7355C310.85 86.1587 311.781 86.3703 312.769 86.3703C313.897 86.3703 314.955 86.1023 315.943 85.5663C316.958 85.002 317.65 84.2685 318.016 83.3657L322.883 84.7199C322.347 85.8484 321.571 86.85 320.555 87.7245C319.568 88.5991 318.397 89.2904 317.043 89.7982C315.689 90.2778 314.193 90.5176 312.557 90.5176ZM306.759 77.2294H318.355C318.242 76.1009 317.918 75.1276 317.382 74.3094C316.874 73.463 316.197 72.8141 315.35 72.3627C314.504 71.8831 313.559 71.6433 312.515 71.6433C311.499 71.6433 310.568 71.8831 309.722 72.3627C308.904 72.8141 308.226 73.463 307.69 74.3094C307.183 75.1276 306.872 76.1009 306.759 77.2294ZM340.811 72.8282C339.09 72.8282 337.552 73.1668 336.198 73.8439C334.844 74.4928 333.87 75.4379 333.278 76.6793V90.0944H327.607V67.9192H332.812V72.6589C333.602 71.1354 334.604 69.9364 335.817 69.0618C337.03 68.1872 338.314 67.7076 339.668 67.623C339.978 67.623 340.218 67.623 340.388 67.623C340.557 67.623 340.698 67.6371 340.811 67.6653V72.8282Z" fill="white"/>
<path d="M395.721 150.542V161H394.461V148.22H395.505L403.893 158.876V148.238H405.153V161H403.983L395.721 150.542ZM412.023 161.18C411.351 161.18 410.727 161.054 410.151 160.802C409.575 160.538 409.077 160.184 408.657 159.74C408.237 159.284 407.907 158.762 407.667 158.174C407.439 157.586 407.325 156.956 407.325 156.284C407.325 155.408 407.523 154.604 407.919 153.872C408.327 153.14 408.885 152.558 409.593 152.126C410.301 151.682 411.105 151.46 412.005 151.46C412.929 151.46 413.733 151.682 414.417 152.126C415.113 152.57 415.659 153.158 416.055 153.89C416.451 154.61 416.649 155.402 416.649 156.266C416.649 156.362 416.649 156.458 416.649 156.554C416.649 156.638 416.643 156.704 416.631 156.752H408.603C408.663 157.424 408.849 158.024 409.161 158.552C409.485 159.068 409.899 159.482 410.403 159.794C410.919 160.094 411.477 160.244 412.077 160.244C412.689 160.244 413.265 160.088 413.805 159.776C414.357 159.464 414.741 159.056 414.957 158.552L416.019 158.84C415.827 159.284 415.533 159.686 415.137 160.046C414.741 160.406 414.273 160.688 413.733 160.892C413.205 161.084 412.635 161.18 412.023 161.18ZM408.567 155.87H415.497C415.449 155.186 415.263 154.586 414.939 154.07C414.627 153.554 414.213 153.152 413.697 152.864C413.193 152.564 412.635 152.414 412.023 152.414C411.411 152.414 410.853 152.564 410.349 152.864C409.845 153.152 409.431 153.56 409.107 154.088C408.795 154.604 408.615 155.198 408.567 155.87ZM418.474 151.622L421.228 155.294L421.372 155.564L421.516 155.294L424.252 151.622H425.638L422.074 156.338L425.638 161H424.252L421.516 157.346L421.372 157.094L421.228 157.346L418.492 161H417.106L420.652 156.338L417.106 151.622H418.474ZM431.756 160.55C431.66 160.586 431.51 160.652 431.306 160.748C431.102 160.844 430.856 160.928 430.568 161C430.28 161.072 429.968 161.108 429.632 161.108C429.284 161.108 428.954 161.042 428.642 160.91C428.342 160.778 428.102 160.58 427.922 160.316C427.742 160.04 427.652 159.704 427.652 159.308V152.594H426.356V151.622H427.652V148.454H428.876V151.622H431.036V152.594H428.876V158.966C428.9 159.302 429.02 159.554 429.236 159.722C429.464 159.89 429.722 159.974 430.01 159.974C430.346 159.974 430.652 159.92 430.928 159.812C431.204 159.692 431.372 159.608 431.432 159.56L431.756 160.55ZM442.463 161.18C441.731 161.18 441.053 160.994 440.429 160.622C439.805 160.238 439.319 159.758 438.971 159.182V161H437.873V147.86H439.097V153.584C439.517 152.948 440.021 152.438 440.609 152.054C441.197 151.658 441.881 151.46 442.661 151.46C443.321 151.46 443.909 151.598 444.425 151.874C444.953 152.15 445.403 152.522 445.775 152.99C446.147 153.446 446.429 153.968 446.621 154.556C446.813 155.132 446.909 155.726 446.909 156.338C446.909 156.998 446.795 157.616 446.567 158.192C446.351 158.768 446.039 159.284 445.631 159.74C445.223 160.184 444.749 160.538 444.209 160.802C443.681 161.054 443.099 161.18 442.463 161.18ZM442.175 160.1C442.679 160.1 443.147 159.998 443.579 159.794C444.011 159.59 444.383 159.308 444.695 158.948C445.007 158.588 445.247 158.186 445.415 157.742C445.583 157.286 445.667 156.818 445.667 156.338C445.667 155.678 445.523 155.06 445.235 154.484C444.959 153.896 444.569 153.428 444.065 153.08C443.573 152.72 442.991 152.54 442.319 152.54C441.839 152.54 441.389 152.648 440.969 152.864C440.561 153.08 440.195 153.368 439.871 153.728C439.559 154.076 439.301 154.46 439.097 154.88V157.796C439.145 158.12 439.271 158.426 439.475 158.714C439.679 158.99 439.931 159.23 440.231 159.434C440.543 159.638 440.867 159.8 441.203 159.92C441.539 160.04 441.863 160.1 442.175 160.1ZM448.227 158.3C448.227 157.712 448.395 157.208 448.731 156.788C449.067 156.356 449.529 156.026 450.117 155.798C450.717 155.558 451.407 155.438 452.187 155.438C452.643 155.438 453.117 155.474 453.609 155.546C454.101 155.618 454.539 155.726 454.923 155.87V155.078C454.923 154.286 454.689 153.656 454.221 153.188C453.753 152.72 453.105 152.486 452.277 152.486C451.773 152.486 451.275 152.582 450.783 152.774C450.303 152.954 449.799 153.224 449.271 153.584L448.803 152.72C449.415 152.3 450.015 151.988 450.603 151.784C451.191 151.568 451.791 151.46 452.403 151.46C453.555 151.46 454.467 151.79 455.139 152.45C455.811 153.11 456.147 154.022 456.147 155.186V159.524C456.147 159.692 456.183 159.818 456.255 159.902C456.327 159.974 456.441 160.016 456.597 160.028V161C456.465 161.012 456.351 161.024 456.255 161.036C456.159 161.048 456.087 161.048 456.039 161.036C455.739 161.024 455.511 160.928 455.355 160.748C455.199 160.568 455.115 160.376 455.103 160.172L455.085 159.488C454.665 160.028 454.119 160.448 453.447 160.748C452.775 161.036 452.091 161.18 451.395 161.18C450.795 161.18 450.249 161.054 449.757 160.802C449.277 160.538 448.899 160.19 448.623 159.758C448.359 159.314 448.227 158.828 448.227 158.3ZM454.509 159.02C454.641 158.852 454.743 158.69 454.815 158.534C454.887 158.378 454.923 158.24 454.923 158.12V156.752C454.515 156.596 454.089 156.476 453.645 156.392C453.213 156.308 452.775 156.266 452.331 156.266C451.455 156.266 450.747 156.44 450.207 156.788C449.667 157.136 449.397 157.61 449.397 158.21C449.397 158.558 449.487 158.888 449.667 159.2C449.847 159.5 450.111 159.752 450.459 159.956C450.807 160.148 451.215 160.244 451.683 160.244C452.271 160.244 452.817 160.13 453.321 159.902C453.837 159.674 454.233 159.38 454.509 159.02ZM458.161 156.338C458.161 155.45 458.341 154.64 458.701 153.908C459.073 153.164 459.583 152.57 460.231 152.126C460.879 151.682 461.617 151.46 462.445 151.46C463.225 151.46 463.921 151.67 464.533 152.09C465.157 152.498 465.643 152.996 465.991 153.584V147.86H467.215V159.524C467.215 159.692 467.251 159.818 467.323 159.902C467.395 159.974 467.503 160.016 467.647 160.028V161C467.407 161.036 467.221 161.048 467.089 161.036C466.837 161.024 466.615 160.922 466.423 160.73C466.231 160.538 466.135 160.328 466.135 160.1V159.182C465.763 159.794 465.259 160.28 464.623 160.64C463.987 161 463.327 161.18 462.643 161.18C461.995 161.18 461.395 161.048 460.843 160.784C460.303 160.52 459.829 160.16 459.421 159.704C459.025 159.248 458.713 158.732 458.485 158.156C458.269 157.568 458.161 156.962 458.161 156.338ZM465.991 157.778V154.88C465.835 154.448 465.583 154.058 465.235 153.71C464.887 153.35 464.491 153.068 464.047 152.864C463.615 152.648 463.183 152.54 462.751 152.54C462.247 152.54 461.791 152.648 461.383 152.864C460.975 153.068 460.621 153.35 460.321 153.71C460.033 154.07 459.811 154.478 459.655 154.934C459.499 155.39 459.421 155.858 459.421 156.338C459.421 156.842 459.505 157.322 459.673 157.778C459.853 158.234 460.105 158.642 460.429 159.002C460.753 159.35 461.125 159.62 461.545 159.812C461.965 160.004 462.421 160.1 462.913 160.1C463.225 160.1 463.549 160.04 463.885 159.92C464.221 159.8 464.539 159.638 464.839 159.434C465.151 159.218 465.409 158.966 465.613 158.678C465.817 158.39 465.943 158.09 465.991 157.778ZM473.751 161.126C473.115 161.126 472.527 160.994 471.987 160.73C471.447 160.466 470.979 160.112 470.583 159.668C470.199 159.212 469.899 158.696 469.683 158.12C469.467 157.544 469.359 156.95 469.359 156.338C469.359 155.678 469.461 155.06 469.665 154.484C469.881 153.896 470.181 153.374 470.565 152.918C470.961 152.462 471.423 152.108 471.951 151.856C472.479 151.592 473.067 151.46 473.715 151.46C474.519 151.46 475.215 151.664 475.803 152.072C476.403 152.48 476.907 152.984 477.315 153.584V151.622H478.413V161.036C478.413 161.9 478.203 162.626 477.783 163.214C477.375 163.814 476.817 164.264 476.109 164.564C475.413 164.864 474.651 165.014 473.823 165.014C472.755 165.014 471.891 164.822 471.231 164.438C470.571 164.054 470.031 163.538 469.611 162.89L470.367 162.296C470.739 162.884 471.231 163.322 471.843 163.61C472.467 163.898 473.127 164.042 473.823 164.042C474.435 164.042 474.993 163.928 475.497 163.7C476.013 163.484 476.421 163.154 476.721 162.71C477.033 162.266 477.189 161.708 477.189 161.036V159.182C476.829 159.77 476.337 160.244 475.713 160.604C475.089 160.952 474.435 161.126 473.751 161.126ZM474.093 160.1C474.465 160.1 474.819 160.034 475.155 159.902C475.503 159.77 475.821 159.596 476.109 159.38C476.397 159.152 476.637 158.9 476.829 158.624C477.021 158.348 477.141 158.066 477.189 157.778V154.88C477.009 154.424 476.751 154.022 476.415 153.674C476.079 153.314 475.695 153.038 475.263 152.846C474.843 152.642 474.405 152.54 473.949 152.54C473.421 152.54 472.947 152.654 472.527 152.882C472.119 153.098 471.771 153.392 471.483 153.764C471.207 154.124 470.991 154.532 470.835 154.988C470.679 155.444 470.601 155.9 470.601 156.356C470.601 156.86 470.691 157.34 470.871 157.796C471.051 158.24 471.297 158.642 471.609 159.002C471.933 159.35 472.305 159.62 472.725 159.812C473.157 160.004 473.613 160.1 474.093 160.1ZM485.166 161.18C484.494 161.18 483.87 161.054 483.294 160.802C482.718 160.538 482.22 160.184 481.8 159.74C481.38 159.284 481.05 158.762 480.81 158.174C480.582 157.586 480.468 156.956 480.468 156.284C480.468 155.408 480.666 154.604 481.062 153.872C481.47 153.14 482.028 152.558 482.736 152.126C483.444 151.682 484.248 151.46 485.148 151.46C486.072 151.46 486.876 151.682 487.56 152.126C488.256 152.57 488.802 153.158 489.198 153.89C489.594 154.61 489.792 155.402 489.792 156.266C489.792 156.362 489.792 156.458 489.792 156.554C489.792 156.638 489.786 156.704 489.774 156.752H481.746C481.806 157.424 481.992 158.024 482.304 158.552C482.628 159.068 483.042 159.482 483.546 159.794C484.062 160.094 484.62 160.244 485.22 160.244C485.832 160.244 486.408 160.088 486.948 159.776C487.5 159.464 487.884 159.056 488.1 158.552L489.162 158.84C488.97 159.284 488.676 159.686 488.28 160.046C487.884 160.406 487.416 160.688 486.876 160.892C486.348 161.084 485.778 161.18 485.166 161.18ZM481.71 155.87H488.64C488.592 155.186 488.406 154.586 488.082 154.07C487.77 153.554 487.356 153.152 486.84 152.864C486.336 152.564 485.778 152.414 485.166 152.414C484.554 152.414 483.996 152.564 483.492 152.864C482.988 153.152 482.574 153.56 482.25 154.088C481.938 154.604 481.758 155.198 481.71 155.87Z" fill="white"/>
<path d="M462.514 129.121C459.345 131.21 455.864 132.846 452.196 133.906C439.599 137.506 425.285 134.14 415.466 125.458C405.647 116.793 400.543 103.155 402.01 90.1562C403.696 75.1001 414.139 60.4181 428.875 55.8514C429.811 55.5552 430.779 55.3214 431.747 55.1032C432.652 54.9006 433.589 54.5889 434.51 54.5421C435.244 54.4954 435.774 55.1656 436.258 55.6488C437.679 57.0827 439.583 58.1425 441.597 58.1113C442.893 58.1113 444.126 57.6282 445.234 56.9736C445.812 56.6307 446.358 56.2254 446.873 55.8046C447.326 55.4461 447.716 54.9162 448.356 54.963C471.552 56.3501 484.633 84.0465 479.81 104.558C477.469 114.548 471.068 123.51 462.53 129.137L462.514 129.121Z" fill="#E5EFEF"/>
<path d="M473.988 64.299C467.666 56.771 459.315 51.7679 449.278 49.8664C449.09 50.1469 448.622 51.4406 449.012 51.5341L451.057 52.064C475.518 58.3919 488.427 84.4517 480.966 107.753C474.706 127.313 455.896 140.78 434.761 137.444C419.775 135.075 408.302 124.929 402.105 111.369C398.514 102.142 397.671 92.4318 400.263 82.862C404.368 68.4293 415.763 56.1476 431.498 52.0796L433.543 51.5497C433.933 51.4406 433.465 50.1625 433.278 49.882C423.24 51.7835 414.889 56.7866 408.567 64.3146C403.369 69.8944 399.95 76.347 398.296 83.1737C395.689 93.1487 396.703 103.576 400.746 112.849C407.552 128.467 422.007 139.159 439.241 139.954C459.284 140.873 476.096 128.061 482.433 109.545C487.756 93.9592 484.775 77.1731 473.988 64.3146V64.299Z" fill="#3D763C"/>
<path d="M440.099 46.1413C442.113 45.5179 444.626 47.0609 445.281 48.7442C446.093 50.8483 444.86 53.5758 443.19 54.246C440.661 55.2747 437.929 54.0434 437.305 52.1731C436.509 49.7884 437.43 46.9518 440.099 46.1413Z" fill="#3D763C" stroke="#3D763C" stroke-width="0.770717" stroke-miterlimit="10"/>
<path d="M455.677 122.123C449.855 120.035 447.997 125.521 443.798 121.858C439.599 118.195 438.335 125.755 431.888 122.061C430.92 121.515 428.594 122.014 427.033 122.185C429.265 116.107 433.886 123.541 437.57 120.814C440.302 118.788 442.503 118.788 445.156 120.939C448.481 123.635 453.211 115.826 455.693 122.139L455.677 122.123Z" fill="#52A2BC"/>
<path d="M463.717 115.016C463.514 114.876 463.28 114.782 463.046 114.689C459.815 113.442 456.365 112.569 452.962 111.961C452.103 111.805 442.472 110.652 442.472 111.041L442.394 103.607L446.78 100.661L449.871 100.614C456.115 99.8195 460.658 94.458 460.783 88.2547C460.892 83.3451 458.504 79.2928 454.367 77.0016C454.07 69.2554 447.733 63.3015 440.099 64.0964C434.386 64.6887 429.719 68.9592 428.782 74.4611L428.345 77.0328L426.269 78.4979C420.54 83.4386 420.4 92.4785 426.035 97.5284C428.891 100.1 432.357 101.144 436.088 100.537L438.632 102.516L440.443 103.623L440.412 111.01C440.412 110.839 431.108 111.79 430.359 111.914C428.142 112.288 425.941 112.772 423.787 113.395C423.178 113.566 417.824 115 418.386 115.842C419.291 117.214 420.821 116.091 422.117 115.686C423.725 115.187 425.348 114.751 426.971 114.377C433.106 112.974 439.413 112.429 445.688 112.849C451.651 113.255 457.099 115.016 462.843 116.434C463.265 116.543 463.764 116.606 464.045 116.278C464.279 115.998 464.201 115.546 463.967 115.265C463.889 115.172 463.795 115.094 463.702 115.031L463.717 115.016ZM446.968 86.7741C446.765 86.852 446.578 86.9767 446.406 87.1325C445.657 87.8651 444.954 88.66 444.205 89.3925C443.768 89.8133 443.331 90.2341 442.909 90.655C442.831 90.7329 442.347 91.0914 442.347 91.2005C442.3 88.3794 442.254 85.5739 442.207 82.7529C442.207 81.8645 442.269 80.8046 441.395 80.2435C441.348 80.2123 441.317 80.1968 441.27 80.1968C441.223 80.1968 441.176 80.1968 441.145 80.2279C440.146 80.6955 440.474 82.3009 440.458 83.1737L440.427 87.9274V90.3588C440.427 90.4835 440.302 91.2472 440.412 91.3408C439.787 90.7485 439.163 90.1406 438.538 89.5484C438.07 89.112 437.617 88.66 437.149 88.2236C436.65 87.756 436.166 87.0858 435.448 86.9611C435.323 86.9455 435.167 86.9455 435.057 87.0234C434.901 87.1325 434.87 87.3196 434.839 87.5066C434.808 87.756 434.776 88.0053 434.886 88.2236C434.948 88.3327 435.042 88.4262 435.135 88.5197C436.603 89.9536 438.07 91.4031 439.537 92.8526C440.115 93.4293 440.552 94.2865 440.536 94.8944L440.443 101.378C437.961 100.895 437.29 98.5882 435.479 98.7753C432.029 99.1338 428.798 97.9804 426.659 95.6737C422.07 90.7485 422.928 83.5789 427.768 79.4642L430.125 78.0926L430.328 74.991C431.545 69.1151 437.102 64.9069 443.19 65.8109C449.2 66.9642 453.056 72.0764 452.65 78.1394C455.506 79.1213 457.177 81.054 458.269 83.7036C460.751 89.7042 457.504 96.7491 451.058 98.6194C449.902 98.9623 447.951 98.7753 446.89 98.7597C446.406 98.7597 445.672 99.3675 445.204 99.6793L442.425 101.503L442.378 95.7828L442.441 93.7098C443.19 92.9149 443.924 92.1356 444.673 91.3408C445.859 90.0939 447.077 88.8626 448.123 87.491C448.17 87.4287 448.232 87.3507 448.217 87.2728C448.217 87.1949 448.17 87.1325 448.123 87.0858C447.858 86.7741 447.389 86.587 446.983 86.7273L446.968 86.7741Z" fill="#3D763C"/>
<defs>
<linearGradient id="paint0_linear_645_1700" x1="270.225" y1="0" x2="270.225" y2="279.483" gradientUnits="userSpaceOnUse">
<stop stop-color="#BCBCBC"/>
<stop offset="1" stop-color="#12761C"/>
</linearGradient>
</defs>
</svg>
