<svg width="58" height="62" viewBox="0 0 58 62" fill="none" xmlns="http://www.w3.org/2000/svg">
<path d="M42.5939 54.1747C40.5381 55.5296 38.2798 56.5913 35.9 57.2789C27.7276 59.6146 18.4412 57.4306 12.0714 51.7985C5.7016 46.1766 2.39011 37.3292 3.34203 28.8963C4.43574 19.1287 11.2106 9.60378 20.7704 6.64114C21.378 6.44903 22.0059 6.29736 22.6338 6.1558C23.2211 6.02435 23.8287 5.82212 24.4262 5.79179C24.9022 5.76145 25.2465 6.19624 25.5604 6.5097C26.482 7.43994 27.7175 8.12752 29.0238 8.10729C29.8644 8.10729 30.6644 7.79384 31.3834 7.36916C31.7581 7.14671 32.1126 6.88382 32.4467 6.61081C32.7404 6.37825 32.9936 6.03446 33.4088 6.06479C48.4574 6.96471 56.9437 24.9326 53.8145 38.2392C52.2955 44.7206 48.1434 50.5346 42.604 54.1848L42.5939 54.1747Z" fill="#E5EFEF"/>
<path d="M50.0371 12.1215C45.9357 7.23773 40.5179 3.99198 34.0063 2.75839C33.8847 2.9404 33.5809 3.77964 33.8341 3.84031L35.1607 4.1841C51.0296 8.28931 59.4045 25.1955 54.5639 40.312C50.503 53.0018 38.3001 61.738 24.5882 59.5742C14.8664 58.0373 7.42315 51.4548 3.40277 42.6579C1.07359 36.6719 0.526734 30.3726 2.2078 24.1642C4.87117 14.801 12.2638 6.83328 22.4717 4.19421L23.7983 3.85042C24.0515 3.77964 23.7477 2.95051 23.6262 2.7685C17.1146 4.00209 11.6967 7.24784 7.59531 12.1316C4.22305 15.7515 2.00526 19.9376 0.93181 24.3664C-0.759382 30.8377 -0.101134 37.6022 2.52173 43.6185C6.93706 53.75 16.3146 60.6864 27.4947 61.2021C40.4976 61.7987 51.4043 53.4871 55.5158 41.4748C58.9691 31.3635 57.0348 20.4735 50.0371 12.1316V12.1215Z" fill="#3D763C"/>
<path d="M28.0516 0.341758C29.358 -0.0626968 30.9884 0.938329 31.4138 2.03036C31.9404 3.39539 31.1403 5.16488 30.0568 5.59967C28.4162 6.26702 26.644 5.46822 26.2389 4.25486C25.7224 2.70782 26.3199 0.867549 28.0516 0.341758Z" fill="#3D763C" stroke="#3D763C" stroke-width="0.5" stroke-miterlimit="10"/>
<path d="M38.1583 49.6347C34.381 48.2798 33.1759 51.839 30.4517 49.4628C27.7276 47.0866 26.9073 51.9906 22.7249 49.5942C22.097 49.2403 20.5881 49.5639 19.5754 49.6751C21.0236 45.7317 24.0211 50.5548 26.4111 48.7853C28.1833 47.4709 29.6112 47.4709 31.3328 48.8662C33.4898 50.6155 36.5582 45.5497 38.1684 49.6448L38.1583 49.6347Z" fill="#52A2BC"/>
<path d="M43.3735 45.0239C43.2419 44.9329 43.09 44.8723 42.9381 44.8116C40.8418 44.0027 38.6037 43.4364 36.3961 43.0421C35.8391 42.941 29.5908 42.1927 29.5908 42.4455L29.5402 37.6224L32.3858 35.7114L34.3909 35.681C38.4417 35.1653 41.3886 31.687 41.4697 27.6627C41.5405 24.4776 39.9911 21.8487 37.3075 20.3623C37.1151 15.3369 33.0036 11.4744 28.0515 11.9901C24.3451 12.3743 21.3171 15.1448 20.7095 18.7141L20.426 20.3825L19.0791 21.333C15.3625 24.5383 15.2714 30.4029 18.9272 33.679C20.7804 35.3474 23.0286 36.0248 25.4489 35.6305L27.0996 36.9146L28.2743 37.6325L28.254 42.4253C28.254 42.3141 22.2184 42.9309 21.7323 43.0118C20.2943 43.2544 18.8664 43.5679 17.4689 43.9724C17.074 44.0836 13.6004 45.0138 13.965 45.5598C14.5524 46.4496 15.5448 45.7216 16.3853 45.4587C17.4284 45.1352 18.4816 44.852 19.5348 44.6094C23.5147 43.6993 27.6059 43.3454 31.6769 43.6185C35.5454 43.8813 39.0797 45.0239 42.8064 45.9441C43.0798 46.0148 43.4039 46.0553 43.5862 45.8429C43.7381 45.6609 43.6874 45.3677 43.5355 45.1857C43.4849 45.125 43.4241 45.0745 43.3634 45.034L43.3735 45.0239ZM32.5073 26.7021C32.3757 26.7527 32.2542 26.8336 32.1428 26.9347C31.6567 27.4099 31.201 27.9256 30.7149 28.4008C30.4313 28.6738 30.1478 28.9468 29.8744 29.2199C29.8237 29.2704 29.5098 29.503 29.5098 29.5738C29.4794 27.7436 29.449 25.9236 29.4186 24.0934C29.4186 23.517 29.4592 22.8295 28.892 22.4655C28.8617 22.4452 28.8414 22.4351 28.811 22.4351C28.7806 22.4351 28.7503 22.4351 28.73 22.4553C28.0819 22.7587 28.2946 23.8002 28.2844 24.3664L28.2642 27.4504V29.0277C28.2642 29.1086 28.1832 29.6041 28.254 29.6648C27.849 29.2805 27.4439 28.8862 27.0388 28.502C26.735 28.2188 26.4413 27.9256 26.1375 27.6425C25.8135 27.3391 25.4995 26.9044 25.0337 26.8235C24.9527 26.8134 24.8514 26.8134 24.7805 26.8639C24.6793 26.9347 24.659 27.056 24.6387 27.1774C24.6185 27.3391 24.5982 27.5009 24.6691 27.6425C24.7096 27.7133 24.7704 27.7739 24.8312 27.8346C25.7831 28.7648 26.735 29.7052 27.6869 30.6456C28.0616 31.0197 28.3452 31.5758 28.3351 31.9702L28.2743 36.1765C26.6641 35.863 26.2287 34.3665 25.0539 34.4879C22.8159 34.7204 20.7196 33.9722 19.3323 32.4757C16.3549 29.2805 16.9119 24.6293 20.0513 21.9599L21.5804 21.0701L21.7121 19.0579C22.502 15.2459 26.1071 12.5159 30.0566 13.1023C33.9555 13.8506 36.4568 17.1671 36.1935 21.1004C38.0468 21.7374 39.1303 22.9913 39.8392 24.7102C41.4494 28.6031 39.343 33.1734 35.1606 34.3868C34.4112 34.6092 33.1453 34.4879 32.4567 34.4778C32.1428 34.4778 31.6668 34.8721 31.363 35.0743L29.5604 36.2574L29.53 32.5465L29.5705 31.2017C30.0566 30.686 30.5326 30.1804 31.0187 29.6648C31.7883 28.8558 32.5782 28.0571 33.2567 27.1673C33.2871 27.1268 33.3276 27.0762 33.3175 27.0257C33.3175 26.9751 33.2871 26.9347 33.2567 26.9044C33.0846 26.7021 32.7808 26.5808 32.5175 26.6718L32.5073 26.7021Z" fill="#3D763C"/>
</svg>
