<svg width="69" height="69" viewBox="0 0 69 69" fill="none" xmlns="http://www.w3.org/2000/svg">
<rect width="68.293" height="68.293" rx="17.9718" fill="white"/>
<path d="M17.2017 17.2016C53.3305 17.2016 44.9338 41.2043 44.9716 44.911L51.0914 51.0913H49.1246L43.7991 45.7053C40.8488 46.023 34.3886 48.3151 27.5804 42.9064C20.7571 37.4976 21.1353 31.0223 17.2017 17.2016ZM23.2307 20.6813C19.4711 18.9037 22.8373 21.3773 22.8373 21.3773C26.2566 23.7375 27.83 26.9525 29.6607 30.4473C32.0435 35.0013 35.6368 41.0152 40.5689 43.1333C45.486 45.2514 43.1561 44.0789 41.0228 42.4903C38.8896 40.8866 35.8637 35.909 34.139 32.6411C31.741 28.1023 29.5245 23.6694 23.2307 20.6813Z" fill="#12761C"/>
</svg>
