<svg width="69" height="69" viewBox="0 0 69 69" fill="none" xmlns="http://www.w3.org/2000/svg">
<rect width="68.293" height="68.293" rx="17.9718" fill="white"/>
<path d="M24.118 15.2761C19.2825 15.2761 17.4864 16.8735 17.4864 21.1708V45.4867C17.4864 46.4884 17.78 47.2108 18.2233 47.7433V49.9078C18.2233 51.1253 19.2163 52.1183 20.4338 52.1183H23.3812C24.5987 52.1183 25.5917 51.1253 25.5917 49.9078V49.1709H41.8023V49.9078C41.8023 51.1253 42.7953 52.1183 44.0128 52.1183H46.9602C48.1777 52.1183 49.1708 51.1253 49.1708 49.9078V47.7433C49.614 47.2108 49.9076 46.4884 49.9076 45.4867V21.9077C49.9076 18.6984 49.5104 15.2761 44.7497 15.2761H24.118ZM26.3286 18.2234H41.8023C42.211 18.2234 42.5391 18.5544 42.5391 18.9603V20.434C42.5391 20.8398 42.211 21.1708 41.8023 21.1708H26.3286C25.9227 21.1708 25.5917 20.8398 25.5917 20.434V18.9603C25.5917 18.5544 25.9227 18.2234 26.3286 18.2234ZM23.3812 23.3814H44.0128C45.4865 23.3814 46.2234 24.1182 46.2234 25.5919V34.434C46.2234 35.9077 44.7842 36.5985 44.0128 36.5985L23.3812 36.6446C21.9075 36.6446 21.1706 35.9077 21.1706 34.434V25.5919C21.1706 24.1182 21.9075 23.3814 23.3812 23.3814ZM16.7496 24.1182C15.9379 24.1182 15.2759 24.7802 15.2759 25.5919V31.4867C15.2759 32.2983 15.9379 32.9603 16.7496 32.9603V24.1182ZM50.6444 24.1182V32.9603C51.459 32.9603 52.1181 32.2983 52.1181 31.4867V25.5919C52.1181 24.7802 51.459 24.1182 50.6444 24.1182ZM23.7496 40.3288C25.1744 40.3288 26.3286 41.483 26.3286 42.9078C26.3286 44.3325 25.1744 45.4867 23.7496 45.4867C22.3248 45.4867 21.1706 44.3325 21.1706 42.9078C21.1706 41.483 22.3248 40.3288 23.7496 40.3288ZM43.6444 40.3288C45.0692 40.3288 46.2234 41.483 46.2234 42.9078C46.2234 44.3325 45.0692 45.4867 43.6444 45.4867C42.2197 45.4867 41.0655 44.3325 41.0655 42.9078C41.0655 41.483 42.2197 40.3288 43.6444 40.3288Z" fill="#12761C"/>
</svg>
