<svg width="73" height="44" viewBox="0 0 73 44" fill="none" xmlns="http://www.w3.org/2000/svg">
<path d="M21.9891 0.436035C10.1066 0.436035 0.437378 10.0318 0.437378 21.8244C0.437378 33.6169 10.1051 43.2157 21.9891 43.2157H51.0134C62.8959 43.2157 72.5621 33.6199 72.5621 21.8244C72.5621 10.0288 62.8974 0.436035 51.0149 0.436035H21.9906H21.9891Z" fill="white"/>
<path d="M51.0144 43.6485H21.9901C9.86339 43.6485 0 33.8585 0 21.8235C0 9.7885 9.86339 0 21.9886 0H51.0129C63.1366 0 73 9.79 73 21.8235C73 33.857 63.1366 43.6485 51.0129 43.6485M21.9886 0.435145C10.1061 0.435145 0.43689 10.0309 0.43689 21.8235C0.43689 33.6161 10.1046 43.2148 21.9886 43.2148H51.0129C62.8954 43.2148 72.5616 33.6191 72.5616 21.8235C72.5616 10.0279 62.8969 0.435145 51.0144 0.435145H21.9901H21.9886Z" fill="white"/>
<path d="M56.0874 20.5181L65.7384 31.9117C67.7378 29.0448 68.9119 25.5682 68.9119 21.825C68.9119 17.8741 67.6043 14.2198 65.3971 11.2656L56.0874 20.5196V20.5181Z" fill="#E31F28"/>
<path d="M28.7382 10.3046C35.9453 10.3046 41.3761 12.125 41.9359 18.1523L49.5208 10.3031H64.6253C61.3395 6.48621 56.4564 4.06055 51.0135 4.06055H21.9891C16.5447 4.06055 11.66 6.48471 8.37427 10.3031H28.7367L28.7382 10.3046Z" fill="#E31F28"/>
<path d="M16.8625 17.9028L14.2882 24.9269H24.6734C27.7438 24.9269 28.6722 23.6651 29.3594 21.2364C30.039 18.8349 28.3309 17.9028 26.2329 17.9028H16.8625Z" fill="#E31F28"/>
<path d="M49.5831 32.8682L41.5598 22.8057C40.0762 29.6671 35.2203 32.8682 26.117 32.8682H7.97693C11.2582 36.9607 16.3203 39.5911 21.9877 39.5911H51.0121C56.6795 39.5911 61.7386 36.9637 65.0198 32.8697H49.5816L49.5831 32.8682Z" fill="#E31F28"/>
</svg>
